<?xml version="1.0" encoding="UTF-8" standalone="no"?>
<!-- Created with Inkscape (http://www.inkscape.org/) -->

<svg
   xmlns:dc="http://purl.org/dc/elements/1.1/"
   xmlns:cc="http://creativecommons.org/ns#"
   xmlns:rdf="http://www.w3.org/1999/02/22-rdf-syntax-ns#"
   xmlns:svg="http://www.w3.org/2000/svg"
   xmlns="http://www.w3.org/2000/svg"
   xmlns:sodipodi="http://sodipodi.sourceforge.net/DTD/sodipodi-0.dtd"
   xmlns:inkscape="http://www.inkscape.org/namespaces/inkscape"
   version="1.1"
   id="svg4780"
   xml:space="preserve"
   width="1000"
   height="666.66669"
   viewBox="0 0 1000 666.66669"
   sodipodi:docname="viagem.svg"
   inkscape:version="0.92.4 (33fec40, 2019-01-16)"><metadata
     id="metadata4786"><rdf:RDF><cc:Work
         rdf:about=""><dc:format>image/svg+xml</dc:format><dc:type
           rdf:resource="http://purl.org/dc/dcmitype/StillImage" /><dc:title></dc:title></cc:Work></rdf:RDF></metadata><defs
     id="defs4784"><clipPath
       clipPathUnits="userSpaceOnUse"
       id="clipPath4798"><path
         d="M 0,500 H 750 V 0 H 0 Z"
         id="path4796"
         inkscape:connector-curvature="0" /></clipPath><clipPath
       clipPathUnits="userSpaceOnUse"
       id="clipPath4982"><path
         d="m 141.27,288.06 h 84.41 v -83.029 h -84.41 z"
         id="path4980"
         inkscape:connector-curvature="0" /></clipPath><clipPath
       clipPathUnits="userSpaceOnUse"
       id="clipPath5046"><path
         d="M 0,500 H 750 V 0 H 0 Z"
         id="path5044"
         inkscape:connector-curvature="0" /></clipPath><clipPath
       clipPathUnits="userSpaceOnUse"
       id="clipPath5102"><path
         d="M 0,500 H 750 V 0 H 0 Z"
         id="path5100"
         inkscape:connector-curvature="0" /></clipPath><clipPath
       clipPathUnits="userSpaceOnUse"
       id="clipPath5118"><path
         d="M 116.552,173.409 H 290.721 V 79.7998 H 116.552 Z"
         id="path5116"
         inkscape:connector-curvature="0" /></clipPath><clipPath
       clipPathUnits="userSpaceOnUse"
       id="clipPath5150"><path
         d="m 121.128,204.032 h 4.691 v -4.691 h -4.691 z"
         id="path5148"
         inkscape:connector-curvature="0" /></clipPath><clipPath
       clipPathUnits="userSpaceOnUse"
       id="clipPath5166"><path
         d="m 121.128,89.3633 h 4.691 v -4.6914 h -4.691 z"
         id="path5164"
         inkscape:connector-curvature="0" /></clipPath><clipPath
       clipPathUnits="userSpaceOnUse"
       id="clipPath5182"><path
         d="m 281.453,204.032 h 4.692 V 84.6719 h -4.692 z"
         id="path5180"
         inkscape:connector-curvature="0" /></clipPath><clipPath
       clipPathUnits="userSpaceOnUse"
       id="clipPath5350"><path
         d="m 222.553,168.545 h 3.155 v -4.412 h -3.155 z"
         id="path5348"
         inkscape:connector-curvature="0" /></clipPath><clipPath
       clipPathUnits="userSpaceOnUse"
       id="clipPath5418"><path
         d="m 208.429,156.354 h 16.327 v -12.795 h -16.327 z"
         id="path5416"
         inkscape:connector-curvature="0" /></clipPath><clipPath
       clipPathUnits="userSpaceOnUse"
       id="clipPath5522"><path
         d="M 0,500 H 750 V 0 H 0 Z"
         id="path5520"
         inkscape:connector-curvature="0" /></clipPath></defs><sodipodi:namedview
     pagecolor="#ffffff"
     bordercolor="#666666"
     borderopacity="1"
     objecttolerance="10"
     gridtolerance="10"
     guidetolerance="10"
     inkscape:pageopacity="0"
     inkscape:pageshadow="2"
     inkscape:window-width="1366"
     inkscape:window-height="666"
     id="namedview4782"
     showgrid="false"
     inkscape:zoom="0.70799998"
     inkscape:cx="500"
     inkscape:cy="333.33334"
     inkscape:window-x="0"
     inkscape:window-y="27"
     inkscape:window-maximized="1"
     inkscape:current-layer="g4788" /><g
     id="g4788"
     inkscape:groupmode="layer"
     inkscape:label="129983-ORUAFI-86"
     transform="matrix(1.3333333,0,0,-1.3333333,0,666.66667)"><g
       id="g4792"
       transform="translate(122.88136,3.1779663)"><g
         id="g4794"
         clip-path="url(#clipPath4798)"><g
           id="g4800"
           transform="translate(437.3936,193.1396)"><path
             d="m 0,0 c -0.865,-11.218 -3.887,-22.64 -9.543,-33.158 -2.17,-4.068 -4.737,-7.981 -7.648,-11.712 14.282,47.278 1.197,106.627 -7.616,137.129 1.058,-1.982 2.117,-4.004 3.173,-6.087 3.831,-7.561 7.58,-15.812 10.982,-24.751 3.363,-8.946 6.4,-18.591 8.446,-28.902 C -0.177,22.223 0.888,11.235 0,0 m -133.768,193.411 c -33.104,0.885 -69.22,-12.224 -101.258,-29.596 5.785,4.892 11.687,9.357 17.69,13.318 9.549,6.328 19.355,11.265 29.215,14.769 9.862,3.482 19.697,5.427 29.091,6.107 4.698,0.208 9.292,0.313 13.721,-0.101 2.226,-0.099 4.387,-0.465 6.533,-0.696 1.066,-0.157 2.116,-0.36 3.164,-0.535 1.046,-0.177 2.086,-0.351 3.099,-0.6 4.876,-1.043 9.473,-2.401 13.78,-3.974 -4.766,0.711 -9.768,1.167 -15.035,1.308 M -246.97,-23.906 c -15.15,5.806 -29.941,12.013 -43.94,18.99 -6.986,3.494 -13.786,7.187 -20.1,11.237 -3.15,2.024 -6.182,4.145 -8.922,6.387 -2.719,2.222 -5.224,4.645 -6.777,6.922 -0.788,1.12 -1.217,2.172 -1.333,2.766 -0.007,0.069 -0.032,0.144 -0.041,0.206 0.004,0.054 0,0.106 -0.012,0.16 l 0.068,0.827 c -0.021,0.505 0.179,1.355 0.303,2.096 0.097,0.731 0.35,1.584 0.552,2.399 l 0.312,1.231 0.386,1.263 0.792,2.531 0.906,2.547 c 2.461,6.798 5.476,13.521 8.664,20.059 0.284,0.58 0.578,1.154 0.865,1.732 18.43,-25.161 53.73,-59.174 91.933,-89.926 -7.881,2.721 -15.771,5.573 -23.656,8.573 M 4.525,33.996 c -2.573,10.695 -6.132,20.508 -9.98,29.525 -3.887,9.007 -8.088,17.227 -12.335,24.709 -3.944,6.945 -7.885,13.27 -11.701,19.026 -0.055,0.163 -0.111,0.327 -0.164,0.483 -0.915,2.684 -1.782,5.366 -2.635,8.059 -4.079,12.875 -21.906,58.746 -72.256,73.235 -1.431,0.837 -2.906,1.663 -4.438,2.47 -6.546,3.494 -14.078,6.588 -22.52,8.816 -1.048,0.309 -2.123,0.543 -3.208,0.78 -1.086,0.234 -2.177,0.497 -3.285,0.713 -2.232,0.351 -4.488,0.834 -6.817,1.047 -4.64,0.643 -9.478,0.758 -14.454,0.751 -9.942,-0.277 -20.45,-1.903 -31.005,-5.162 -5.251,-1.665 -10.589,-3.638 -15.835,-6.073 -2.614,-1.235 -5.289,-2.433 -7.848,-3.897 -1.296,-0.705 -2.6,-1.413 -3.91,-2.124 -1.306,-0.72 -2.554,-1.54 -3.844,-2.312 -10.272,-6.258 -20.238,-13.835 -29.846,-22.412 -7.375,-6.568 -14.518,-13.752 -21.441,-21.438 -29.934,-21.09 -51.358,-42.361 -54.918,-51.008 -1.847,-4.486 0.057,-11.344 4.868,-19.849 -1.445,-2.649 -2.873,-5.322 -4.263,-8.04 -3.447,-6.774 -6.722,-13.735 -9.545,-21.173 l -1.044,-2.809 -0.958,-2.909 -0.471,-1.467 -0.417,-1.54 c -0.272,-1.036 -0.574,-2.018 -0.772,-3.183 -0.209,-1.145 -0.472,-2.165 -0.549,-3.588 -0.049,-0.686 -0.118,-1.292 -0.127,-2.046 0.014,-0.427 0.036,-0.854 0.067,-1.28 0.041,-0.416 0.108,-0.814 0.172,-1.221 0.59,-3.196 1.902,-5.687 3.267,-7.763 2.794,-4.139 6.003,-7.108 9.258,-9.872 3.271,-2.732 6.653,-5.133 10.095,-7.394 6.888,-4.507 14.021,-8.439 21.293,-12.137 14.555,-7.366 29.676,-13.761 45.149,-19.693 20.243,-7.699 40.458,-14.353 60.504,-20.106 46.165,-33.411 90.977,-57.45 110.77,-51.601 24.334,7.19 40.796,20.619 51.59,37.444 0.353,0.239 0.707,0.482 1.051,0.757 l 0.64,0.496 0.5,0.433 c 10.813,8.992 19.766,19.894 25.67,31.885 5.956,11.97 8.834,24.786 9.328,36.97 C 8.68,11.717 7.075,23.315 4.525,33.996"
             style="fill:#368fd8;fill-opacity:1;fill-rule:nonzero;stroke:none"
             id="path4802"
             inkscape:connector-curvature="0" /></g><g
           id="g4804"
           transform="translate(161.9697,371.1807)"><path
             d="m 0,0 c -1.188,-0.82 -2.404,-1.119 -2.716,-0.667 -0.311,0.451 0.399,1.481 1.587,2.302 1.188,0.82 2.403,1.119 2.715,0.668 C 1.898,1.851 1.187,0.82 0,0"
             style="fill:#404851;fill-opacity:1;fill-rule:nonzero;stroke:none"
             id="path4806"
             inkscape:connector-curvature="0" /></g><g
           id="g4808"
           transform="translate(157.791,385.8506)"><path
             d="m 0,0 c -1.187,-0.82 -2.403,-1.119 -2.715,-0.667 -0.311,0.451 0.399,1.482 1.586,2.302 C 0.06,2.455 1.275,2.754 1.587,2.303 1.898,1.851 1.188,0.82 0,0"
             style="fill:#404851;fill-opacity:1;fill-rule:nonzero;stroke:none"
             id="path4810"
             inkscape:connector-curvature="0" /></g><g
           id="g4812"
           transform="translate(118.4443,434.2222)"><path
             d="m 0,0 c -1.187,-0.82 -1.898,-1.851 -1.586,-2.302 0.312,-0.452 1.527,-0.153 2.715,0.667 1.188,0.821 1.898,1.851 1.587,2.303 C 2.404,1.119 1.188,0.82 0,0"
             style="fill:#404851;fill-opacity:1;fill-rule:nonzero;stroke:none"
             id="path4814"
             inkscape:connector-curvature="0" /></g><g
           id="g4816"
           transform="translate(130.6318,425.188)"><path
             d="m 0,0 c -1.187,-0.82 -1.897,-1.851 -1.586,-2.302 0.312,-0.452 1.527,-0.153 2.715,0.667 1.188,0.821 1.898,1.851 1.587,2.303 C 2.404,1.119 1.188,0.82 0,0"
             style="fill:#404851;fill-opacity:1;fill-rule:nonzero;stroke:none"
             id="path4818"
             inkscape:connector-curvature="0" /></g><g
           id="g4820"
           transform="translate(160.8369,355.8296)"><path
             d="m 0,0 -5.465,-3.773 -12.906,20.438 -0.531,0.843 -7.304,11.566 -2.392,3.787 C -39.634,26.196 -50.584,20.136 -58.096,16.764 l 0.74,-13.43 -6.013,-4.151 -4.302,15.198 -12.694,9.405 6.016,4.153 12.294,-5.447 c 5.812,5.832 15.361,13.924 25.502,21.891 l -16.212,21.516 -0.996,1.325 -1.804,2.393 -0.856,1.137 -6.201,8.231 5.463,3.777 7.221,-5.153 2.077,-1.484 3.376,2.331 c 0.998,0.689 2.371,0.438 3.06,-0.56 0.692,-1.002 0.438,-2.372 -0.56,-3.061 l -2.063,-1.429 2.692,-1.918 5.96,-4.254 3.139,2.167 c 1.002,0.691 2.375,0.44 3.064,-0.558 0.691,-1.002 0.44,-2.375 -0.562,-3.066 l -1.83,-1.264 11.148,-7.956 c 2.413,1.747 4.765,3.412 7.002,4.956 22.683,15.671 27.922,9.612 27.922,9.612 0,0 3.81,-7.042 -18.876,-22.714 -2.237,-1.544 -4.626,-3.148 -7.114,-4.785 l 1.192,-4.518 0.103,-0.391 2.201,-8.341 1.828,1.268 c 1.002,0.691 2.371,0.438 3.067,-0.561 0.688,-0.999 0.437,-2.372 -0.565,-3.063 l -3.138,-2.167 0.757,-2.872 1.954,-7.407 2.065,1.426 c 0.998,0.688 2.368,0.44 3.06,-0.561 0.691,-1.001 0.441,-2.369 -0.56,-3.06 L -2.91,11.046 Z"
             style="fill:#fff8e1;fill-opacity:1;fill-rule:nonzero;stroke:none"
             id="path4822"
             inkscape:connector-curvature="0" /></g><g
           id="g4824"
           transform="translate(165.0967,423.8984)"><path
             d="m 0,0 c -0.889,0.071 -1.809,-0.135 -2.592,-0.894 0,0 1.311,-0.175 2.78,-1.236 0.803,-0.579 1.386,-1.424 1.643,-2.379 0.471,-1.75 0.171,-3.038 0.171,-3.038 0.987,0.464 1.505,1.251 1.754,2.106 C 4.499,-2.887 2.651,-0.21 0,0"
             style="fill:#282f39;fill-opacity:1;fill-rule:nonzero;stroke:none"
             id="path4826"
             inkscape:connector-curvature="0" /></g><g
           id="g4828"
           transform="translate(101.1689,374.6558)"><path
             d="m 0,0 c -3.374,-2.33 -6.337,-3.888 -6.618,-3.48 -0.281,0.408 2.225,2.626 5.599,4.956 C 2.355,3.805 5.318,5.363 5.6,4.956 5.881,4.548 3.374,2.329 0,0"
             style="fill:#c5ced7;fill-opacity:1;fill-rule:nonzero;stroke:none"
             id="path4830"
             inkscape:connector-curvature="0" /></g><g
           id="g4832"
           transform="translate(162.1963,381.1733)"><path
             d="M 0,0 -8.347,12.089 -8.905,11.703 -0.56,-0.386 Z"
             style="fill:#c5ced7;fill-opacity:1;fill-rule:nonzero;stroke:none"
             id="path4834"
             inkscape:connector-curvature="0" /></g><g
           id="g4836"
           transform="translate(166.3662,366.3921)"><path
             d="M 0,0 -8.347,12.088 -8.905,11.703 -0.56,-0.386 Z"
             style="fill:#c5ced7;fill-opacity:1;fill-rule:nonzero;stroke:none"
             id="path4838"
             inkscape:connector-curvature="0" /></g><g
           id="g4840"
           transform="translate(127.8691,430.8931)"><path
             d="M 0,0 8.346,-12.089 7.787,-12.475 -0.56,-0.386 Z"
             style="fill:#c5ced7;fill-opacity:1;fill-rule:nonzero;stroke:none"
             id="path4842"
             inkscape:connector-curvature="0" /></g><g
           id="g4844"
           transform="translate(115.5254,440.0308)"><path
             d="M 0,0 8.346,-12.088 7.786,-12.475 -0.56,-0.386 Z"
             style="fill:#c5ced7;fill-opacity:1;fill-rule:nonzero;stroke:none"
             id="path4846"
             inkscape:connector-curvature="0" /></g><g
           id="g4848"
           transform="translate(150.5264,394.938)"><path
             d="m 0,0 -15.896,-10.035 -2.391,3.787 c 3.278,1.958 17.095,10.766 17.095,10.766 z"
             style="fill:#c5ced7;fill-opacity:1;fill-rule:nonzero;stroke:none"
             id="path4850"
             inkscape:connector-curvature="0" /></g><g
           id="g4852"
           transform="translate(119.4805,427.3179)"><path
             d="m 0,0 -11.408,-5.589 -0.996,1.325 9.713,6.182 z"
             style="fill:#c5ced7;fill-opacity:1;fill-rule:nonzero;stroke:none"
             id="path4854"
             inkscape:connector-curvature="0" /></g><g
           id="g4856"
           transform="translate(154.7793,378.811)"><path
             d="m 0,0 -12.313,-6.316 -0.532,0.843 12.087,8.345 z"
             style="fill:#c5ced7;fill-opacity:1;fill-rule:nonzero;stroke:none"
             id="path4858"
             inkscape:connector-curvature="0" /></g><g
           id="g4860"
           transform="translate(147.8359,415.8184)"><path
             d="M 0,0 C -0.191,0.276 -0.131,0.656 0.141,0.858 1.628,1.971 2.505,2.623 2.505,2.623 2.783,2.83 3.176,2.771 3.383,2.494 3.584,2.222 3.531,1.823 3.253,1.616 c 0,0 -0.876,-0.652 -2.361,-1.762 C 0.614,-0.354 0.222,-0.297 0.014,-0.02 0.009,-0.013 0.004,-0.007 0,0 m -4.696,-3.523 c -0.191,0.275 -0.13,0.654 0.139,0.857 l 2.347,1.764 c 0.277,0.207 0.671,0.152 0.878,-0.125 0.211,-0.292 0.152,-0.671 -0.125,-0.879 l -2.346,-1.762 c -0.276,-0.208 -0.67,-0.153 -0.878,0.124 -0.005,0.007 -0.01,0.014 -0.015,0.021 m -4.683,-3.538 c -0.189,0.275 -0.131,0.653 0.138,0.856 0.803,0.609 1.586,1.201 2.341,1.771 0.276,0.209 0.67,0.154 0.879,-0.122 0.214,-0.279 0.153,-0.67 -0.123,-0.879 -0.754,-0.57 -1.537,-1.162 -2.339,-1.77 -0.277,-0.209 -0.67,-0.154 -0.879,0.122 -0.006,0.007 -0.011,0.015 -0.017,0.022 m -4.67,-3.552 c -0.189,0.274 -0.132,0.651 0.136,0.855 0.785,0.6 1.565,1.195 2.334,1.779 0.275,0.21 0.669,0.156 0.879,-0.119 0.209,-0.275 0.156,-0.67 -0.119,-0.879 -0.769,-0.585 -1.548,-1.179 -2.332,-1.778 -0.276,-0.21 -0.669,-0.158 -0.88,0.117 z m -4.654,-3.572 c -0.188,0.273 -0.132,0.648 0.134,0.853 0.772,0.596 1.55,1.195 2.328,1.791 0.274,0.211 0.669,0.16 0.88,-0.115 0.209,-0.274 0.159,-0.669 -0.117,-0.88 -0.776,-0.596 -1.552,-1.194 -2.325,-1.79 -0.274,-0.211 -0.669,-0.16 -0.88,0.114 -0.006,0.009 -0.013,0.018 -0.02,0.027 m -4.633,-3.6 c -0.186,0.271 -0.133,0.644 0.13,0.849 0.757,0.594 1.53,1.197 2.315,1.807 0.274,0.212 0.667,0.163 0.88,-0.111 0.22,-0.284 0.163,-0.667 -0.11,-0.88 -0.783,-0.609 -1.556,-1.211 -2.312,-1.803 -0.272,-0.214 -0.667,-0.166 -0.88,0.107 -0.008,0.01 -0.016,0.02 -0.023,0.031 m -4.6,-3.644 c -0.184,0.267 -0.133,0.637 0.124,0.845 0.732,0.587 1.501,1.2 2.298,1.832 0.272,0.215 0.666,0.169 0.881,-0.102 0.219,-0.276 0.169,-0.667 -0.102,-0.882 -0.795,-0.629 -1.561,-1.24 -2.29,-1.826 -0.271,-0.218 -0.665,-0.175 -0.882,0.095 -0.01,0.012 -0.02,0.025 -0.029,0.038 m -4.525,-3.738 c -0.18,0.261 -0.138,0.621 0.108,0.832 0.649,0.558 1.41,1.196 2.258,1.895 0.268,0.22 0.663,0.182 0.884,-0.086 0.22,-0.262 0.182,-0.663 -0.086,-0.883 -0.843,-0.693 -1.596,-1.325 -2.238,-1.878 -0.263,-0.225 -0.658,-0.195 -0.885,0.067 -0.015,0.017 -0.028,0.035 -0.041,0.053"
             style="fill:#c5ced7;fill-opacity:1;fill-rule:nonzero;stroke:none"
             id="path4862"
             inkscape:connector-curvature="0" /></g><g
           id="g4864"
           transform="translate(155.2314,405.1069)"><path
             d="M 0,0 C -0.187,0.292 -0.1,0.68 0.192,0.866 1.758,1.861 2.677,2.45 2.678,2.45 2.97,2.636 3.361,2.544 3.544,2.259 3.73,1.967 3.646,1.58 3.354,1.393 c 0,0 -0.921,-0.589 -2.488,-1.586 C 0.581,-0.375 0.204,-0.296 0.014,-0.02 0.009,-0.013 0.005,-0.007 0,0 m -4.959,-3.141 c -0.186,0.293 -0.099,0.681 0.194,0.866 l 2.48,1.568 c 0.292,0.186 0.668,0.107 0.866,-0.194 0.185,-0.292 0.098,-0.68 -0.194,-0.866 l -2.481,-1.569 c -0.285,-0.181 -0.661,-0.102 -0.851,0.173 -0.005,0.008 -0.01,0.015 -0.014,0.022 m -4.969,-3.123 c -0.184,0.293 -0.095,0.681 0.199,0.865 0.852,0.535 1.682,1.057 2.483,1.56 0.293,0.184 0.681,0.103 0.865,-0.197 0.185,-0.293 0.097,-0.681 -0.197,-0.865 -0.801,-0.504 -1.632,-1.026 -2.485,-1.561 -0.286,-0.179 -0.66,-0.1 -0.85,0.174 z m -4.978,-3.106 c -0.183,0.294 -0.093,0.681 0.202,0.864 0.838,0.521 1.67,1.039 2.488,1.55 0.294,0.184 0.683,0.093 0.864,-0.2 0.184,-0.293 0.094,-0.68 -0.199,-0.864 -0.819,-0.511 -1.652,-1.03 -2.491,-1.552 -0.285,-0.178 -0.658,-0.098 -0.848,0.176 -0.006,0.009 -0.01,0.017 -0.016,0.026 m -4.991,-3.084 c -0.182,0.296 -0.09,0.682 0.206,0.864 0.83,0.51 1.665,1.025 2.498,1.54 0.294,0.183 0.68,0.089 0.863,-0.203 0.183,-0.295 0.091,-0.682 -0.204,-0.864 -0.833,-0.515 -1.669,-1.03 -2.5,-1.542 -0.285,-0.176 -0.656,-0.095 -0.845,0.178 -0.007,0.009 -0.013,0.018 -0.018,0.027 m -5.011,-3.052 c -0.18,0.297 -0.084,0.682 0.212,0.861 0.821,0.497 1.658,1.006 2.505,1.523 0.295,0.18 0.673,0.098 0.862,-0.209 0.181,-0.296 0.087,-0.681 -0.208,-0.862 -0.849,-0.517 -1.688,-1.027 -2.51,-1.525 -0.285,-0.173 -0.653,-0.091 -0.841,0.18 -0.007,0.011 -0.013,0.021 -0.02,0.032 m -5.042,-3.002 c -0.176,0.299 -0.076,0.683 0.222,0.859 0.807,0.474 1.651,0.974 2.52,1.494 0.298,0.177 0.681,0.086 0.861,-0.217 0.177,-0.297 0.08,-0.682 -0.216,-0.86 -0.874,-0.521 -1.719,-1.023 -2.529,-1.499 -0.285,-0.168 -0.648,-0.084 -0.833,0.184 -0.009,0.012 -0.017,0.026 -0.025,0.039 m -5.11,-2.889 c -0.165,0.304 -0.052,0.685 0.252,0.85 0.745,0.406 1.602,0.885 2.549,1.428 0.301,0.172 0.69,0.066 0.856,-0.233 0.173,-0.301 0.068,-0.684 -0.233,-0.856 -0.954,-0.547 -1.82,-1.031 -2.572,-1.44 -0.285,-0.155 -0.636,-0.067 -0.815,0.193 -0.013,0.018 -0.025,0.038 -0.037,0.058"
             style="fill:#c5ced7;fill-opacity:1;fill-rule:nonzero;stroke:none"
             id="path4866"
             inkscape:connector-curvature="0" /></g><g
           id="g4868"
           transform="translate(81.5249,360.1875)"><path
             d="M 0,0 C -0.33,0 -0.656,0.146 -0.876,0.425 -1.258,0.909 -1.175,1.61 -0.691,1.991 1.059,3.372 2.87,4.739 4.69,6.054 5.19,6.415 5.887,6.302 6.248,5.804 6.608,5.304 6.496,4.607 5.997,4.246 4.202,2.948 2.416,1.6 0.69,0.24 0.485,0.079 0.242,0 0,0 m -10.143,-8.73 c -0.296,0 -0.592,0.117 -0.812,0.35 -0.422,0.448 -0.401,1.154 0.048,1.577 1.614,1.52 3.3,3.037 5.01,4.509 0.467,0.401 1.172,0.348 1.574,-0.118 0.401,-0.468 0.348,-1.172 -0.118,-1.574 -1.686,-1.45 -3.347,-2.944 -4.937,-4.441 -0.215,-0.203 -0.49,-0.303 -0.765,-0.303 m -9.275,-9.65 c -0.259,0 -0.518,0.089 -0.728,0.272 -0.467,0.402 -0.518,1.107 -0.115,1.573 1.443,1.67 2.976,3.348 4.555,4.988 0.428,0.443 1.134,0.457 1.577,0.03 0.444,-0.427 0.458,-1.133 0.03,-1.577 -1.551,-1.612 -3.057,-3.26 -4.475,-4.9 -0.22,-0.256 -0.531,-0.386 -0.844,-0.386 m -8.113,-10.65 c -0.212,0 -0.426,0.06 -0.615,0.185 -0.513,0.34 -0.654,1.032 -0.315,1.546 1.214,1.837 2.536,3.693 3.929,5.517 0.373,0.49 1.073,0.584 1.564,0.21 0.489,-0.374 0.583,-1.074 0.21,-1.564 -1.363,-1.784 -2.656,-3.598 -3.842,-5.393 -0.214,-0.325 -0.569,-0.501 -0.931,-0.501 m -6.449,-11.713 c -0.151,0 -0.303,0.031 -0.449,0.096 -0.565,0.248 -0.82,0.906 -0.571,1.469 0.887,2.016 1.904,4.063 3.021,6.083 0.299,0.539 0.978,0.734 1.516,0.436 0.539,-0.298 0.735,-0.977 0.437,-1.516 -1.086,-1.962 -2.073,-3.948 -2.933,-5.901 -0.184,-0.418 -0.593,-0.667 -1.021,-0.667 m -4.048,-12.731 c -0.07,0 -0.141,0.007 -0.213,0.02 -0.605,0.118 -1,0.703 -0.884,1.308 0.424,2.184 0.996,4.406 1.702,6.604 0.188,0.587 0.819,0.91 1.402,0.722 0.587,-0.188 0.91,-0.816 0.722,-1.402 -0.678,-2.115 -1.228,-4.252 -1.635,-6.349 -0.103,-0.533 -0.57,-0.903 -1.094,-0.903 m -0.777,-13.314 c -0.575,0 -1.063,0.442 -1.11,1.026 -0.106,1.291 -0.158,2.605 -0.158,3.905 0,0.975 0.029,1.963 0.088,2.938 0.037,0.615 0.551,1.092 1.18,1.046 0.615,-0.036 1.084,-0.565 1.047,-1.18 -0.056,-0.929 -0.084,-1.874 -0.084,-2.804 0,-1.24 0.05,-2.494 0.15,-3.726 0.05,-0.613 -0.407,-1.151 -1.022,-1.201 -0.03,-0.003 -0.061,-0.004 -0.091,-0.004 m 2.422,-13.145 c -0.489,0 -0.937,0.324 -1.074,0.816 -0.608,2.183 -1.123,4.409 -1.532,6.615 -0.113,0.605 0.288,1.188 0.894,1.299 0.604,0.116 1.187,-0.288 1.3,-0.893 0.396,-2.142 0.897,-4.302 1.487,-6.422 0.165,-0.593 -0.182,-1.208 -0.775,-1.374 -0.1,-0.027 -0.201,-0.041 -0.3,-0.041 m 4.653,-12.531 c -0.42,0 -0.822,0.237 -1.011,0.644 -0.96,2.054 -1.842,4.158 -2.621,6.252 -0.214,0.577 0.08,1.219 0.657,1.434 0.578,0.215 1.22,-0.079 1.434,-0.657 0.758,-2.038 1.617,-4.084 2.552,-6.086 0.26,-0.558 0.019,-1.221 -0.539,-1.482 -0.153,-0.071 -0.313,-0.105 -0.472,-0.105 m 6.56,-11.651 c -0.361,0 -0.715,0.176 -0.931,0.498 -1.251,1.885 -2.442,3.826 -3.54,5.773 -0.302,0.537 -0.112,1.217 0.424,1.519 0.537,0.303 1.218,0.114 1.52,-0.424 1.071,-1.899 2.233,-3.793 3.455,-5.632 0.341,-0.514 0.201,-1.206 -0.312,-1.547 -0.19,-0.127 -0.404,-0.187 -0.616,-0.187 m 8.139,-10.61 c -0.31,0 -0.618,0.128 -0.839,0.379 -1.496,1.703 -2.941,3.462 -4.295,5.225 -0.375,0.489 -0.284,1.189 0.206,1.564 0.487,0.375 1.188,0.283 1.563,-0.205 1.325,-1.724 2.738,-3.444 4.203,-5.111 0.406,-0.463 0.36,-1.168 -0.103,-1.574 -0.212,-0.187 -0.474,-0.278 -0.735,-0.278 m 9.439,-9.479 c -0.263,0 -0.527,0.092 -0.74,0.28 -1.688,1.498 -3.342,3.06 -4.917,4.64 -0.435,0.437 -0.434,1.142 0.003,1.578 0.435,0.435 1.142,0.435 1.578,-0.003 1.543,-1.549 3.163,-3.078 4.817,-4.546 0.461,-0.408 0.503,-1.114 0.094,-1.575 -0.221,-0.248 -0.527,-0.374 -0.835,-0.374 m 10.516,-8.275 c -0.22,0 -0.442,0.065 -0.636,0.201 -1.847,1.284 -3.675,2.636 -5.433,4.02 -0.484,0.381 -0.568,1.083 -0.187,1.567 0.381,0.484 1.083,0.565 1.566,0.187 1.724,-1.357 3.517,-2.683 5.328,-3.942 0.505,-0.353 0.63,-1.047 0.278,-1.554 -0.216,-0.312 -0.563,-0.479 -0.916,-0.479 m 11.407,-6.997 c -0.179,0 -0.361,0.044 -0.53,0.135 -1.224,0.662 -2.44,1.344 -3.646,2.046 -0.74,0.43 -1.477,0.87 -2.209,1.318 -0.526,0.324 -0.69,1.009 -0.368,1.535 0.321,0.524 1.009,0.688 1.534,0.368 0.718,-0.441 1.439,-0.871 2.165,-1.293 1.187,-0.691 2.382,-1.36 3.586,-2.011 0.541,-0.293 0.743,-0.971 0.45,-1.512 -0.202,-0.374 -0.585,-0.586 -0.982,-0.586 m 12.067,-5.78 c -0.145,0 -0.292,0.028 -0.434,0.088 -2.081,0.879 -4.149,1.811 -6.149,2.768 -0.556,0.267 -0.791,0.932 -0.524,1.488 0.266,0.557 0.931,0.789 1.488,0.525 1.969,-0.943 4.005,-1.86 6.054,-2.726 0.568,-0.241 0.834,-0.895 0.593,-1.462 -0.179,-0.425 -0.593,-0.681 -1.028,-0.681 m 12.535,-4.681 c -0.114,0 -0.231,0.017 -0.347,0.055 -2.155,0.706 -4.294,1.454 -6.359,2.225 -0.577,0.215 -0.87,0.857 -0.655,1.434 0.215,0.577 0.857,0.869 1.434,0.655 2.036,-0.758 4.148,-1.496 6.275,-2.194 0.585,-0.191 0.904,-0.821 0.713,-1.407 -0.155,-0.47 -0.591,-0.768 -1.061,-0.768 m 12.862,-3.697 c -0.089,0 -0.181,0.011 -0.272,0.034 -2.185,0.546 -4.371,1.132 -6.5,1.744 -0.592,0.169 -0.934,0.787 -0.765,1.378 0.17,0.593 0.787,0.934 1.38,0.765 2.105,-0.603 4.267,-1.183 6.427,-1.724 0.598,-0.149 0.961,-0.754 0.811,-1.351 -0.126,-0.508 -0.582,-0.846 -1.081,-0.846 m 13.078,-2.847 c -0.069,0 -0.138,0.006 -0.207,0.019 -2.226,0.418 -4.443,0.865 -6.591,1.332 -0.602,0.131 -0.984,0.725 -0.854,1.326 0.131,0.603 0.729,0.986 1.327,0.855 2.127,-0.462 4.325,-0.906 6.529,-1.321 0.605,-0.113 1.004,-0.696 0.89,-1.301 -0.1,-0.536 -0.569,-0.91 -1.094,-0.91 m 13.213,-2.137 c -0.05,0 -0.101,0.003 -0.153,0.011 -2.229,0.305 -4.466,0.639 -6.645,0.991 -0.609,0.097 -1.023,0.671 -0.924,1.279 0.097,0.608 0.674,1.025 1.278,0.924 2.164,-0.349 4.382,-0.681 6.595,-0.985 0.61,-0.084 1.037,-0.646 0.953,-1.257 -0.076,-0.558 -0.555,-0.963 -1.104,-0.963 m 13.296,-1.563 c -0.036,0 -0.073,0.002 -0.11,0.006 -2.225,0.22 -4.451,0.458 -6.676,0.719 -0.611,0.072 -1.05,0.625 -0.978,1.237 0.071,0.613 0.632,1.055 1.237,0.979 2.212,-0.258 4.424,-0.497 6.636,-0.715 0.613,-0.061 1.061,-0.607 1.001,-1.22 -0.057,-0.575 -0.542,-1.006 -1.11,-1.006"
             style="fill:#ffffff;fill-opacity:1;fill-rule:nonzero;stroke:none"
             id="path4870"
             inkscape:connector-curvature="0" /></g><g
           id="g4872"
           transform="translate(446.5664,78.123)"><path
             d="M 0,0 C 0,0 -78.637,-18.154 -175.64,-18.154 -272.644,-18.154 -351.28,0 -351.28,0 c 0,0 78.636,18.154 175.64,18.154 C -78.637,18.154 0,0 0,0"
             style="fill:#368fd8;fill-opacity:1;fill-rule:nonzero;stroke:none"
             id="path4874"
             inkscape:connector-curvature="0" /></g><g
           id="g4876"
           transform="translate(414.8428,81.2148)"><path
             d="m 0,0 h -122.602 c -8.142,0 -14.743,6.601 -14.743,14.743 v 174.906 c 0,8.143 6.601,14.743 14.743,14.743 H 0 c 8.143,0 14.743,-6.6 14.743,-14.743 V 14.743 C 14.743,6.601 8.143,0 0,0"
             style="fill:#d8761d;fill-opacity:1;fill-rule:nonzero;stroke:none"
             id="path4878"
             inkscape:connector-curvature="0" /></g><g
           id="g4880"
           transform="translate(308.1982,213.2959)"><path
             d="m 0,0 c 34.616,26.845 78.854,39.521 121.388,35.004 v 22.564 c 0,8.142 -6.601,14.743 -14.743,14.743 H -15.957 C -24.099,72.311 -30.7,65.71 -30.7,57.568 V -40.411 C -24.741,-24.135 -13.78,-10.518 0,0"
             style="fill:#e88636;fill-opacity:1;fill-rule:nonzero;stroke:none"
             id="path4882"
             inkscape:connector-curvature="0" /></g><path
           d="m 316.271,76.206 h -22.72 v 5.009 h 22.72 z"
           style="fill:#282f39;fill-opacity:1;fill-rule:nonzero;stroke:none"
           id="path4884"
           inkscape:connector-curvature="0" /><path
           d="m 413.533,76.206 h -22.72 v 5.009 h 22.72 z"
           style="fill:#282f39;fill-opacity:1;fill-rule:nonzero;stroke:none"
           id="path4886"
           inkscape:connector-curvature="0" /><g
           id="g4888"
           transform="translate(413.5332,81.2148)"><path
             d="m 0,0 h -119.981 v 112.969 c 0,7.096 5.752,12.849 12.848,12.849 h 94.283 c 7.097,0 12.85,-5.753 12.85,-12.849 z"
             style="fill:#8e3d00;fill-opacity:1;fill-rule:nonzero;stroke:none"
             id="path4890"
             inkscape:connector-curvature="0" /></g><g
           id="g4892"
           transform="translate(411.167,81.2148)"><path
             d="m 0,0 h -115.249 v 111.558 c 0,6.559 5.316,11.876 11.876,11.876 h 91.497 C -5.317,123.434 0,118.117 0,111.558 Z"
             style="fill:#af550b;fill-opacity:1;fill-rule:nonzero;stroke:none"
             id="path4894"
             inkscape:connector-curvature="0" /></g><g
           id="g4896"
           transform="translate(398.9922,185.0635)"><path
             d="m 0,0 h -90.899 c -0.511,0 -0.925,0.414 -0.925,0.925 0,0.511 0.414,0.925 0.925,0.925 H 0 C 0.511,1.85 0.925,1.436 0.925,0.925 0.925,0.414 0.511,0 0,0"
             style="fill:#d3d3d3;fill-opacity:1;fill-rule:nonzero;stroke:none"
             id="path4898"
             inkscape:connector-curvature="0" /></g><path
           d="m 311.214,184.078 h -1.479 v 1.362 h 1.479 z m 0.31,1.91 h -2.1 l -0.334,-3.811 c -0.071,-0.813 0.568,-1.511 1.385,-1.511 0.815,0 1.456,0.698 1.384,1.511 z"
           style="fill:#e5e5e5;fill-opacity:1;fill-rule:nonzero;stroke:none"
           id="path4900"
           inkscape:connector-curvature="0" /><g
           id="g4902"
           transform="translate(310.4746,184.623)"><path
             d="m 0,0 v 0 c -0.178,0 -0.321,0.144 -0.321,0.321 v 1.254 c 0,0.178 0.143,0.321 0.321,0.321 0.177,0 0.32,-0.143 0.32,-0.321 V 0.321 C 0.32,0.144 0.177,0 0,0"
             style="fill:#bcb7b3;fill-opacity:1;fill-rule:nonzero;stroke:none"
             id="path4904"
             inkscape:connector-curvature="0" /></g><g
           id="g4906"
           transform="translate(407.7646,234.5)"><path
             d="m 0,0 h -108.444 c -3.187,0 -5.769,2.583 -5.769,5.769 v 18.947 c 0,3.186 2.582,5.769 5.769,5.769 H 0 c 3.186,0 5.769,-2.583 5.769,-5.769 V 5.769 C 5.769,2.583 3.186,0 0,0"
             style="fill:#8e3d00;fill-opacity:1;fill-rule:nonzero;stroke:none"
             id="path4908"
             inkscape:connector-curvature="0" /></g><g
           id="g4910"
           transform="translate(407.5654,236.7803)"><path
             d="m 0,0 h -108.047 c -1.988,0 -3.6,1.612 -3.6,3.601 v 18.722 c 0,1.989 1.612,3.601 3.6,3.601 H 0 c 1.989,0 3.602,-1.612 3.602,-3.601 V 3.601 C 3.602,1.612 1.989,0 0,0"
             style="fill:#af550b;fill-opacity:1;fill-rule:nonzero;stroke:none"
             id="path4912"
             inkscape:connector-curvature="0" /></g><g
           id="g4914"
           transform="translate(398.9922,251.0161)"><path
             d="m 0,0 h -90.899 c -0.511,0 -0.925,0.414 -0.925,0.925 0,0.511 0.414,0.925 0.925,0.925 H 0 C 0.511,1.85 0.925,1.436 0.925,0.925 0.925,0.414 0.511,0 0,0"
             style="fill:#d3d3d3;fill-opacity:1;fill-rule:nonzero;stroke:none"
             id="path4916"
             inkscape:connector-curvature="0" /></g><path
           d="m 311.214,250.031 h -1.479 v 1.362 h 1.479 z m 0.31,1.91 h -2.1 l -0.334,-3.811 c -0.071,-0.813 0.568,-1.512 1.385,-1.512 0.815,0 1.456,0.699 1.384,1.512 z"
           style="fill:#e5e5e5;fill-opacity:1;fill-rule:nonzero;stroke:none"
           id="path4918"
           inkscape:connector-curvature="0" /><g
           id="g4920"
           transform="translate(310.4746,250.5762)"><path
             d="m 0,0 v 0 c -0.178,0 -0.321,0.144 -0.321,0.321 v 1.255 c 0,0.177 0.143,0.32 0.321,0.32 0.177,0 0.32,-0.143 0.32,-0.32 V 0.321 C 0.32,0.144 0.177,0 0,0"
             style="fill:#bcb7b3;fill-opacity:1;fill-rule:nonzero;stroke:none"
             id="path4922"
             inkscape:connector-curvature="0" /></g><path
           d="m 277.498,109.757 h -5.248 v 10.733 h 5.248 z"
           style="fill:#282f39;fill-opacity:1;fill-rule:nonzero;stroke:none"
           id="path4924"
           inkscape:connector-curvature="0" /><path
           d="m 277.498,246.332 h -5.248 v 10.733 h 5.248 z"
           style="fill:#282f39;fill-opacity:1;fill-rule:nonzero;stroke:none"
           id="path4926"
           inkscape:connector-curvature="0" /><g
           id="g4928"
           transform="translate(429.5859,201.127)"><path
             d="m 0,0 v -6.346 c 1.384,0 2.505,-2.361 2.505,-5.272 v -12.195 c 0,-2.913 -1.121,-5.273 -2.505,-5.273 v -6.346 c 3.048,0 5.52,5.203 5.52,11.619 v 12.195 C 5.52,-5.202 3.048,0 0,0"
             style="fill:#282f39;fill-opacity:1;fill-rule:nonzero;stroke:none"
             id="path4930"
             inkscape:connector-curvature="0" /></g><g
           id="g4932"
           transform="translate(395.54,357.7148)"><path
             d="m 0,0 c 0,10.593 -8.587,19.18 -19.181,19.18 h -45.254 c -10.593,0 -19.18,-8.587 -19.18,-19.18 v -9.498 h 11.189 v 6.264 c 0,6.081 4.93,11.01 11.01,11.01 h 39.217 c 6.08,0 11.01,-4.929 11.01,-11.01 V -9.498 H 0 Z"
             style="fill:#282f39;fill-opacity:1;fill-rule:nonzero;stroke:none"
             id="path4934"
             inkscape:connector-curvature="0" /></g><path
           d="m 386.404,285.607 h 6.863 v 62.61 h -6.863 z"
           style="fill:#d3d3d3;fill-opacity:1;fill-rule:nonzero;stroke:none"
           id="path4936"
           inkscape:connector-curvature="0" /><path
           d="m 314.197,285.607 h 6.863 v 62.61 h -6.863 z"
           style="fill:#d3d3d3;fill-opacity:1;fill-rule:nonzero;stroke:none"
           id="path4938"
           inkscape:connector-curvature="0" /><path
           d="m 393.268,348.217 h -6.863 v -8.092 h 6.863 z"
           style="fill:#bcb7b3;fill-opacity:1;fill-rule:nonzero;stroke:none"
           id="path4940"
           inkscape:connector-curvature="0" /><path
           d="m 321.061,348.217 h -6.863 v -8.092 h 6.863 z"
           style="fill:#bcb7b3;fill-opacity:1;fill-rule:nonzero;stroke:none"
           id="path4942"
           inkscape:connector-curvature="0" /><g
           id="g4944"
           transform="translate(188.2891,297.7197)"><path
             d="m 0,0 -21.895,-19.332 -28.785,2.229 -21.895,-19.33 26.122,-81.661 22.978,15.947 27.702,1.156 22.978,15.946 27.708,1.158 -26.121,81.66 z"
             style="fill:#d82c28;fill-opacity:1;fill-rule:nonzero;stroke:none"
             id="path4946"
             inkscape:connector-curvature="0" /></g><g
           id="g4948"
           transform="translate(137.25,276.6724)"><path
             d="M 0,0 24.86,-77.715 5.856,-90.901 -18.107,-15.984 Z"
             style="fill:#ffffff;fill-opacity:1;fill-rule:nonzero;stroke:none"
             id="path4950"
             inkscape:connector-curvature="0" /></g><g
           id="g4952"
           transform="translate(167.6973,274.3145)"><path
             d="M 0,0 23.714,-74.135 -5.587,-75.357 -30.447,2.358 Z"
             style="fill:#c0c9c8;fill-opacity:1;fill-rule:nonzero;stroke:none"
             id="path4954"
             inkscape:connector-curvature="0" /></g><g
           id="g4956"
           transform="translate(190.8564,294.7617)"><path
             d="M 0,0 24.86,-77.715 0.555,-94.582 -23.159,-20.447 Z"
             style="fill:#ffffff;fill-opacity:1;fill-rule:nonzero;stroke:none"
             id="path4958"
             inkscape:connector-curvature="0" /></g><g
           id="g4960"
           transform="translate(214.666,292.9229)"><path
             d="M 0,0 23.965,-74.917 1.051,-75.876 -23.81,1.839 Z"
             style="fill:#c0c9c8;fill-opacity:1;fill-rule:nonzero;stroke:none"
             id="path4962"
             inkscape:connector-curvature="0" /></g><g
           id="g4964"
           transform="translate(127.1328,246.6758)"><path
             d="m 0,0 5.252,9.324 8.4,-0.941 4.633,2.822 -0.881,2.75 -3.546,2.646 1.83,5.254 16.513,2.393 3.96,-4.361 -1.536,-2.373 -5.412,2.149 -5.358,-3.929 -2.114,-3.098 1.062,-1.629 5.435,-3.068 0.817,5.045 5.217,0.568 1.222,-1.707 -0.673,-3.805 3.978,-1.042 2.871,-4.331 -2.883,-3.226 -4.091,-0.717 -3.309,-9.068 -5.999,-2.553 -0.056,-4.259 3.515,-2.127 1.954,3.177 14.49,-0.145 4.259,-5.718 -4.966,-6.843 2.403,-7.933 3.623,-2.886 -1.65,-2.014 -11.814,3.168 -3.45,10.364 -5.683,0.467 -1.492,4.664 -5.011,4.271 -1.794,8.139 -7.104,2.373 -1.27,10.303 -3.394,2.168 -5.097,-5.166 z"
             style="fill:#59a6ec;fill-opacity:1;fill-rule:nonzero;stroke:none"
             id="path4966"
             inkscape:connector-curvature="0" /></g><g
           id="g4968"
           transform="translate(175.2656,243.0625)"><path
             d="m 0,0 -2.954,-4.689 4.042,-8.839 5.701,-1.785 8.23,4.234 6.352,-10.576 5.607,-4.866 3.045,1.028 -1.226,17.341 -6.486,7.616 1.96,3.576 -4.259,2.767 4.625,8.751 7.475,-1.85 3.25,-1.722 1.444,-4.511 4.619,-1.356 0.126,2.56 -3.613,1.166 0.17,9.596 -6.925,5.613 4.638,6.601 -4.548,5.355 1.258,4.929 L 28.93,45.024 14.191,42.567 7.697,33.751 -3.182,28.093 -5.948,17.752 -0.479,12.045 4.433,8.933 8.409,12.527 9.671,8.581 9.017,3.042 4.072,4.571 Z"
             style="fill:#59a6ec;fill-opacity:1;fill-rule:nonzero;stroke:none"
             id="path4970"
             inkscape:connector-curvature="0" /></g><g
           id="g4972"
           transform="translate(214.1777,236.2031)"><path
             d="m 0,0 -4.78,-3.202 -1.146,-5.289 3.51,-2.526 3.607,3.072 3.46,-0.688 2.016,2.139 3.219,-2.889 1.605,1.735 -4.607,4.274 c 0,0 2.889,3.625 2.653,3.943 -0.236,0.318 -4.096,3.52 -4.096,3.52 L 2.029,2.938 2.37,-0.657 Z"
             style="fill:#59a6ec;fill-opacity:1;fill-rule:nonzero;stroke:none"
             id="path4974"
             inkscape:connector-curvature="0" /></g><g
           id="g4976"><g
             id="g4978" /><g
             id="g4998"><g
               clip-path="url(#clipPath4982)"
               id="g4996"
               style="opacity:0.5"><g
                 transform="translate(152.5195,233.7803)"
                 id="g4986"><path
                   d="m 0,0 -0.056,-4.256 3.516,-2.129 1.947,3.178 14.497,-0.148 4.259,-5.718 -4.971,-6.845 2.409,-7.932 3.619,-2.881 -1.647,-2.018 -11.818,3.167 -3.445,10.364 -5.132,0.423 -12.09,37.792 1.81,1.103 -0.881,2.755 -2.838,2.111 -0.429,1.342 1.551,4.443 16.511,2.392 3.96,-4.356 -1.539,-2.379 -5.409,2.149 -5.362,-3.924 -2.111,-3.097 1.063,-1.629 5.438,-3.07 0.815,5.045 L 8.88,26.449 10.107,24.74 9.43,20.934 13.407,19.892 16.281,15.566 13.395,12.335 9.306,11.623 5.994,2.556 Z"
                   style="fill:#59a6ec;fill-opacity:1;fill-rule:nonzero;stroke:none"
                   id="path4984"
                   inkscape:connector-curvature="0" /></g><g
                 transform="translate(211.0957,273.6899)"
                 id="g4990"><path
                   d="m 0,0 -4.635,-6.604 6.923,-5.614 -0.17,-9.597 3.613,-1.166 -0.13,-2.556 -4.612,1.353 -1.444,4.514 -3.257,1.723 -4.398,1.092 -9.42,29.446 10.64,1.779 3.601,-4.088 -1.258,-4.932 z"
                   style="fill:#59a6ec;fill-opacity:1;fill-rule:nonzero;stroke:none"
                   id="path4988"
                   inkscape:connector-curvature="0" /></g><g
                 transform="translate(221.0732,232.8008)"
                 id="g4994"><path
                   d="m 0,0 4.606,-4.273 -1.607,-1.735 -3.217,2.89 -2.018,-2.145 -3.462,0.693 -2.545,-2.171 -2.427,7.584 3.782,2.532 2.375,-0.661 -0.341,3.598 3.407,1.149 c 0,0 3.86,-3.205 4.098,-3.522 C 2.891,3.622 0,0 0,0"
                   style="fill:#59a6ec;fill-opacity:1;fill-rule:nonzero;stroke:none"
                   id="path4992"
                   inkscape:connector-curvature="0" /></g></g></g></g><g
           id="g5000"
           transform="translate(139.1357,253.8579)"><path
             d="M 0,0 C -1.203,-0.585 -2.632,-0.107 -3.19,1.069 -3.75,2.245 -3.228,3.672 -2.025,4.258 -0.822,4.844 0.606,4.365 1.166,3.189 1.725,2.014 1.203,0.585 0,0 M -2.407,5.062 C -4.032,4.27 -4.738,2.34 -3.982,0.751 c 0.755,-1.589 5.777,-4.525 5.777,-4.525 0,0 0.866,5.802 0.11,7.391 -0.756,1.589 -2.686,2.236 -4.312,1.445"
             style="fill:#d82c28;fill-opacity:1;fill-rule:nonzero;stroke:none"
             id="path5002"
             inkscape:connector-curvature="0" /></g><g
           id="g5004"
           transform="translate(190.5977,259.6646)"><path
             d="m 0,0 c -1.203,-0.586 -2.631,-0.107 -3.19,1.069 -0.56,1.176 -0.038,2.603 1.166,3.189 1.202,0.585 2.63,0.107 3.19,-1.069 C 1.725,2.013 1.203,0.585 0,0 M -2.407,5.061 C -4.032,4.27 -4.738,2.34 -3.982,0.75 c 0.755,-1.588 5.777,-4.524 5.777,-4.524 0,0 0.866,5.801 0.11,7.391 -0.756,1.589 -2.686,2.236 -4.312,1.444"
             style="fill:#d82c28;fill-opacity:1;fill-rule:nonzero;stroke:none"
             id="path5006"
             inkscape:connector-curvature="0" /></g><g
           id="g5008"
           transform="translate(164.9873,222.6309)"><path
             d="m 0,0 c -1.203,-0.586 -2.632,-0.107 -3.19,1.068 -0.56,1.176 -0.038,2.604 1.165,3.19 1.203,0.586 2.631,0.107 3.19,-1.069 C 1.725,2.014 1.203,0.585 0,0 M -2.407,5.061 C -4.032,4.27 -4.738,2.34 -3.982,0.751 c 0.755,-1.59 5.776,-4.525 5.776,-4.525 0,0 0.867,5.801 0.111,7.39 -0.756,1.59 -2.686,2.237 -4.312,1.445"
             style="fill:#d82c28;fill-opacity:1;fill-rule:nonzero;stroke:none"
             id="path5010"
             inkscape:connector-curvature="0" /></g><g
           id="g5012"
           transform="translate(226.8359,238.2139)"><path
             d="M 0,0 -8.839,-24.635 47.461,-44.834 56.3,-20.2 Z"
             style="fill:#fff8e1;fill-opacity:1;fill-rule:nonzero;stroke:none"
             id="path5014"
             inkscape:connector-curvature="0" /></g><g
           id="g5016"
           transform="translate(271.748,198.2568)"><path
             d="m 0,0 -34.884,12.516 0.412,1.147 L 0.412,1.147 Z"
             style="fill:#c5ced7;fill-opacity:1;fill-rule:nonzero;stroke:none"
             id="path5018"
             inkscape:connector-curvature="0" /></g><g
           id="g5020"
           transform="translate(272.7168,200.957)"><path
             d="m 0,0 -34.884,12.517 0.412,1.147 L 0.412,1.147 Z"
             style="fill:#c5ced7;fill-opacity:1;fill-rule:nonzero;stroke:none"
             id="path5022"
             inkscape:connector-curvature="0" /></g><g
           id="g5024"
           transform="translate(273.6865,203.6572)"><path
             d="m 0,0 -34.885,12.517 0.412,1.147 L 0.411,1.148 Z"
             style="fill:#c5ced7;fill-opacity:1;fill-rule:nonzero;stroke:none"
             id="path5026"
             inkscape:connector-curvature="0" /></g><g
           id="g5028"
           transform="translate(226.8359,238.2139)"><path
             d="m 0,0 -8.839,-24.634 15.433,-5.537 8.839,24.634 z"
             style="fill:#689f38;fill-opacity:1;fill-rule:nonzero;stroke:none"
             id="path5030"
             inkscape:connector-curvature="0" /></g></g></g><text
       transform="matrix(0.9412469,-0.33771923,-0.33771923,-0.9412469,0,0)"
       style="font-variant:normal;font-weight:bold;font-stretch:normal;font-size:2.29450965px;font-family:Montserrat;-inkscape-font-specification:Montserrat-Bold;writing-mode:lr-tb;fill:#fff8e1;fill-opacity:1;fill-rule:nonzero;stroke:none"
       id="text5034"
       x="250.51537"
       y="-321.77576"><tspan
         x="250.51537 252.03891 252.88559 254.58812 256.42142 258.08496 259.60849"
         y="-321.77576"
         sodipodi:role="line"
         id="tspan5032">TICKETS</tspan></text>
<text
       transform="matrix(0.94124247,-0.33773156,-0.33773156,-0.94124247,0,0)"
       style="font-variant:normal;font-weight:bold;font-stretch:normal;font-size:1.89292347px;font-family:Montserrat;-inkscape-font-specification:Montserrat-Bold;writing-mode:lr-tb;fill:#fff8e1;fill-opacity:1;fill-rule:nonzero;stroke:none"
       id="text5038"
       x="250.51003"
       y="-324.06326"><tspan
         x="250.51003 252.0679 252.76639 254.23151 255.61334 256.77939 258.33725 259.91974"
         y="-324.06326"
         sodipodi:role="line"
         id="tspan5036">AIRPLANE</tspan></text>
<g
       id="g5040"
       transform="translate(122.88136,3.1779663)"><g
         id="g5042"
         clip-path="url(#clipPath5046)"><g
           id="g5048"
           transform="translate(234.5449,221.8975)"><path
             d="M 0,0 0.673,0.696 0.129,1.806 0.437,2.124 C 0.529,2.219 0.526,2.369 0.432,2.461 0.337,2.553 0.187,2.55 0.096,2.455 L -0.094,2.26 -0.6,3.293 -0.312,3.59 c 0.091,0.095 0.088,0.245 -0.005,0.337 -0.095,0.091 -0.245,0.089 -0.337,-0.006 L -0.822,3.748 -1.474,5.079 c 0.23,0.226 0.449,0.447 0.654,0.658 2.073,2.144 1.519,2.81 1.519,2.81 0,0 -0.683,0.532 -2.758,-1.611 C -2.263,6.724 -2.477,6.497 -2.695,6.261 l -1.352,0.607 0.167,0.173 c 0.092,0.095 0.089,0.245 -0.006,0.337 -0.093,0.092 -0.245,0.089 -0.336,-0.006 l -0.287,-0.296 -1.05,0.471 0.19,0.195 C -5.278,7.837 -5.28,7.987 -5.375,8.079 -5.47,8.17 -5.62,8.168 -5.712,8.073 L -6.02,7.755 -7.147,8.261 -7.82,7.565 -4.146,4.627 C -5.054,3.567 -5.895,2.506 -6.387,1.764 l -1.42,0.317 -0.549,-0.568 1.545,-0.729 0.779,-1.52 0.55,0.568 -0.364,1.408 c 0.725,0.518 1.758,1.393 2.787,2.334 z"
             style="fill:#f5c242;fill-opacity:1;fill-rule:nonzero;stroke:none"
             id="path5050"
             inkscape:connector-curvature="0" /></g><g
           id="g5052"
           transform="translate(249.7207,215.416)"><path
             d="m 0,0 -9.914,3.557 3.557,9.914 9.914,-3.557 z"
             style="fill:#c5ced7;fill-opacity:1;fill-rule:nonzero;stroke:none"
             id="path5054"
             inkscape:connector-curvature="0" /></g><g
           id="g5056"
           transform="translate(267.7949,220.1211)"><path
             d="m 0,0 -0.214,-0.598 10.452,-3.75 0.214,0.597 z"
             style="fill:#404851;fill-opacity:1;fill-rule:nonzero;stroke:none"
             id="path5058"
             inkscape:connector-curvature="0" /></g><g
           id="g5060"
           transform="translate(267.3672,218.9268)"><path
             d="m 0,0 -0.214,-0.597 10.452,-3.75 0.214,0.597 z"
             style="fill:#404851;fill-opacity:1;fill-rule:nonzero;stroke:none"
             id="path5062"
             inkscape:connector-curvature="0" /></g><g
           id="g5064"
           transform="translate(266.9385,217.7334)"><path
             d="m 0,0 -0.214,-0.597 10.452,-3.75 0.214,0.597 z"
             style="fill:#404851;fill-opacity:1;fill-rule:nonzero;stroke:none"
             id="path5066"
             inkscape:connector-curvature="0" /></g><g
           id="g5068"
           transform="translate(266.5107,216.54)"><path
             d="m 0,0 -0.215,-0.597 10.452,-3.751 0.215,0.598 z"
             style="fill:#404851;fill-opacity:1;fill-rule:nonzero;stroke:none"
             id="path5070"
             inkscape:connector-curvature="0" /></g><g
           id="g5072"
           transform="translate(266.082,215.3457)"><path
             d="m 0,0 -0.214,-0.597 10.452,-3.75 0.214,0.597 z"
             style="fill:#404851;fill-opacity:1;fill-rule:nonzero;stroke:none"
             id="path5074"
             inkscape:connector-curvature="0" /></g><g
           id="g5076"
           transform="translate(290.0566,209.7695)"><path
             d="m 0,0 -29.486,-3.083 -4.816,46.064 29.487,3.082 c 1.539,0.162 2.918,-0.956 3.079,-2.495 L 2.496,3.079 C 2.657,1.539 1.54,0.161 0,0"
             style="fill:#083060;fill-opacity:1;fill-rule:nonzero;stroke:none"
             id="path5078"
             inkscape:connector-curvature="0" /></g><g
           id="g5080"
           transform="translate(289.1768,209.6777)"><path
             d="m 0,0 -29.486,-3.083 -4.816,46.064 29.487,3.082 c 1.539,0.161 2.917,-0.956 3.078,-2.496 L 2.496,3.078 C 2.657,1.539 1.539,0.161 0,0"
             style="fill:#003c94;fill-opacity:1;fill-rule:nonzero;stroke:none"
             id="path5082"
             inkscape:connector-curvature="0" /></g><g
           id="g5084"
           transform="translate(258.0107,250.9907)"><path
             d="m 0,0 26.021,2.72 c 0.942,0.098 1.785,-0.585 1.883,-1.527 l 4.055,-38.783 z"
             style="fill:#054da3;fill-opacity:1;fill-rule:nonzero;stroke:none"
             id="path5086"
             inkscape:connector-curvature="0" /></g><g
           id="g5088"
           transform="translate(280.0127,230.5908)"><path
             d="m 0,0 c -0.691,0.414 -1.452,0.752 -2.259,0.996 0.274,1.409 0.357,3.022 0.205,4.743 L 1.941,6.157 C 2.084,3.859 1.338,1.691 0,0 m -3.843,-2.84 c 0.61,0.756 1.087,1.803 1.407,3.048 0.674,-0.21 1.315,-0.487 1.902,-0.826 -0.912,-0.967 -2.035,-1.733 -3.309,-2.222 m -8.401,0.997 c 0.504,0.454 1.069,0.858 1.685,1.197 0.571,-1.151 1.258,-2.072 2.007,-2.686 -1.343,0.216 -2.6,0.732 -3.692,1.489 m -3.823,6.117 3.991,0.417 c 0.208,-1.715 0.626,-3.275 1.181,-4.598 -0.739,-0.409 -1.41,-0.893 -2.001,-1.441 -1.662,1.377 -2.835,3.345 -3.171,5.622 m 1.856,6.961 c 0.691,-0.414 1.447,-0.748 2.256,-0.996 C -12.226,8.83 -12.312,7.217 -12.16,5.494 V 5.493 l -3.991,-0.417 v 0.001 c -0.143,2.294 0.598,4.466 1.94,6.158 m 3.836,2.836 c -0.605,-0.757 -1.084,-1.799 -1.404,-3.04 -0.674,0.205 -1.311,0.484 -1.897,0.82 0.908,0.965 2.031,1.731 3.301,2.22 m 8.409,-0.997 c -0.504,-0.449 -1.073,-0.853 -1.69,-1.197 -0.57,1.151 -1.254,2.076 -2.007,2.69 1.348,-0.215 2.605,-0.736 3.697,-1.493 M -6.748,6.059 -7.147,9.883 c 0,0 0.001,0.001 0.001,0.001 1.102,0.151 2.139,0.458 3.087,0.889 0.524,-1.25 0.921,-2.727 1.123,-4.314 V 6.458 Z m 0.485,-4.623 h -0.002 l -0.399,3.822 3.812,0.398 C -2.722,4.062 -2.801,2.535 -3.055,1.204 -4.07,1.431 -5.153,1.516 -6.263,1.436 m 0.496,-4.749 h -10e-4 l -0.413,3.948 h 0.001 c 1.023,0.07 2.015,-0.009 2.949,-0.215 -0.501,-1.956 -1.403,-3.367 -2.536,-3.733 m -1.214,3.864 0.412,-3.947 c -1.184,0.124 -2.361,1.313 -3.258,3.123 0.874,0.394 1.828,0.68 2.846,0.824 m -0.484,4.623 0.4,-3.822 C -8.167,1.2 -9.208,0.893 -10.159,0.457 c -0.524,1.25 -0.917,2.728 -1.119,4.318 z m -0.98,9.374 0.413,-3.947 c -1.026,-0.071 -2.018,0.012 -2.955,0.217 0.508,1.957 1.41,3.364 2.542,3.73 m 0.801,0.084 h 0.001 c 1.184,-0.123 2.358,-1.313 3.252,-3.128 -0.87,-0.395 -1.825,-0.677 -2.838,-0.819 H -7.231 Z M -11.16,10.031 C -10.141,9.806 -9.059,9.72 -7.949,9.8 l 0.4,-3.824 -3.813,-0.4 v 0.002 c -0.131,1.595 -0.052,3.122 0.202,4.453 M 1.857,6.96 V 6.959 L -2.138,6.541 v 10e-4 c -0.208,1.717 -0.622,3.277 -1.181,4.601 0.739,0.405 1.413,0.892 2.004,1.44 C 0.344,11.205 1.522,9.234 1.857,6.96 m -2.6,6.201 c -0.209,0.173 -0.421,0.337 -0.64,0.493 -1.851,1.322 -4.164,2.011 -6.588,1.794 -0.052,-0.001 -0.108,-0.007 -0.161,-0.012 -0.052,-0.005 -0.108,-0.011 -0.16,-0.021 -2.416,-0.289 -4.54,-1.443 -6.078,-3.119 -0.182,-0.197 -0.356,-0.401 -0.52,-0.613 -1.513,-1.945 -2.309,-4.454 -2.033,-7.091 0.276,-2.638 1.572,-4.929 3.456,-6.518 0.204,-0.173 0.416,-0.338 0.635,-0.493 1.852,-1.321 4.168,-2.011 6.593,-1.794 0.052,0.001 0.108,0.008 0.16,0.013 0.053,0.006 0.108,0.012 0.16,0.02 2.417,0.289 4.536,1.443 6.075,3.119 0.182,0.198 0.355,0.402 0.523,0.614 1.514,1.945 2.309,4.455 2.034,7.092 -0.276,2.636 -1.572,4.927 -3.456,6.516"
             style="fill:#f5c242;fill-opacity:1;fill-rule:nonzero;stroke:none"
             id="path5090"
             inkscape:connector-curvature="0" /></g></g></g><text
       transform="matrix(0.9945805,0.10396939,0.10396939,-0.9945805,0,0)"
       style="font-variant:normal;font-weight:bold;font-stretch:normal;font-size:4.16949654px;font-family:Montserrat;-inkscape-font-specification:Montserrat-Bold;writing-mode:lr-tb;fill:#f5c242;fill-opacity:1;fill-rule:nonzero;stroke:none"
       id="text5094"
       x="406.24286"
       y="-178.76949"><tspan
         x="406.24286 409.06561 412.48459 415.38657 418.28851 421.33224 424.89301 428.12021"
         y="-178.76949"
         sodipodi:role="line"
         id="tspan5092">PASSPORT</tspan></text>
<g
       id="g5096"
       transform="translate(122.88136,3.1779663)"><g
         id="g5098"
         clip-path="url(#clipPath5102)"><g
           id="g5104"
           transform="translate(227.7148,210.6846)"><path
             d="m 0,0 0.1,-1.781 h -47.808 l -0.104,3.733 z"
             style="fill:#12171e;fill-opacity:1;fill-rule:nonzero;stroke:none"
             id="path5106"
             inkscape:connector-curvature="0" /></g><g
           id="g5108"
           transform="translate(116.5518,203.1934)"><path
             d="m 0,0 v -117.683 c 0,-3.154 2.557,-5.711 5.711,-5.711 h 162.747 c 3.154,0 5.711,2.557 5.711,5.711 V 0 c 0,3.153 -2.557,5.71 -5.711,5.71 H 5.711 C 2.557,5.71 0,3.153 0,0"
             style="fill:#f5c242;fill-opacity:1;fill-rule:nonzero;stroke:none"
             id="path5110"
             inkscape:connector-curvature="0" /></g><g
           id="g5112"><g
             id="g5114" /><g
             id="g5126"><g
               clip-path="url(#clipPath5118)"
               id="g5124"
               style="opacity:0.5"><g
                 transform="translate(278.0947,159.1406)"
                 id="g5122"><path
                   d="m 0,0 c -15.873,-16.807 -34.08,-30.812 -56.956,-36.415 -3.735,-0.934 -7.47,-1.867 -11.672,-1.867 -21.942,0 -44.818,-0.467 -64.893,7.47 -10.16,3.932 -21.003,11.32 -28.022,21.347 V -73.63 c 0,-3.154 2.558,-5.711 5.711,-5.711 H 6.915 c 3.154,0 5.711,2.557 5.711,5.711 V 14.269 C 8.729,9.195 4.07,4.499 0,0"
                   style="fill:#f5c242;fill-opacity:1;fill-rule:nonzero;stroke:none"
                   id="path5120"
                   inkscape:connector-curvature="0" /></g></g></g></g><g
           id="g5128"
           transform="translate(271.5947,208.9033)"><path
             d="M 0,0 C 0,-10.566 8.56,-19.126 19.126,-19.126 V -5.71 c 0,3.153 -2.557,5.71 -5.711,5.71 z"
             style="fill:#915620;fill-opacity:1;fill-rule:nonzero;stroke:none"
             id="path5130"
             inkscape:connector-curvature="0" /></g><g
           id="g5132"
           transform="translate(116.5518,203.1934)"><path
             d="m 0,0 v -13.416 c 10.552,0 19.126,8.56 19.126,19.126 H 5.711 C 2.557,5.71 0,3.153 0,0"
             style="fill:#915620;fill-opacity:1;fill-rule:nonzero;stroke:none"
             id="path5134"
             inkscape:connector-curvature="0" /></g><g
           id="g5136"
           transform="translate(271.5947,79.7998)"><path
             d="m 0,0 h 13.415 c 3.154,0 5.711,2.557 5.711,5.711 V 19.126 C 8.56,19.126 0,10.552 0,0"
             style="fill:#915620;fill-opacity:1;fill-rule:nonzero;stroke:none"
             id="path5138"
             inkscape:connector-curvature="0" /></g><g
           id="g5140"
           transform="translate(116.5518,98.9258)"><path
             d="m 0,0 v -13.415 c 0,-3.154 2.557,-5.711 5.711,-5.711 H 19.126 C 19.126,-8.574 10.552,0 0,0"
             style="fill:#915620;fill-opacity:1;fill-rule:nonzero;stroke:none"
             id="path5142"
             inkscape:connector-curvature="0" /></g><g
           id="g5144"><g
             id="g5146" /><g
             id="g5158"><g
               clip-path="url(#clipPath5150)"
               id="g5156"
               style="opacity:0.5"><g
                 transform="translate(121.1279,201.6865)"
                 id="g5154"><path
                   d="m 0,0 c 0,-1.296 1.051,-2.346 2.346,-2.346 1.296,0 2.345,1.05 2.345,2.346 0,1.295 -1.049,2.346 -2.345,2.346 C 1.051,2.346 0,1.295 0,0"
                   style="fill:#683a15;fill-opacity:1;fill-rule:nonzero;stroke:none"
                   id="path5152"
                   inkscape:connector-curvature="0" /></g></g></g></g><g
           id="g5160"><g
             id="g5162" /><g
             id="g5174"><g
               clip-path="url(#clipPath5166)"
               id="g5172"
               style="opacity:0.5"><g
                 transform="translate(121.1279,87.0176)"
                 id="g5170"><path
                   d="m 0,0 c 0,-1.296 1.051,-2.346 2.346,-2.346 1.296,0 2.345,1.05 2.345,2.346 0,1.295 -1.049,2.346 -2.345,2.346 C 1.051,2.346 0,1.295 0,0"
                   style="fill:#683a15;fill-opacity:1;fill-rule:nonzero;stroke:none"
                   id="path5168"
                   inkscape:connector-curvature="0" /></g></g></g></g><g
           id="g5176"><g
             id="g5178" /><g
             id="g5194"><g
               clip-path="url(#clipPath5182)"
               id="g5192"
               style="opacity:0.5"><g
                 transform="translate(281.4531,201.6865)"
                 id="g5186"><path
                   d="m 0,0 c 0,-1.296 1.051,-2.346 2.346,-2.346 1.296,0 2.345,1.05 2.345,2.346 0,1.295 -1.049,2.346 -2.345,2.346 C 1.051,2.346 0,1.295 0,0"
                   style="fill:#683a15;fill-opacity:1;fill-rule:nonzero;stroke:none"
                   id="path5184"
                   inkscape:connector-curvature="0" /></g><g
                 transform="translate(281.4531,87.0176)"
                 id="g5190"><path
                   d="m 0,0 c 0,-1.296 1.051,-2.346 2.346,-2.346 1.296,0 2.345,1.05 2.345,2.346 0,1.295 -1.049,2.346 -2.345,2.346 C 1.051,2.346 0,1.295 0,0"
                   style="fill:#683a15;fill-opacity:1;fill-rule:nonzero;stroke:none"
                   id="path5188"
                   inkscape:connector-curvature="0" /></g></g></g></g><g
           id="g5196"
           transform="translate(179.458,208.9033)"><path
             d="m 0,0 h 8.661 c 0,3.975 3.222,7.195 7.195,7.195 H 32.5 c 3.974,0 7.195,-3.22 7.195,-7.195 h 8.661 c 0,8.758 -7.099,15.856 -15.856,15.856 H 15.856 C 7.1,15.856 0,8.758 0,0"
             style="fill:#683a15;fill-opacity:1;fill-rule:nonzero;stroke:none"
             id="path5198"
             inkscape:connector-curvature="0" /></g><path
           d="M 152.141,76.206 H 135.678 V 79.8 h 16.463 z"
           style="fill:#282f39;fill-opacity:1;fill-rule:nonzero;stroke:none"
           id="path5200"
           inkscape:connector-curvature="0" /><path
           d="M 271.595,76.206 H 255.133 V 79.8 h 16.462 z"
           style="fill:#282f39;fill-opacity:1;fill-rule:nonzero;stroke:none"
           id="path5202"
           inkscape:connector-curvature="0" /><g
           id="g5204"
           transform="translate(175.4326,100.6885)"><path
             d="m 0,0 11.221,-2.412 c 0.666,-0.143 1.322,0.281 1.466,0.947 l 2.411,11.221 c 0.143,0.666 -0.282,1.322 -0.948,1.466 L 2.93,13.633 C 2.264,13.776 1.607,13.353 1.465,12.687 L -0.947,1.465 C -1.09,0.799 -0.666,0.143 0,0"
             style="fill:#d82c28;fill-opacity:1;fill-rule:nonzero;stroke:none"
             id="path5206"
             inkscape:connector-curvature="0" /></g><g
           id="g5208"
           transform="translate(178.4687,108.6045)"><path
             d="m 0,0 2.96,-0.636 0.637,2.96 2.748,-0.59 -0.636,-2.961 2.96,-0.635 -0.591,-2.749 -2.96,0.636 -0.637,-2.961 -2.748,0.591 0.636,2.96 -2.96,0.637 z"
             style="fill:#fff8e1;fill-opacity:1;fill-rule:nonzero;stroke:none"
             id="path5210"
             inkscape:connector-curvature="0" /></g><g
           id="g5212"
           transform="translate(214.8477,116.2803)"><path
             d="M 0,0 C -2.203,-8.092 2.57,-16.437 10.662,-18.641 18.754,-20.844 27.1,-16.07 29.303,-7.979 31.506,0.112 26.732,8.458 18.641,10.662 10.55,12.865 2.204,8.092 0,0"
             style="fill:#fff8e1;fill-opacity:1;fill-rule:nonzero;stroke:none"
             id="path5214"
             inkscape:connector-curvature="0" /></g><g
           id="g5216"
           transform="translate(218.5322,115.625)"><path
             d="m 0,0 1.523,0.144 0.187,4.4 2.953,-1.732 1.297,1.742 2.273,-4.207 0.836,7.138 1.767,-1.764 3.587,3.518 1.284,-4.857 2.421,0.614 -2.931,-6.564 4.105,2.454 0.224,-2.159 3.423,-0.021 -2.089,-3.878 1.236,-0.902 -6.858,-3.336 0.013,-2.203 -5.039,2.027 -0.729,0.199 -1.283,-6.708 -1.379,0.379 2.196,6.457 -0.598,0.165 -5.366,0.834 1.137,1.887 z"
             style="fill:#d82c28;fill-opacity:1;fill-rule:nonzero;stroke:none"
             id="path5218"
             inkscape:connector-curvature="0" /></g><g
           id="g5220"
           transform="translate(264.4844,129.1074)"><path
             d="M 0,0 C 4.858,3.914 4.92,8.203 4.92,8.203 L 5.663,8.32 6.407,1.192 C 6.947,-6.897 3.205,-10.142 1.745,-11.091 Z"
             style="fill:#282f39;fill-opacity:1;fill-rule:nonzero;stroke:none"
             id="path5222"
             inkscape:connector-curvature="0" /></g><g
           id="g5224"
           transform="translate(274.7148,110.7861)"><path
             d="m 0,0 -7.015,-1.104 -1.281,8.146 c 1.563,1.017 5.303,4.327 4.754,12.534 l -0.732,7.023 1.76,0.061 0.121,0.005 0.7,0.025 h 0.018 l 4.453,0.157 c 0,0 0.966,0.907 1.685,0.818 0,0 0.405,-0.024 0.451,-0.319 l 1.18,0.185 c 0,0 0.442,0.07 0.058,-0.369 -0.384,-0.438 -1.273,-1.03 -3.44,-1.407 0,0 -0.305,-0.723 -0.996,-1.587 C 1.713,24.165 1.713,24.165 1.711,24.162 1.65,24.086 1.585,24.006 1.518,23.93 1.508,23.915 1.495,23.901 1.482,23.887 c -0.953,-1.092 -2.509,-2.314 -4.83,-2.6 z"
             style="fill:#282f39;fill-opacity:1;fill-rule:nonzero;stroke:none"
             id="path5226"
             inkscape:connector-curvature="0" /></g><g
           id="g5228"
           transform="translate(253.5068,133.6445)"><path
             d="m 0,0 c 0.494,-0.297 1.506,-0.585 3.642,-0.291 0.02,0.001 0.045,0.005 0.068,0.009 0,0 2.774,-3.23 7.135,-2.393 l 0.214,-1.356 c 0.511,0.434 0.968,0.872 1.371,1.306 2.926,3.144 3.141,6.136 3.152,6.415 L 15.312,3.682 14.856,6.574 14.798,6.906 C 14.682,7.646 14.133,8.215 13.452,8.398 13.212,8.464 12.955,8.48 12.692,8.439 11.688,8.281 11.002,7.336 11.16,6.334 L 11.206,6 11.661,3.107 3.311,0.736 c 0,0 -1.198,0.568 -1.854,0.262 0,0 -0.382,-0.148 -0.336,-0.443 L -0.058,0.369 C -0.058,0.369 -0.5,0.3 0,0"
             style="fill:#282f39;fill-opacity:1;fill-rule:nonzero;stroke:none"
             id="path5230"
             inkscape:connector-curvature="0" /></g><g
           id="g5232"
           transform="translate(161.7236,183.3535)"><path
             d="m 0,0 c -1.338,-4.91 1.56,-9.975 6.47,-11.313 4.911,-1.336 9.975,1.561 11.312,6.471 C 19.12,0.069 16.223,5.134 11.313,6.471 6.401,7.808 1.337,4.911 0,0"
             style="fill:#fff8e1;fill-opacity:1;fill-rule:nonzero;stroke:none"
             id="path5234"
             inkscape:connector-curvature="0" /></g><g
           id="g5236"
           transform="translate(166.2607,182.1182)"><path
             d="m 0,0 c -0.655,-2.404 0.764,-4.885 3.168,-5.54 2.405,-0.654 4.886,0.765 5.54,3.169 C 9.363,0.034 7.944,2.514 5.54,3.169 3.135,3.824 0.654,2.405 0,0"
             style="fill:#d82c28;fill-opacity:1;fill-rule:nonzero;stroke:none"
             id="path5238"
             inkscape:connector-curvature="0" /></g><g
           id="g5240"
           transform="translate(267.2686,169.7422)"><path
             d="M 0,0 -15.096,7.285 -7.811,22.381 7.285,15.096 Z"
             style="fill:#fff8e1;fill-opacity:1;fill-rule:nonzero;stroke:none"
             id="path5242"
             inkscape:connector-curvature="0" /></g><g
           id="g5244"
           transform="translate(257.3008,174.5527)"><path
             d="M 0,0 -5.128,2.475 2.157,17.57 7.284,15.096 Z"
             style="fill:#d82c28;fill-opacity:1;fill-rule:nonzero;stroke:none"
             id="path5246"
             inkscape:connector-curvature="0" /></g><g
           id="g5248"
           transform="translate(267.2598,169.7227)"><path
             d="M 0,0 -5.074,2.448 2.211,17.545 7.284,15.096 Z"
             style="fill:#689f38;fill-opacity:1;fill-rule:nonzero;stroke:none"
             id="path5250"
             inkscape:connector-curvature="0" /></g><g
           id="g5252"
           transform="translate(145.918,122.8271)"><path
             d="m 0,0 c 1.335,-0.982 2.48,-1.887 3.327,-2.623 l 1.961,0.968 2.601,-1.641 -2.864,-2.312 -0.854,-3.58 -2.6,1.64 0.029,2.187 c -1.03,0.447 -2.338,1.091 -3.8,1.873 l -3.38,-6.676 -2.713,1.711 0.418,1.903 -0.037,0.024 c -0.109,0.069 -0.207,0.153 -0.291,0.25 -0.38,0.439 -0.428,1.064 -0.117,1.555 0.186,0.296 0.476,0.501 0.818,0.578 0.054,0.013 0.107,0.022 0.161,0.027 l 0.027,0.117 c -0.108,0.068 -0.205,0.152 -0.288,0.248 -0.38,0.439 -0.427,1.064 -0.117,1.556 0.186,0.296 0.477,0.501 0.818,0.578 0.038,0.009 0.076,0.015 0.114,0.02 l 0.142,0.648 c -0.237,0.145 -0.467,0.288 -0.689,0.428 -1.308,0.825 -2.293,1.617 -2.932,2.353 -1.214,1.403 -0.91,2.332 -0.787,2.583 l 0.045,0.092 0.063,0.079 c 0.412,0.518 1.827,1.437 6.056,-1.231 0.222,-0.139 0.451,-0.286 0.684,-0.437 l 0.521,0.406 c -0.117,0.361 -0.073,0.762 0.141,1.101 0.187,0.295 0.477,0.501 0.818,0.578 0.339,0.077 0.689,0.018 0.984,-0.167 l 0.094,0.072 c -0.137,0.372 -0.098,0.794 0.124,1.147 0.186,0.295 0.477,0.501 0.818,0.578 0.341,0.077 0.691,0.016 0.987,-0.17 L 0.32,6.439 1.857,7.637 4.57,5.926 Z"
             style="fill:#fff8e1;fill-opacity:1;fill-rule:nonzero;stroke:none"
             id="path5254"
             inkscape:connector-curvature="0" /></g><g
           id="g5256"
           transform="translate(149.1221,128.5098)"><path
             d="m 0,0 -1.291,0.814 -1.537,-1.197 -0.592,0.374 c -0.175,0.111 -0.407,0.058 -0.518,-0.117 -0.11,-0.176 -0.057,-0.407 0.118,-0.519 l 0.362,-0.228 -1.432,-1.113 -0.549,0.347 c -0.176,0.111 -0.408,0.058 -0.519,-0.118 -0.11,-0.175 -0.058,-0.406 0.118,-0.517 l 0.32,-0.203 -1.843,-1.435 c -0.423,0.28 -0.835,0.548 -1.228,0.795 -3.977,2.51 -4.827,1.439 -4.827,1.439 0,0 -0.6,-1.226 3.378,-3.736 0.393,-0.247 0.811,-0.504 1.246,-0.766 l -0.501,-2.282 -0.321,0.203 c -0.175,0.111 -0.407,0.058 -0.518,-0.117 -0.11,-0.176 -0.058,-0.407 0.117,-0.519 l 0.551,-0.346 -0.388,-1.772 -0.363,0.229 c -0.176,0.11 -0.407,0.057 -0.517,-0.117 -0.112,-0.176 -0.059,-0.408 0.117,-0.518 l 0.591,-0.373 -0.418,-1.903 1.291,-0.815 3.349,6.617 c 1.929,-1.056 3.838,-2.012 5.142,-2.533 l -0.03,-2.295 1.053,-0.665 0.625,2.621 2.097,1.694 -1.055,0.665 -2.056,-1.016 c -1.033,0.952 -2.717,2.264 -4.501,3.55 z"
             style="fill:#054da1;fill-opacity:1;fill-rule:nonzero;stroke:none"
             id="path5258"
             inkscape:connector-curvature="0" /></g><path
           d="m 152.141,208.903 h 13.822 V 79.799 h -13.822 z"
           style="fill:#683a15;fill-opacity:1;fill-rule:nonzero;stroke:none"
           id="path5260"
           inkscape:connector-curvature="0" /><g
           id="g5262"
           transform="translate(168.4668,208.9033)"><path
             d="m 0,0 h -18.83 v -7.062 c 0,-5.2 4.215,-9.415 9.415,-9.415 5.199,0 9.415,4.215 9.415,9.415 z"
             style="fill:#915620;fill-opacity:1;fill-rule:nonzero;stroke:none"
             id="path5264"
             inkscape:connector-curvature="0" /></g><g
           id="g5266"
           transform="translate(156.7061,200.665)"><path
             d="m 0,0 c 0,-1.296 1.05,-2.346 2.346,-2.346 1.295,0 2.345,1.05 2.345,2.346 0,1.296 -1.05,2.346 -2.345,2.346 C 1.05,2.346 0,1.296 0,0"
             style="fill:#d3d3d3;fill-opacity:1;fill-rule:nonzero;stroke:none"
             id="path5268"
             inkscape:connector-curvature="0" /></g><g
           id="g5270"
           transform="translate(149.6367,79.7998)"><path
             d="m 0,0 h 18.83 v 7.062 c 0,5.2 -4.216,9.416 -9.415,9.416 C 4.215,16.478 0,12.262 0,7.062 Z"
             style="fill:#915620;fill-opacity:1;fill-rule:nonzero;stroke:none"
             id="path5272"
             inkscape:connector-curvature="0" /></g><g
           id="g5274"
           transform="translate(161.3975,88.0391)"><path
             d="m 0,0 c 0,1.295 -1.051,2.345 -2.346,2.345 -1.296,0 -2.345,-1.05 -2.345,-2.345 0,-1.296 1.049,-2.346 2.345,-2.346 C -1.051,-2.346 0,-1.296 0,0"
             style="fill:#d3d3d3;fill-opacity:1;fill-rule:nonzero;stroke:none"
             id="path5276"
             inkscape:connector-curvature="0" /></g><g
           id="g5278"
           transform="translate(161.3975,117.1309)"><path
             d="m 0,0 c 0,1.296 -1.051,2.346 -2.346,2.346 -1.296,0 -2.345,-1.05 -2.345,-2.346 0,-1.295 1.049,-2.346 2.345,-2.346 C -1.051,-2.346 0,-1.295 0,0"
             style="fill:#d3d3d3;fill-opacity:1;fill-rule:nonzero;stroke:none"
             id="path5280"
             inkscape:connector-curvature="0" /></g><g
           id="g5282"
           transform="translate(161.3975,144.3516)"><path
             d="m 0,0 c 0,1.296 -1.051,2.346 -2.346,2.346 -1.296,0 -2.345,-1.05 -2.345,-2.346 0,-1.295 1.049,-2.346 2.345,-2.346 C -1.051,-2.346 0,-1.295 0,0"
             style="fill:#d3d3d3;fill-opacity:1;fill-rule:nonzero;stroke:none"
             id="path5284"
             inkscape:connector-curvature="0" /></g><g
           id="g5286"
           transform="translate(161.3975,171.5732)"><path
             d="m 0,0 c 0,1.295 -1.051,2.346 -2.346,2.346 -1.296,0 -2.345,-1.051 -2.345,-2.346 0,-1.296 1.049,-2.346 2.345,-2.346 C -1.051,-2.346 0,-1.296 0,0"
             style="fill:#d3d3d3;fill-opacity:1;fill-rule:nonzero;stroke:none"
             id="path5288"
             inkscape:connector-curvature="0" /></g><path
           d="m 241.31,208.903 h 13.823 V 79.799 H 241.31 Z"
           style="fill:#683a15;fill-opacity:1;fill-rule:nonzero;stroke:none"
           id="path5290"
           inkscape:connector-curvature="0" /><g
           id="g5292"
           transform="translate(257.6357,208.9033)"><path
             d="m 0,0 h -18.829 v -7.062 c 0,-5.2 4.215,-9.415 9.414,-9.415 5.2,0 9.415,4.215 9.415,9.415 z"
             style="fill:#915620;fill-opacity:1;fill-rule:nonzero;stroke:none"
             id="path5294"
             inkscape:connector-curvature="0" /></g><g
           id="g5296"
           transform="translate(245.875,200.665)"><path
             d="m 0,0 c 0,-1.296 1.051,-2.346 2.346,-2.346 1.296,0 2.345,1.05 2.345,2.346 0,1.296 -1.049,2.346 -2.345,2.346 C 1.051,2.346 0,1.296 0,0"
             style="fill:#d3d3d3;fill-opacity:1;fill-rule:nonzero;stroke:none"
             id="path5298"
             inkscape:connector-curvature="0" /></g><g
           id="g5300"
           transform="translate(238.8066,79.7998)"><path
             d="m 0,0 h 18.829 v 7.062 c 0,5.2 -4.215,9.416 -9.415,9.416 C 4.215,16.478 0,12.262 0,7.062 Z"
             style="fill:#915620;fill-opacity:1;fill-rule:nonzero;stroke:none"
             id="path5302"
             inkscape:connector-curvature="0" /></g><g
           id="g5304"
           transform="translate(250.5664,88.0391)"><path
             d="m 0,0 c 0,1.295 -1.05,2.345 -2.346,2.345 -1.295,0 -2.345,-1.05 -2.345,-2.345 0,-1.296 1.05,-2.346 2.345,-2.346 C -1.05,-2.346 0,-1.296 0,0"
             style="fill:#d3d3d3;fill-opacity:1;fill-rule:nonzero;stroke:none"
             id="path5306"
             inkscape:connector-curvature="0" /></g><g
           id="g5308"
           transform="translate(250.5664,117.1309)"><path
             d="m 0,0 c 0,1.296 -1.05,2.346 -2.346,2.346 -1.295,0 -2.345,-1.05 -2.345,-2.346 0,-1.295 1.05,-2.346 2.345,-2.346 C -1.05,-2.346 0,-1.295 0,0"
             style="fill:#d3d3d3;fill-opacity:1;fill-rule:nonzero;stroke:none"
             id="path5310"
             inkscape:connector-curvature="0" /></g><g
           id="g5312"
           transform="translate(250.5664,144.3516)"><path
             d="m 0,0 c 0,1.296 -1.05,2.346 -2.346,2.346 -1.295,0 -2.345,-1.05 -2.345,-2.346 0,-1.295 1.05,-2.346 2.345,-2.346 C -1.05,-2.346 0,-1.295 0,0"
             style="fill:#d3d3d3;fill-opacity:1;fill-rule:nonzero;stroke:none"
             id="path5314"
             inkscape:connector-curvature="0" /></g><g
           id="g5316"
           transform="translate(250.5664,171.5732)"><path
             d="m 0,0 c 0,1.295 -1.05,2.346 -2.346,2.346 -1.295,0 -2.345,-1.051 -2.345,-2.346 0,-1.296 1.05,-2.346 2.345,-2.346 C -1.05,-2.346 0,-1.296 0,0"
             style="fill:#d3d3d3;fill-opacity:1;fill-rule:nonzero;stroke:none"
             id="path5318"
             inkscape:connector-curvature="0" /></g><g
           id="g5320"
           transform="translate(134.4805,175.1777)"><path
             d="m 0,0 3.021,-3.521 4.616,0.492 -2.416,-3.962 1.893,-4.238 -4.514,1.075 -3.444,-3.112 -0.375,4.626 -4.022,2.314 4.284,1.786 z"
             style="fill:#282f39;fill-opacity:1;fill-rule:nonzero;stroke:none"
             id="path5322"
             inkscape:connector-curvature="0" /></g><g
           id="g5324"
           transform="translate(227.6475,157.8418)"><path
             d="M 0,0 -3.783,-0.41 -4.954,4.559 0.081,5.104 Z"
             style="fill:#283039;fill-opacity:1;fill-rule:nonzero;stroke:none"
             id="path5326"
             inkscape:connector-curvature="0" /></g><g
           id="g5328"
           transform="translate(228.8027,162.2109)"><path
             d="m 0,0 -7.002,-0.758 c -0.583,-0.063 -1.106,0.359 -1.17,0.942 L -8.93,7.186 c -0.062,0.583 0.359,1.106 0.943,1.169 l 7.001,0.758 C -0.403,9.176 0.121,8.755 0.184,8.171 L 0.941,1.17 C 1.005,0.587 0.583,0.062 0,0"
             style="fill:#d5dce0;fill-opacity:1;fill-rule:nonzero;stroke:none"
             id="path5330"
             inkscape:connector-curvature="0" /></g><g
           id="g5332"
           transform="translate(228.5361,163.3887)"><path
             d="M 0,0 -6.728,-0.728 -7.455,6 -0.728,6.728 Z"
             style="fill:#c3ccd5;fill-opacity:1;fill-rule:nonzero;stroke:none"
             id="path5334"
             inkscape:connector-curvature="0" /></g><g
           id="g5336"
           transform="translate(228.0596,163.7725)"><path
             d="m 0,0 -5.867,-0.635 -0.635,5.867 5.867,0.635 z"
             style="fill:#283039;fill-opacity:1;fill-rule:nonzero;stroke:none"
             id="path5338"
             inkscape:connector-curvature="0" /></g><g
           id="g5340"
           transform="translate(227.0645,164.5732)"><path
             d="m 0,0 -4.071,-0.44 -0.441,4.071 4.072,0.44 z"
             style="fill:#12171e;fill-opacity:1;fill-rule:nonzero;stroke:none"
             id="path5342"
             inkscape:connector-curvature="0" /></g><g
           id="g5344"><g
             id="g5346" /><g
             id="g5358"><g
               clip-path="url(#clipPath5350)"
               id="g5356"
               style="opacity:0.19999701"><g
                 transform="translate(225.708,168.5449)"
                 id="g5354"><path
                   d="m 0,0 -3.155,-0.341 0.44,-4.071 0.602,0.064 C -1.739,-2.772 -1.019,-1.251 0,0"
                   style="fill:#2d3842;fill-opacity:1;fill-rule:nonzero;stroke:none"
                   id="path5352"
                   inkscape:connector-curvature="0" /></g></g></g></g><g
           id="g5360"
           transform="translate(195.6406,155.1396)"><path
             d="m 0,0 c -0.863,-0.094 -1.438,-0.798 -1.569,-1.669 -0.01,-0.061 0.004,-0.125 0.01,-0.188 l 2.048,-18.931 c 0.109,-0.993 1.001,-1.712 1.994,-1.605 l 35.829,3.877 c 0.994,0.108 1.711,1 1.604,1.995 L 37.885,2.256 c -0.11,1.007 -1.014,1.734 -2.02,1.625 z"
             style="fill:#054da3;fill-opacity:1;fill-rule:nonzero;stroke:none"
             id="path5362"
             inkscape:connector-curvature="0" /></g><g
           id="g5364"
           transform="translate(195.1846,143.0957)"><path
             d="m 0,0 0.945,-8.744 c 0.109,-0.993 1.001,-1.712 1.994,-1.605 l 35.829,3.877 c 0.994,0.108 1.711,1 1.604,1.994 L 38.86,9.497 C 37.714,8.491 36.481,7.597 35.143,6.854 24.97,1.213 11.502,-4.528 0,0"
             style="fill:#003c94;fill-opacity:1;fill-rule:nonzero;stroke:none"
             id="path5366"
             inkscape:connector-curvature="0" /></g><g
           id="g5368"
           transform="translate(202.0176,155.8301)"><path
             d="m 0,0 -5.477,-0.593 -0.19,1.76 5.477,0.593 z"
             style="fill:#12171e;fill-opacity:1;fill-rule:nonzero;stroke:none"
             id="path5370"
             inkscape:connector-curvature="0" /></g><g
           id="g5372"
           transform="translate(207.5322,156.4268)"><path
             d="m 0,0 -4.42,-0.479 -0.19,1.76 4.42,0.479 z"
             style="fill:#12171e;fill-opacity:1;fill-rule:nonzero;stroke:none"
             id="path5374"
             inkscape:connector-curvature="0" /></g><g
           id="g5376"
           transform="translate(194.0908,153.2012)"><path
             d="m 0,0 0.169,-1.562 39.427,4.267 -0.169,1.562 c -0.106,0.966 -0.974,1.665 -1.941,1.56 L 1.561,1.939 C 0.594,1.835 -0.104,0.967 0,0"
             style="fill:#c3ccd5;fill-opacity:1;fill-rule:nonzero;stroke:none"
             id="path5378"
             inkscape:connector-curvature="0" /></g><g
           id="g5380"
           transform="translate(231.5771,159.0283)"><path
             d="m 0,0 -35.926,-3.888 c -0.763,-0.083 -1.359,-0.643 -1.523,-1.351 L 1.778,-0.994 C 1.466,-0.338 0.765,0.083 0,0"
             style="fill:#d5dce0;fill-opacity:1;fill-rule:nonzero;stroke:none"
             id="path5382"
             inkscape:connector-curvature="0" /></g><g
           id="g5384"
           transform="translate(195.9756,135.7852)"><path
             d="m 0,0 0.154,-1.434 c 0.109,-0.993 1.001,-1.712 1.994,-1.604 l 35.829,3.877 c 0.994,0.107 1.711,1 1.604,1.994 l -0.155,1.434 z"
             style="fill:#c3ccd5;fill-opacity:1;fill-rule:nonzero;stroke:none"
             id="path5386"
             inkscape:connector-curvature="0" /></g><g
           id="g5388"
           transform="translate(196.6943,133.2256)"><path
             d="m 0,0 c 0.371,-0.347 0.885,-0.537 1.43,-0.479 l 35.828,3.877 c 0.545,0.06 1.006,0.356 1.295,0.774 z"
             style="fill:#d5dce0;fill-opacity:1;fill-rule:nonzero;stroke:none"
             id="path5390"
             inkscape:connector-curvature="0" /></g><g
           id="g5392"
           transform="translate(229.249,148.8984)"><path
             d="m 0,0 c 0.721,-6.66 -4.095,-12.644 -10.755,-13.364 -6.66,-0.721 -12.644,4.093 -13.365,10.755 -0.721,6.66 4.095,12.643 10.755,13.364 C -6.705,11.476 -0.721,6.661 0,0"
             style="fill:#d5dce0;fill-opacity:1;fill-rule:nonzero;stroke:none"
             id="path5394"
             inkscape:connector-curvature="0" /></g><g
           id="g5396"
           transform="translate(228.1455,148.7793)"><path
             d="m 0,0 c 0.655,-6.051 -3.72,-11.487 -9.771,-12.143 -6.051,-0.655 -11.488,3.72 -12.142,9.772 -0.655,6.051 3.72,11.487 9.77,12.142 C -6.091,10.426 -0.654,6.052 0,0"
             style="fill:#404751;fill-opacity:1;fill-rule:nonzero;stroke:none"
             id="path5398"
             inkscape:connector-curvature="0" /></g><g
           id="g5400"
           transform="translate(226.6377,148.6162)"><path
             d="m 0,0 c 0.564,-5.219 -3.208,-9.906 -8.426,-10.472 -5.219,-0.564 -9.907,3.208 -10.471,8.427 -0.565,5.219 3.208,9.906 8.425,10.472 C -5.253,8.991 -0.564,5.219 0,0"
             style="fill:#283039;fill-opacity:1;fill-rule:nonzero;stroke:none"
             id="path5402"
             inkscape:connector-curvature="0" /></g><g
           id="g5404"
           transform="translate(225.8975,148.5361)"><path
             d="m 0,0 c 0.521,-4.81 -2.956,-9.131 -7.766,-9.651 -4.81,-0.521 -9.13,2.957 -9.651,7.766 -0.52,4.81 2.956,9.131 7.766,9.652 C -4.841,8.287 -0.521,4.81 0,0"
             style="fill:#12171e;fill-opacity:1;fill-rule:nonzero;stroke:none"
             id="path5406"
             inkscape:connector-curvature="0" /></g><g
           id="g5408"
           transform="translate(221.2871,148.0371)"><path
             d="M 0,0 C 0.245,-2.264 -1.392,-4.297 -3.654,-4.541 -5.918,-4.786 -7.951,-3.15 -8.196,-0.887 -8.441,1.376 -6.805,3.41 -4.542,3.654 -2.278,3.899 -0.245,2.264 0,0"
             style="fill:#31476c;fill-opacity:1;fill-rule:nonzero;stroke:none"
             id="path5410"
             inkscape:connector-curvature="0" /></g><g
           id="g5412"><g
             id="g5414" /><g
             id="g5426"><g
               clip-path="url(#clipPath5418)"
               id="g5424"
               style="opacity:0.19999701"><g
                 transform="translate(224.7559,152.0059)"
                 id="g5422"><path
                   d="m 0,0 c -1.688,2.892 -4.965,4.681 -8.51,4.297 -4.809,-0.521 -8.286,-4.842 -7.765,-9.651 0.12,-1.115 0.446,-2.155 0.933,-3.093 C -9.36,-8.045 -3.734,-4.77 0,0"
                   style="fill:#2d3842;fill-opacity:1;fill-rule:nonzero;stroke:none"
                   id="path5420"
                   inkscape:connector-curvature="0" /></g></g></g></g><g
           id="g5428"
           transform="translate(219.1699,150.1191)"><path
             d="M 0,0 C -0.768,0.618 -0.889,1.741 -0.271,2.509 0.347,3.276 1.47,3.398 2.238,2.78 3.006,2.162 3.127,1.039 2.51,0.271 1.892,-0.496 0.769,-0.618 0,0"
             style="fill:#d5dce0;fill-opacity:1;fill-rule:nonzero;stroke:none"
             id="path5430"
             inkscape:connector-curvature="0" /></g><g
           id="g5432"
           transform="translate(218.3584,146.9443)"><path
             d="m 0,0 c -0.686,-0.101 -1.323,0.373 -1.425,1.059 -0.1,0.686 0.374,1.324 1.06,1.424 C 0.32,2.584 0.958,2.11 1.06,1.424 1.16,0.738 0.686,0.101 0,0"
             style="fill:#d5dce0;fill-opacity:1;fill-rule:nonzero;stroke:none"
             id="path5434"
             inkscape:connector-curvature="0" /></g><g
           id="g5436"
           transform="translate(194.1279,153.7891)"><path
             d="m 0,0 -17.855,55.114 3.63,3.734 0.104,-3.734 L 0.203,0.503 Z"
             style="fill:#12171e;fill-opacity:1;fill-rule:nonzero;stroke:none"
             id="path5438"
             inkscape:connector-curvature="0" /></g><g
           id="g5440"
           transform="translate(232.4033,158.9189)"><path
             d="m 0,0 -4.589,49.984 -0.099,1.782 2.673,-1.782 2.477,-50.288 z"
             style="fill:#12171e;fill-opacity:1;fill-rule:nonzero;stroke:none"
             id="path5442"
             inkscape:connector-curvature="0" /></g><g
           id="g5444"
           transform="translate(329.9736,405.5928)"><path
             d="m 0,0 c -2.208,-3.085 -0.736,-8.478 3.6,-15.201 7.419,-11.489 23.22,-26.874 43.359,-41.285 31.916,-22.841 62.635,-34.583 68.616,-26.224 2.908,4.063 -0.564,12.125 -8.558,21.957 -8.462,10.401 -21.989,22.791 -38.398,34.534 C 36.703,-3.379 5.981,8.358 0,0"
             style="fill:#b21b1b;fill-opacity:1;fill-rule:nonzero;stroke:none"
             id="path5446"
             inkscape:connector-curvature="0" /></g><g
           id="g5448"
           transform="translate(329.9736,405.5928)"><path
             d="m 0,0 c -2.208,-3.085 -0.736,-8.478 3.6,-15.201 8.462,-10.401 21.987,-22.791 38.396,-34.534 31.917,-22.84 62.639,-34.577 68.62,-26.219 2.205,3.081 0.737,8.478 -3.599,15.201 -8.462,10.401 -21.989,22.791 -38.398,34.534 C 36.703,-3.379 5.981,8.358 0,0"
             style="fill:#d82c28;fill-opacity:1;fill-rule:nonzero;stroke:none"
             id="path5450"
             inkscape:connector-curvature="0" /></g><g
           id="g5452"
           transform="translate(363.1787,387.8364)"><path
             d="m 0,0 c 5.136,-11.228 12.71,-20.415 22.07,-27.112 9.356,-6.698 20.497,-10.905 32.785,-12.14 1.779,2.546 3.295,5.184 4.549,7.867 1.027,2.188 1.879,4.41 2.558,6.634 1.968,6.421 2.5,12.897 1.621,18.847 -0.773,5.242 -2.634,10.075 -5.568,14.123 -0.142,0.195 -0.284,0.39 -0.435,0.586 l -0.004,10e-4 c -0.204,0.268 -0.409,0.527 -0.623,0.787 -0.402,0.493 -0.827,0.967 -1.265,1.431 -0.055,0.054 -0.11,0.112 -0.161,0.164 -0.171,0.181 -0.347,0.356 -0.525,0.527 -0.055,0.058 -0.113,0.117 -0.172,0.176 -0.212,0.203 -0.432,0.407 -0.658,0.608 -0.207,0.193 -0.426,0.378 -0.64,0.559 -0.119,0.108 -0.238,0.206 -0.363,0.306 -0.111,0.093 -0.22,0.176 -0.336,0.264 -0.133,0.11 -0.267,0.215 -0.404,0.32 -0.212,0.157 -0.424,0.318 -0.636,0.469 C 40.702,22.352 25.228,20.899 12.373,12.071 10.15,10.545 8.01,8.798 5.98,6.845 3.847,4.796 1.84,2.506 0,0"
             style="fill:#d82c28;fill-opacity:1;fill-rule:nonzero;stroke:none"
             id="path5454"
             inkscape:connector-curvature="0" /></g><g
           id="g5456"
           transform="translate(363.1787,387.8364)"><path
             d="m 0,0 c 5.136,-11.228 12.71,-20.415 22.07,-27.112 9.356,-6.698 20.497,-10.905 32.785,-12.14 1.779,2.546 3.295,5.184 4.549,7.867 1.027,2.188 1.879,4.41 2.558,6.634 1.968,6.421 2.5,12.897 1.621,18.847 -3.75,-4.976 -9.673,-8.514 -15.921,-9.249 C 37.183,-16.381 26.66,-10.817 20.081,-2.569 16.613,1.78 14.118,6.777 12.373,12.071 10.15,10.545 8.01,8.798 5.98,6.845 3.847,4.796 1.84,2.506 0,0"
             style="fill:#b21b1b;fill-opacity:1;fill-rule:nonzero;stroke:none"
             id="path5458"
             inkscape:connector-curvature="0" /></g><g
           id="g5460"
           transform="translate(363.1787,387.8364)"><path
             d="m 0,0 c 5.136,-11.228 12.71,-20.415 22.07,-27.112 9.356,-6.698 20.497,-10.905 32.785,-12.14 1.779,2.546 3.295,5.184 4.549,7.867 1.027,2.188 1.879,4.41 2.558,6.634 -12.841,-3.326 -25.236,-1.119 -34.34,5.398 C 20.148,-14.004 13.815,-7.068 8.952,1.228 7.886,3.036 6.896,4.909 5.98,6.845 3.847,4.796 1.84,2.506 0,0"
             style="fill:#ffffff;fill-opacity:1;fill-rule:nonzero;stroke:none"
             id="path5462"
             inkscape:connector-curvature="0" /></g><g
           id="g5464"
           transform="translate(415.4082,355.6226)"><path
             d="m 0,0 c 1.239,-6.562 -0.749,-13.313 -3.437,-19.426 -2.687,-6.114 -6.105,-11.945 -7.975,-18.356 -1.87,-6.411 -1.993,-13.749 1.653,-19.343 0.107,3.225 1.172,6.413 3.025,9.054 2.276,-4.689 6.397,-8.451 11.274,-10.29 -4.014,8.803 -2.05,19.049 0.082,28.487 2.132,9.437 4.315,19.581 0.663,28.541 C 3.832,-0.806 1.453,-0.527 0,0"
             style="fill:#ddd7d7;fill-opacity:1;fill-rule:nonzero;stroke:none"
             id="path5466"
             inkscape:connector-curvature="0" /></g><g
           id="g5468"
           transform="translate(413.3623,354.8442)"><path
             d="m 0,0 c 3.935,-6.585 4.465,-14.651 3.988,-22.307 -0.475,-7.657 -1.852,-15.297 -1.329,-22.951 0.524,-7.653 3.296,-15.614 9.445,-20.201 -1.163,3.519 -1.277,7.378 -0.326,10.96 4.312,-4.154 10.246,-6.578 16.233,-6.629 -7.816,7.902 -9.756,19.727 -11.196,30.747 C 15.377,-19.36 13.712,-7.56 6.227,0.656 4.451,0.648 1.775,0.007 0,0"
             style="fill:#ffffff;fill-opacity:1;fill-rule:nonzero;stroke:none"
             id="path5470"
             inkscape:connector-curvature="0" /></g><g
           id="g5472"
           transform="translate(230.2637,312.6973)"><path
             d="M 0,0 0.81,-3.04 1.62,0 C 2.663,3.914 4.829,7.187 7.688,9.169 4.829,11.151 2.663,14.424 1.62,18.337 L 0.81,21.377 0,18.337 C -1.043,14.424 -3.21,11.151 -6.069,9.169 -3.21,7.187 -1.043,3.914 0,0"
             style="fill:#fafafa;fill-opacity:1;fill-rule:nonzero;stroke:none"
             id="path5474"
             inkscape:connector-curvature="0" /></g><g
           id="g5476"
           transform="translate(248.1826,292.5405)"><path
             d="M 0,0 1.115,-4.185 2.23,0 C 3.666,5.388 6.648,9.895 10.585,12.624 6.648,15.353 3.666,19.859 2.23,25.247 L 1.115,29.432 0,25.247 C -1.437,19.859 -4.419,15.353 -8.355,12.624 -4.419,9.895 -1.437,5.388 0,0"
             style="fill:#fafafa;fill-opacity:1;fill-rule:nonzero;stroke:none"
             id="path5478"
             inkscape:connector-curvature="0" /></g><g
           id="g5480"
           transform="translate(450.2871,156.5234)"><path
             d="M 0,0 0.497,1.863 0.994,0 C 1.634,-2.4 2.962,-4.407 4.715,-5.623 2.962,-6.839 1.634,-8.846 0.994,-11.245 L 0.497,-13.109 0,-11.245 c -0.639,2.399 -1.968,4.406 -3.721,5.622 C -1.968,-4.407 -0.639,-2.4 0,0"
             style="fill:#fafafa;fill-opacity:1;fill-rule:nonzero;stroke:none"
             id="path5482"
             inkscape:connector-curvature="0" /></g><g
           id="g5484"
           transform="translate(461.2754,168.8838)"><path
             d="M 0,0 0.685,2.566 1.368,0 C 2.249,-3.304 4.078,-6.067 6.492,-7.741 4.078,-9.415 2.249,-12.178 1.368,-15.482 L 0.685,-18.049 0,-15.482 c -0.88,3.304 -2.709,6.067 -5.123,7.741 C -2.709,-6.067 -0.88,-3.304 0,0"
             style="fill:#fafafa;fill-opacity:1;fill-rule:nonzero;stroke:none"
             id="path5486"
             inkscape:connector-curvature="0" /></g><g
           id="g5488"
           transform="translate(300.5449,395.3325)"><path
             d="M 0,0 0.616,2.314 1.233,0 c 0.794,-2.979 2.443,-5.471 4.62,-6.979 -2.177,-1.509 -3.826,-4.001 -4.62,-6.98 L 0.616,-16.273 0,-13.959 c -0.794,2.979 -2.443,5.471 -4.62,6.98 2.177,1.508 3.826,4 4.62,6.979"
             style="fill:#fafafa;fill-opacity:1;fill-rule:nonzero;stroke:none"
             id="path5490"
             inkscape:connector-curvature="0" /></g><g
           id="g5492"
           transform="translate(314.1855,410.6768)"><path
             d="M 0,0 0.849,3.186 1.697,0 c 1.094,-4.102 3.365,-7.532 6.361,-9.609 -2.996,-2.078 -5.267,-5.508 -6.361,-9.61 L 0.849,-22.405 0,-19.219 c -1.094,4.102 -3.364,7.532 -6.36,9.61 C -3.364,-7.532 -1.094,-4.102 0,0"
             style="fill:#fafafa;fill-opacity:1;fill-rule:nonzero;stroke:none"
             id="path5494"
             inkscape:connector-curvature="0" /></g><g
           id="g5496"
           transform="translate(82.9658,197.5332)"><path
             d="M 0,0 -0.456,1.864 -0.914,0 c -0.588,-2.399 -1.812,-4.406 -3.426,-5.622 1.614,-1.216 2.838,-3.223 3.426,-5.622 l 0.458,-1.864 0.456,1.864 c 0.589,2.399 1.812,4.406 3.427,5.622 C 1.812,-4.406 0.589,-2.399 0,0"
             style="fill:#fafafa;fill-opacity:1;fill-rule:nonzero;stroke:none"
             id="path5498"
             inkscape:connector-curvature="0" /></g><g
           id="g5500"
           transform="translate(72.8511,209.8945)"><path
             d="M 0,0 -0.63,2.566 -1.259,0 c -0.811,-3.305 -2.495,-6.068 -4.717,-7.741 2.222,-1.673 3.906,-4.437 4.717,-7.741 l 0.629,-2.567 0.63,2.567 c 0.811,3.304 2.494,6.068 4.716,7.741 C 2.494,-6.068 0.811,-3.305 0,0"
             style="fill:#fafafa;fill-opacity:1;fill-rule:nonzero;stroke:none"
             id="path5502"
             inkscape:connector-curvature="0" /></g></g></g></g></svg>