<?xml version="1.0" encoding="UTF-8" standalone="no"?>
<!-- Created with Inkscape (http://www.inkscape.org/) -->

<svg
   xmlns:dc="http://purl.org/dc/elements/1.1/"
   xmlns:cc="http://creativecommons.org/ns#"
   xmlns:rdf="http://www.w3.org/1999/02/22-rdf-syntax-ns#"
   xmlns:svg="http://www.w3.org/2000/svg"
   xmlns="http://www.w3.org/2000/svg"
   xmlns:sodipodi="http://sodipodi.sourceforge.net/DTD/sodipodi-0.dtd"
   xmlns:inkscape="http://www.inkscape.org/namespaces/inkscape"
   version="1.1"
   id="svg846"
   xml:space="preserve"
   width="1000"
   height="666.66669"
   viewBox="0 0 1000 666.66669"
   sodipodi:docname="BK.svg"
   inkscape:version="0.92.4 (33fec40, 2019-01-16)"><metadata
     id="metadata852"><rdf:RDF><cc:Work
         rdf:about=""><dc:format>image/svg+xml</dc:format><dc:type
           rdf:resource="http://purl.org/dc/dcmitype/StillImage" /><dc:title></dc:title></cc:Work></rdf:RDF></metadata><defs
     id="defs850"><clipPath
       clipPathUnits="userSpaceOnUse"
       id="clipPath864"><path
         d="M 0,500 H 750 V 0 H 0 Z"
         id="path862"
         inkscape:connector-curvature="0" /></clipPath><clipPath
       clipPathUnits="userSpaceOnUse"
       id="clipPath1010"><path
         d="M 0,500 H 750 V 0 H 0 Z"
         id="path1008"
         inkscape:connector-curvature="0" /></clipPath><clipPath
       clipPathUnits="userSpaceOnUse"
       id="clipPath1026"><path
         d="M 0,500 H 750 V 0 H 0 Z"
         id="path1024"
         inkscape:connector-curvature="0" /></clipPath><clipPath
       clipPathUnits="userSpaceOnUse"
       id="clipPath1058"><path
         d="M 0,500 H 750 V 0 H 0 Z"
         id="path1056"
         inkscape:connector-curvature="0" /></clipPath></defs><sodipodi:namedview
     pagecolor="#ffffff"
     bordercolor="#666666"
     borderopacity="1"
     objecttolerance="10"
     gridtolerance="10"
     guidetolerance="10"
     inkscape:pageopacity="0"
     inkscape:pageshadow="2"
     inkscape:window-width="1366"
     inkscape:window-height="666"
     id="namedview848"
     showgrid="false"
     inkscape:zoom="0.71999998"
     inkscape:cx="500"
     inkscape:cy="333.33334"
     inkscape:window-x="0"
     inkscape:window-y="27"
     inkscape:window-maximized="1"
     inkscape:current-layer="g854" /><g
     id="g854"
     inkscape:groupmode="layer"
     inkscape:label="134803-OTIBYJ-967"
     transform="matrix(1.3333333,0,0,-1.3333333,0,666.66667)"><path
       d="m 0,0.001 h 750 v 500 H 0 Z"
       style="fill:#97d2d0;fill-opacity:1;fill-rule:nonzero;stroke:none"
       id="path856"
       inkscape:connector-curvature="0" /><g
       id="g858"
       transform="translate(0,10e-4)"><g
         id="g860"
         clip-path="url(#clipPath864)"><g
           id="g866"
           transform="translate(440.3838,315.3838)"><path
             d="m 0,0 c -125.135,-58.351 -273.88,-4.212 -332.23,120.923 h -0.002 c -9.678,20.755 -16.258,42.16 -19.936,63.693 h -88.216 V -315.383 H 90.492 C -12.616,-248.663 -53.375,-114.461 0,0"
             style="fill:#ffffff;fill-opacity:1;fill-rule:nonzero;stroke:none"
             id="path868"
             inkscape:connector-curvature="0" /></g><g
           id="g870"
           transform="translate(453.5771,324.1572)"><path
             d="M 0,0 -10.982,-10.983 4.546,-37.88 8.965,-33.46 Z"
             style="fill:#d9d9d9;fill-opacity:1;fill-rule:nonzero;stroke:none"
             id="path872"
             inkscape:connector-curvature="0" /></g><g
           id="g874"
           transform="translate(449.1572,328.5771)"><path
             d="m 0,0 -10.984,-10.982 -26.897,15.529 4.42,4.419 z"
             style="fill:#d9d9d9;fill-opacity:1;fill-rule:nonzero;stroke:none"
             id="path876"
             inkscape:connector-curvature="0" /></g><g
           id="g878"
           transform="translate(453.3213,414.9429)"><path
             d="m 0,0 7.145,7.144 c 1.464,1.464 3.839,1.464 5.302,0 1.465,-1.464 1.465,-3.838 0,-5.303 L 8.365,-2.241 Z"
             style="fill:#ffffff;fill-opacity:1;fill-rule:nonzero;stroke:none"
             id="path880"
             inkscape:connector-curvature="0" /></g><g
           id="g882"
           transform="translate(474.2344,409.3389)"><path
             d="m 0,0 7.146,7.145 c 1.462,1.464 3.837,1.464 5.302,0 1.465,-1.465 1.465,-3.838 0,-5.303 L 8.364,-2.241 Z"
             style="fill:#ffffff;fill-opacity:1;fill-rule:nonzero;stroke:none"
             id="path884"
             inkscape:connector-curvature="0" /></g><g
           id="g886"
           transform="translate(507.3213,401.7676)"><path
             d="m 0,0 0.885,-0.884 -22.996,-22.996 -0.885,0.884 -61.64,35.587 7.956,7.956 z"
             style="fill:#d9d9d9;fill-opacity:1;fill-rule:nonzero;stroke:none"
             id="path888"
             inkscape:connector-curvature="0" /></g><g
           id="g890"
           transform="translate(539.9434,328.3223)"><path
             d="m 0,0 7.144,7.145 c 1.463,1.464 1.463,3.838 0,5.303 -1.466,1.464 -3.84,1.464 -5.304,0 L -2.242,8.365 Z"
             style="fill:#ffffff;fill-opacity:1;fill-rule:nonzero;stroke:none"
             id="path892"
             inkscape:connector-curvature="0" /></g><g
           id="g894"
           transform="translate(534.3389,349.2354)"><path
             d="m 0,0 7.145,7.145 c 1.463,1.464 1.463,3.838 0,5.303 -1.465,1.464 -3.839,1.464 -5.304,0 L -2.241,8.364 Z"
             style="fill:#ffffff;fill-opacity:1;fill-rule:nonzero;stroke:none"
             id="path896"
             inkscape:connector-curvature="0" /></g><g
           id="g898"
           transform="translate(526.7666,382.3223)"><path
             d="m 0,0 -0.883,0.884 -22.997,-22.996 0.884,-0.884 35.588,-61.64 7.955,7.956 z"
             style="fill:#d9d9d9;fill-opacity:1;fill-rule:nonzero;stroke:none"
             id="path900"
             inkscape:connector-curvature="0" /></g><g
           id="g902"
           transform="translate(489.3105,383.7563)"><path
             d="m 0,0 c -34.065,-34.066 -57.329,-66.035 -51.958,-71.404 5.369,-5.369 37.338,17.892 71.403,51.959 L 55.421,16.53 c 14.197,14.198 21.353,30.059 15.983,35.429 -5.369,5.37 -21.23,-1.786 -35.428,-15.983 z"
             style="fill:#ffffff;fill-opacity:1;fill-rule:nonzero;stroke:none"
             id="path904"
             inkscape:connector-curvature="0" /></g><g
           id="g906"
           transform="translate(543.5791,418.5806)"><path
             d="M 0,0 C 2.417,-2.417 3.879,-5.54 4.463,-9.083 5.976,-3.829 5.647,0.54 3.095,3.093 0.541,5.646 -3.828,5.975 -9.082,4.462 -5.539,3.877 -2.415,2.417 0,0"
             style="fill:#3c3c3b;fill-opacity:1;fill-rule:nonzero;stroke:none"
             id="path908"
             inkscape:connector-curvature="0" /></g><g
           id="g910"
           transform="translate(406.9922,354.4717)"><path
             d="m 0,0 -1.769,1.768 36.024,36.023 1.767,-1.769 z"
             style="fill:#ffffff;fill-opacity:1;fill-rule:nonzero;stroke:none"
             id="path912"
             inkscape:connector-curvature="0" /></g><g
           id="g914"
           transform="translate(417.9326,379.5537)"><path
             d="M 0,0 -1.768,1.768 16.244,19.78 18.012,18.011 Z"
             style="fill:#ffffff;fill-opacity:1;fill-rule:nonzero;stroke:none"
             id="path916"
             inkscape:connector-curvature="0" /></g><g
           id="g918"
           transform="translate(439.3115,376.1851)"><path
             d="M 0,0 1.77,-1.767 10.774,7.238 9.008,9.006 Z"
             style="fill:#ffffff;fill-opacity:1;fill-rule:nonzero;stroke:none"
             id="path920"
             inkscape:connector-curvature="0" /></g><g
           id="g922"
           transform="translate(479.4717,281.9927)"><path
             d="M 0,0 1.768,-1.768 37.79,34.255 36.021,36.022 Z"
             style="fill:#ffffff;fill-opacity:1;fill-rule:nonzero;stroke:none"
             id="path924"
             inkscape:connector-curvature="0" /></g><g
           id="g926"
           transform="translate(504.5537,292.9336)"><path
             d="m 0,0 1.768,-1.768 18.011,18.011 -1.767,1.768 z"
             style="fill:#ffffff;fill-opacity:1;fill-rule:nonzero;stroke:none"
             id="path928"
             inkscape:connector-curvature="0" /></g><g
           id="g930"
           transform="translate(463.7012,262.6875)"><path
             d="M 0,0 -1.768,1.768 7.238,10.773 9.006,9.006 Z"
             style="fill:#ffffff;fill-opacity:1;fill-rule:nonzero;stroke:none"
             id="path932"
             inkscape:connector-curvature="0" /></g><g
           id="g934"
           transform="translate(265.5615,450)"><path
             d="M 0,0 C -13.807,0 -25,-11.191 -25,-25 H 25 C 25,-11.191 13.807,0 0,0"
             style="fill:#ffffff;fill-opacity:1;fill-rule:nonzero;stroke:none"
             id="path936"
             inkscape:connector-curvature="0" /></g><g
           id="g938"
           transform="translate(243.1533,425)"><path
             d="M 0,0 C -1.516,7.416 -8.076,12.995 -15.939,12.995 -23.805,12.995 -30.365,7.416 -31.881,0 Z"
             style="fill:#ffffff;fill-opacity:1;fill-rule:nonzero;stroke:none"
             id="path940"
             inkscape:connector-curvature="0" /></g><g
           id="g942"
           transform="translate(203.4971,425)"><path
             d="m 0,0 c -1.013,4.958 -5.398,8.688 -10.656,8.688 -5.258,0 -9.645,-3.73 -10.658,-8.688 z"
             style="fill:#ffffff;fill-opacity:1;fill-rule:nonzero;stroke:none"
             id="path944"
             inkscape:connector-curvature="0" /></g><g
           id="g946"
           transform="translate(328.9092,382.0059)"><path
             d="M 0,0 C -13.807,0 -24.999,-11.193 -24.999,-25 H 25 C 25,-11.193 13.809,0 0,0"
             style="fill:#ffffff;fill-opacity:1;fill-rule:nonzero;stroke:none"
             id="path948"
             inkscape:connector-curvature="0" /></g><g
           id="g950"
           transform="translate(306.5029,357.0059)"><path
             d="M 0,0 C -1.518,7.416 -8.078,12.994 -15.941,12.994 -23.805,12.994 -30.366,7.416 -31.883,0 Z"
             style="fill:#ffffff;fill-opacity:1;fill-rule:nonzero;stroke:none"
             id="path952"
             inkscape:connector-curvature="0" /></g><g
           id="g954"
           transform="translate(383.1992,357.0059)"><path
             d="M 0,0 C -1.516,7.416 -8.075,12.994 -15.939,12.994 -23.804,12.994 -30.364,7.416 -31.88,0 Z"
             style="fill:#ffffff;fill-opacity:1;fill-rule:nonzero;stroke:none"
             id="path956"
             inkscape:connector-curvature="0" /></g><g
           id="g958"
           transform="translate(244.4033,386.3779)"><path
             d="m 0,0 h -2.5 c 0,3.722 -3.028,6.75 -6.75,6.75 v 2.5 c 3.41,0 6.396,-1.855 8,-4.61 1.604,2.755 4.59,4.61 8,4.61 V 6.75 C 3.027,6.75 0,3.722 0,0"
             style="fill:#ffffff;fill-opacity:1;fill-rule:nonzero;stroke:none"
             id="path960"
             inkscape:connector-curvature="0" /></g><g
           id="g962"
           transform="translate(550,238.1875)"><path
             d="M 0,0 C -13.807,0 -24.999,-11.192 -24.999,-25 H 25 C 25,-11.192 13.808,0 0,0"
             style="fill:#ffffff;fill-opacity:1;fill-rule:nonzero;stroke:none"
             id="path964"
             inkscape:connector-curvature="0" /></g><g
           id="g966"
           transform="translate(527.5918,213.1875)"><path
             d="M 0,0 C -1.517,7.416 -8.077,12.995 -15.941,12.995 -23.805,12.995 -30.366,7.416 -31.882,0 Z"
             style="fill:#ffffff;fill-opacity:1;fill-rule:nonzero;stroke:none"
             id="path968"
             inkscape:connector-curvature="0" /></g><g
           id="g970"
           transform="translate(575,77.1973)"><path
             d="m 0,0 c -1.517,7.416 -8.078,12.996 -15.941,12.996 -7.864,0 -14.425,-5.58 -15.94,-12.996 z"
             style="fill:#ffffff;fill-opacity:1;fill-rule:nonzero;stroke:none"
             id="path972"
             inkscape:connector-curvature="0" /></g><g
           id="g974"
           transform="translate(498.3018,145.1934)"><path
             d="M 0,0 C -1.516,7.416 -8.076,12.995 -15.941,12.995 -23.805,12.995 -30.365,7.416 -31.881,0 Z"
             style="fill:#ffffff;fill-opacity:1;fill-rule:nonzero;stroke:none"
             id="path976"
             inkscape:connector-curvature="0" /></g><g
           id="g978"
           transform="translate(527.5908,145.1934)"><path
             d="M 0,0 C -1.516,7.416 -8.076,12.995 -15.94,12.995 -23.805,12.995 -30.365,7.416 -31.881,0 Z"
             style="fill:#ffffff;fill-opacity:1;fill-rule:nonzero;stroke:none"
             id="path980"
             inkscape:connector-curvature="0" /></g><g
           id="g982"
           transform="translate(568.25,147.0654)"><path
             d="m 0,0 h -2.5 c 0,3.722 -3.027,6.75 -6.75,6.75 v 2.5 c 3.411,0 6.396,-1.855 8,-4.61 1.604,2.755 4.589,4.61 8,4.61 V 6.75 C 3.028,6.75 0,3.722 0,0"
             style="fill:#ffffff;fill-opacity:1;fill-rule:nonzero;stroke:none"
             id="path984"
             inkscape:connector-curvature="0" /></g><g
           id="g986"
           transform="translate(665.459,281.1816)"><path
             d="M 0,0 C -1.516,7.416 -8.076,12.995 -15.94,12.995 -23.805,12.995 -30.365,7.416 -31.881,0 Z"
             style="fill:#ffffff;fill-opacity:1;fill-rule:nonzero;stroke:none"
             id="path988"
             inkscape:connector-curvature="0" /></g><g
           id="g990"
           transform="translate(636.1699,281.1816)"><path
             d="M 0,0 C -1.516,7.416 -8.076,12.995 -15.941,12.995 -23.805,12.995 -30.365,7.416 -31.881,0 Z"
             style="fill:#ffffff;fill-opacity:1;fill-rule:nonzero;stroke:none"
             id="path992"
             inkscape:connector-curvature="0" /></g><g
           id="g994"
           transform="translate(606.8809,281.1816)"><path
             d="M 0,0 C -1.516,7.416 -8.076,12.995 -15.941,12.995 -23.805,12.995 -30.365,7.416 -31.881,0 Z"
             style="fill:#ffffff;fill-opacity:1;fill-rule:nonzero;stroke:none"
             id="path996"
             inkscape:connector-curvature="0" /></g></g></g><text
       transform="scale(1.1316033,-0.88370192)"
       style="font-variant:normal;font-weight:bold;font-stretch:normal;font-size:43.28053284px;font-family:'Galano Grotesque DEMO';-inkscape-font-specification:GalanoGrotesqueDEMO-Bold;writing-mode:lr-tb;fill:#97d2d0;fill-opacity:1;fill-rule:nonzero;stroke:none;stroke-width:0.96178967"
       id="text1002"
       x="236.60754"
       y="-208.79391"><tspan
         sodipodi:role="line"
         x="244.13092"
         y="-208.79391"
         id="tspan1200"
         style="text-align:center;text-anchor:middle;stroke-width:0.96178967">HORA </tspan><tspan
         sodipodi:role="line"
         x="244.13092"
         y="-154.69325"
         id="tspan1198"
         style="stroke-width:0.96178967"><tspan
   style="text-align:center;text-anchor:middle;stroke-width:0.96178967"
   id="tspan1202">VIAJA</tspan> </tspan></text>
<g
       id="g1004"><g
         id="g1006"
         clip-path="url(#clipPath1010)"><g
           id="g1012"
           transform="translate(361.0635,126.731)"><path
             d="M 0,0 -6.25,-15.086 0,-30.172 h -180.227 l 6.25,15.086 -6.25,15.086 z"
             style="fill:#97d2d0;fill-opacity:1;fill-rule:nonzero;stroke:none"
             id="path1014"
             inkscape:connector-curvature="0" /></g></g></g><text
       transform="scale(0.92721776,-1.0784953)"
       style="font-variant:normal;font-weight:normal;font-stretch:normal;font-size:20.86240005px;font-family:Vibur;-inkscape-font-specification:Vibur;writing-mode:lr-tb;fill:#ffffff;fill-opacity:1;fill-rule:nonzero;stroke:none;stroke-width:0.92721772"
       id="text1018"
       x="209.18565"
       y="-95.823044"><tspan
         sodipodi:role="line"
         id="tspan1016"
         x="209.18565"
         y="-95.823044"
         style="stroke-width:0.92721772">RESERVAS UFPB</tspan></text>
<g
       id="g1020"><g
         id="g1022"
         clip-path="url(#clipPath1026)"><path
           d="m 291.812,224.62 h 69.252 v 2.5 h -69.252 z"
           style="fill:#97d2d0;fill-opacity:1;fill-rule:nonzero;stroke:none"
           id="path1028"
           inkscape:connector-curvature="0" /><path
           d="m 250.09,227.121 h -69.253 v -2.5 h 69.253 z"
           style="fill:#97d2d0;fill-opacity:1;fill-rule:nonzero;stroke:none"
           id="path1030"
           inkscape:connector-curvature="0" /><g
           id="g1032"
           transform="translate(275.9219,228.3696)"><path
             d="M 0,0 V -0.227 H -5.913 V 0 l -3.35,12.5 h 2.047 z"
             style="fill:#97d2d0;fill-opacity:1;fill-rule:nonzero;stroke:none"
             id="path1034"
             inkscape:connector-curvature="0" /></g><g
           id="g1036"
           transform="translate(275.9219,223.3696)"><path
             d="M 0,0 V 0.227 H -5.913 V 0 l -3.35,-12.5 h 2.047 z"
             style="fill:#97d2d0;fill-opacity:1;fill-rule:nonzero;stroke:none"
             id="path1038"
             inkscape:connector-curvature="0" /></g><g
           id="g1040"
           transform="translate(260.625,225.3013)"><path
             d="m 0,0 h -2.824 l -1.461,-5.455 h 1.137 z"
             style="fill:#97d2d0;fill-opacity:1;fill-rule:nonzero;stroke:none"
             id="path1042"
             inkscape:connector-curvature="0" /></g><g
           id="g1044"
           transform="translate(260.625,226.4385)"><path
             d="m 0,0 h -2.824 l -1.461,5.454 h 1.137 z"
             style="fill:#97d2d0;fill-opacity:1;fill-rule:nonzero;stroke:none"
             id="path1046"
             inkscape:connector-curvature="0" /></g><g
           id="g1048"
           transform="translate(272.8818,223.3696)"><path
             d="M 0,0 C -8.76,0 -15.861,1.12 -15.861,2.5 -15.861,3.881 -8.76,5 0,5 H 6.069 C 9.721,5 12.679,3.881 12.679,2.5 12.679,1.12 9.721,0 6.069,0 Z"
             style="fill:#97d2d0;fill-opacity:1;fill-rule:nonzero;stroke:none"
             id="path1050"
             inkscape:connector-curvature="0" /></g></g></g><text
       xml:space="preserve"
       style="font-style:normal;font-weight:normal;font-size:30px;line-height:1.25;font-family:sans-serif;letter-spacing:0px;word-spacing:0px;fill:#000000;fill-opacity:1;stroke:none;stroke-width:0.75"
       x="-112.5"
       y="-147.91667"
       id="text1208"
       transform="scale(1,-1)"><tspan
         sodipodi:role="line"
         id="tspan1206"
         x="-112.5"
         y="-121.3737"
         style="stroke-width:0.75"></tspan></text>
<text
       transform="scale(1.1316033,-0.88370191)"
       style="font-variant:normal;font-weight:bold;font-stretch:normal;font-size:14px;font-family:'Galano Grotesque DEMO';-inkscape-font-specification:GalanoGrotesqueDEMO-Bold;writing-mode:lr-tb;fill:#97d2d0;fill-opacity:1;fill-rule:nonzero;stroke:none;stroke-width:0.96178967"
       id="text1002-3"
       x="227.31398"
       y="-191.61584"><tspan
         sodipodi:role="line"
         x="227.31398"
         y="-191.61584"
         id="tspan1198-7"
         style="font-size:14px;stroke-width:0.96178967">DE</tspan></text>
</g></svg>