<?xml version="1.0" encoding="UTF-8" standalone="no"?>
<!-- Created with Inkscape (http://www.inkscape.org/) -->

<svg
   xmlns:dc="http://purl.org/dc/elements/1.1/"
   xmlns:cc="http://creativecommons.org/ns#"
   xmlns:rdf="http://www.w3.org/1999/02/22-rdf-syntax-ns#"
   xmlns:svg="http://www.w3.org/2000/svg"
   xmlns="http://www.w3.org/2000/svg"
   xmlns:sodipodi="http://sodipodi.sourceforge.net/DTD/sodipodi-0.dtd"
   xmlns:inkscape="http://www.inkscape.org/namespaces/inkscape"
   version="1.1"
   id="svg3676"
   xml:space="preserve"
   width="666.66669"
   height="666.66669"
   viewBox="0 0 666.66669 666.66669"
   sodipodi:docname="letsgo-travel.svg"
   inkscape:version="0.92.4 (33fec40, 2019-01-16)"><metadata
     id="metadata3682"><rdf:RDF><cc:Work
         rdf:about=""><dc:format>image/svg+xml</dc:format><dc:type
           rdf:resource="http://purl.org/dc/dcmitype/StillImage" /><dc:title></dc:title></cc:Work></rdf:RDF></metadata><defs
     id="defs3680"><clipPath
       clipPathUnits="userSpaceOnUse"
       id="clipPath3694"><path
         d="M 0,500 H 500 V 0 H 0 Z"
         id="path3692"
         inkscape:connector-curvature="0" /></clipPath><clipPath
       clipPathUnits="userSpaceOnUse"
       id="clipPath3930"><path
         d="m 130.538,261.848 h 78.076 V 185.05 h -78.076 z"
         id="path3928"
         inkscape:connector-curvature="0" /></clipPath><clipPath
       clipPathUnits="userSpaceOnUse"
       id="clipPath3994"><path
         d="M 0,500 H 500 V 0 H 0 Z"
         id="path3992"
         inkscape:connector-curvature="0" /></clipPath><clipPath
       clipPathUnits="userSpaceOnUse"
       id="clipPath4050"><path
         d="M 0,500 H 500 V 0 H 0 Z"
         id="path4048"
         inkscape:connector-curvature="0" /></clipPath><clipPath
       clipPathUnits="userSpaceOnUse"
       id="clipPath4066"><path
         d="M 107.676,155.802 H 268.774 V 69.2168 H 107.676 Z"
         id="path4064"
         inkscape:connector-curvature="0" /></clipPath><clipPath
       clipPathUnits="userSpaceOnUse"
       id="clipPath4098"><path
         d="m 111.908,184.126 h 4.34 v -4.34 h -4.34 z"
         id="path4096"
         inkscape:connector-curvature="0" /></clipPath><clipPath
       clipPathUnits="userSpaceOnUse"
       id="clipPath4114"><path
         d="m 111.908,78.0625 h 4.34 v -4.3398 h -4.34 z"
         id="path4112"
         inkscape:connector-curvature="0" /></clipPath><clipPath
       clipPathUnits="userSpaceOnUse"
       id="clipPath4130"><path
         d="m 260.202,184.126 h 4.339 V 73.7227 h -4.339 z"
         id="path4128"
         inkscape:connector-curvature="0" /></clipPath><clipPath
       clipPathUnits="userSpaceOnUse"
       id="clipPath4298"><path
         d="m 205.722,151.302 h 2.918 v -4.082 h -2.918 z"
         id="path4296"
         inkscape:connector-curvature="0" /></clipPath><clipPath
       clipPathUnits="userSpaceOnUse"
       id="clipPath4366"><path
         d="M 192.657,140.026 H 207.76 V 128.19 h -15.103 z"
         id="path4364"
         inkscape:connector-curvature="0" /></clipPath><clipPath
       clipPathUnits="userSpaceOnUse"
       id="clipPath4458"><path
         d="M 0,500 H 500 V 0 H 0 Z"
         id="path4456"
         inkscape:connector-curvature="0" /></clipPath></defs><sodipodi:namedview
     pagecolor="#ffffff"
     bordercolor="#666666"
     borderopacity="1"
     objecttolerance="10"
     gridtolerance="10"
     guidetolerance="10"
     inkscape:pageopacity="0"
     inkscape:pageshadow="2"
     inkscape:window-width="1366"
     inkscape:window-height="666"
     id="namedview3678"
     showgrid="false"
     inkscape:zoom="0.70799998"
     inkscape:cx="333.33334"
     inkscape:cy="333.33334"
     inkscape:window-x="0"
     inkscape:window-y="27"
     inkscape:window-maximized="1"
     inkscape:current-layer="g3684" /><g
     id="g3684"
     inkscape:groupmode="layer"
     inkscape:label="129983-ORUAFI-86"
     transform="matrix(1.3333333,0,0,-1.3333333,0,666.66667)"><g
       id="g3688"><g
         id="g3690"
         clip-path="url(#clipPath3694)"><g
           id="g3696"
           transform="translate(104.271,443.3145)"><path
             d="M 0,0 C 0.41,-1.363 0.821,-2.726 1.231,-4.088 0.649,-4.264 0.068,-4.44 -0.514,-4.618 l 4.097,-13.428 c 1.376,0.42 2.753,0.833 4.131,1.241 -0.387,1.313 -0.776,2.626 -1.164,3.94 1.81,0.534 3.623,1.059 5.438,1.573 0.763,-2.698 1.527,-5.395 2.29,-8.093 -5.945,-1.683 -11.867,-3.482 -17.761,-5.397 -0.443,1.364 -0.887,2.727 -1.329,4.091 0.583,0.19 1.168,0.379 1.752,0.566 -1.429,4.457 -2.858,8.913 -4.288,13.369 -0.601,-0.193 -1.202,-0.387 -1.803,-0.582 -0.44,1.354 -0.88,2.707 -1.32,4.061 C -6.989,-2.146 -3.499,-1.054 0,0"
             style="fill:#ffffff;fill-opacity:1;fill-rule:nonzero;stroke:none"
             id="path3698"
             inkscape:connector-curvature="0" /></g><g
           id="g3700"
           transform="translate(134.2568,451.3525)"><path
             d="m 0,0 c 0.546,-2.319 1.093,-4.639 1.639,-6.958 -1.912,-0.451 -3.822,-0.912 -5.73,-1.386 -0.231,0.932 -0.462,1.864 -0.693,2.795 -1.775,-0.44 -3.548,-0.89 -5.319,-1.35 0.374,-1.44 0.748,-2.881 1.122,-4.321 2.085,0.541 4.171,1.068 6.261,1.582 l 1.027,-4.178 c -2.072,-0.509 -4.14,-1.032 -6.207,-1.568 0.442,-1.701 0.883,-3.403 1.325,-5.104 1.721,0.446 3.445,0.884 5.17,1.312 -0.241,0.973 -0.483,1.947 -0.724,2.92 1.877,0.465 3.755,0.92 5.636,1.362 l 1.676,-7.116 c -6.458,-1.521 -12.893,-3.176 -19.3,-4.966 -0.386,1.381 -0.772,2.762 -1.157,4.143 0.675,0.189 1.351,0.376 2.026,0.562 l -3.719,13.538 c -0.695,-0.191 -1.39,-0.384 -2.085,-0.578 -0.383,1.371 -0.766,2.742 -1.149,4.113 C -13.495,-3.325 -6.76,-1.592 0,0"
             style="fill:#ffffff;fill-opacity:1;fill-rule:nonzero;stroke:none"
             id="path3702"
             inkscape:connector-curvature="0" /></g><g
           id="g3704"
           transform="translate(159.792,448.126)"><path
             d="M 0,0 C -1.633,-0.302 -3.265,-0.612 -4.896,-0.931 -5.161,0.424 -5.425,1.778 -5.689,3.133 -6.629,2.949 -7.568,2.763 -8.507,2.574 l 2.77,-13.763 c 0.902,0.181 1.803,0.36 2.706,0.536 0.275,-1.408 0.55,-2.815 0.824,-4.222 -4.008,-0.784 -8.01,-1.618 -12.003,-2.504 -0.311,1.4 -0.621,2.8 -0.932,4.2 0.889,0.198 1.777,0.392 2.665,0.584 -0.987,4.574 -1.975,9.149 -2.963,13.723 -0.959,-0.207 -1.917,-0.417 -2.876,-0.63 0.299,-1.347 0.599,-2.695 0.898,-4.042 -1.624,-0.361 -3.247,-0.729 -4.868,-1.107 -0.635,2.731 -1.27,5.462 -1.905,8.192 C -16.666,5.292 -9.11,6.868 -1.53,8.27 -1.02,5.513 -0.51,2.757 0,0"
             style="fill:#ffffff;fill-opacity:1;fill-rule:nonzero;stroke:none"
             id="path3706"
             inkscape:connector-curvature="0" /></g><g
           id="g3708"
           transform="translate(160.835,448.0547)"><path
             d="M 0,0 C 1.848,3.263 2.529,6.17 1.342,10.922 3.498,10.776 5.649,10.617 7.796,10.443 8.602,6.345 7.073,2.104 4.196,-1.386 2.802,-0.918 1.403,-0.456 0,0"
             style="fill:#ffffff;fill-opacity:1;fill-rule:nonzero;stroke:none"
             id="path3710"
             inkscape:connector-curvature="0" /></g><g
           id="g3712"
           transform="translate(172.3296,444.1538)"><path
             d="m 0,0 c 2.048,0.329 4.097,0.645 6.147,0.948 0.401,-2.686 3.226,-2.732 4.615,-2.607 1.151,0.161 2.761,0.638 2.583,1.984 -0.338,2.55 -12.869,-0.363 -14.192,7.73 -0.769,4.729 3.661,7.623 7.012,8.096 2.865,0.411 5.888,-0.07 7.554,-2.302 -0.003,0.912 -0.005,1.825 -0.006,2.738 1.955,0.251 3.912,0.49 5.87,0.718 0.313,-2.689 0.625,-5.377 0.938,-8.066 C 18.494,9.003 16.467,8.755 14.442,8.495 14.14,10.869 12.004,11.966 9.636,11.64 8.656,11.506 7.387,10.737 7.547,9.617 8.018,6.372 21.208,8.851 22.054,1.243 22.616,-3.769 18.071,-6.12 14.207,-6.642 10.923,-7.08 8.433,-5.909 6.975,-4.652 6.977,-5.492 6.979,-6.331 6.981,-7.169 5.084,-7.451 3.188,-7.744 1.293,-8.049 0.862,-5.366 0.431,-2.683 0,0"
             style="fill:#ffffff;fill-opacity:1;fill-rule:nonzero;stroke:none"
             id="path3714"
             inkscape:connector-curvature="0" /></g><g
           id="g3716"
           transform="translate(219.9907,443.3213)"><path
             d="m 0,0 c -0.65,-1.24 -2.605,-2.498 -5.122,-2.684 -5.701,-0.419 -10.655,3.513 -11.341,10.469 -0.696,7.018 4.017,12.347 9.389,12.741 4.976,0.362 6.277,-1.782 6.852,-2.26 0.192,0.789 0.385,1.579 0.578,2.368 1.703,0.101 3.406,0.194 5.109,0.278 0.157,-3.177 0.314,-6.354 0.471,-9.531 -2.008,-0.099 -4.015,-0.211 -6.022,-0.334 -0.259,2.609 -2.115,3.987 -4.117,3.848 -2.752,-0.191 -4.424,-3.183 -4.166,-6.407 0.264,-3.29 2.125,-5.799 4.998,-5.598 1.885,0.13 2.632,0.92 3.077,1.791 C -0.322,5.133 -0.351,5.585 -0.379,6.037 -1.056,5.995 -1.733,5.951 -2.41,5.905 -2.487,7.057 -2.564,8.208 -2.641,9.359 1.068,9.607 4.78,9.814 8.493,9.979 8.544,8.826 8.595,7.673 8.646,6.521 8.202,6.5 7.758,6.48 7.314,6.459 7.44,3.767 7.567,1.074 7.694,-1.619 5.51,-1.721 3.326,-1.839 1.143,-1.971 0.763,-1.314 0.382,-0.657 0,0"
             style="fill:#ffffff;fill-opacity:1;fill-rule:nonzero;stroke:none"
             id="path3718"
             inkscape:connector-curvature="0" /></g><g
           id="g3720"
           transform="translate(244.9316,453.4004)"><path
             d="m 0,0 c -0.04,3.913 -1.197,7.043 -3.822,6.996 -2.08,-0.007 -3.437,-2.892 -3.33,-6.901 0.113,-4.236 1.737,-6.878 3.851,-6.84 C -1.22,-6.708 0.041,-4.011 0,0 M -15.439,-0.187 C -15.761,6.788 -11.02,11.843 -3.88,11.978 4.564,12.121 8.451,7.289 8.387,0.022 8.323,-7.296 4.168,-11.697 -3.209,-11.823 c -6.823,-0.124 -11.861,3.553 -12.23,11.636"
             style="fill:#ffffff;fill-opacity:1;fill-rule:nonzero;stroke:none"
             id="path3722"
             inkscape:connector-curvature="0" /></g><g
           id="g3724"
           transform="translate(285.4121,455.2139)"><path
             d="m 0,0 c -1.651,0.116 -3.303,0.224 -4.954,0.323 0.083,1.378 0.166,2.756 0.249,4.134 -0.952,0.057 -1.904,0.111 -2.856,0.164 -0.254,-4.674 -0.509,-9.347 -0.765,-14.019 0.915,-0.05 1.829,-0.102 2.743,-0.158 -0.086,-1.431 -0.172,-2.862 -0.259,-4.294 -4.06,0.244 -8.123,0.437 -12.188,0.579 0.051,1.434 0.1,2.867 0.151,4.3 0.903,-0.031 1.807,-0.066 2.711,-0.102 0.189,4.676 0.378,9.352 0.568,14.028 -0.975,0.04 -1.95,0.076 -2.926,0.11 l -0.143,-4.138 c -1.653,0.057 -3.307,0.106 -4.96,0.147 0.069,2.802 0.138,5.605 0.208,8.408 C -14.746,9.292 -7.074,8.928 0.589,8.39 0.393,5.593 0.196,2.797 0,0"
             style="fill:#ffffff;fill-opacity:1;fill-rule:nonzero;stroke:none"
             id="path3726"
             inkscape:connector-curvature="0" /></g><g
           id="g3728"
           transform="translate(295.4609,453.1064)"><path
             d="M 0,0 C 0.503,-0.046 1.007,-0.092 1.51,-0.14 3.455,-0.322 4.82,0.449 4.993,2.154 5.185,4.053 4.163,5.133 2.194,5.319 1.628,5.373 1.063,5.425 0.498,5.477 0.332,3.651 0.166,1.826 0,0 m 3.034,9.464 c 7.945,-0.777 9.134,-3.962 8.713,-7.611 -0.29,-2.507 -2.566,-4.034 -5.377,-4.132 2.276,-0.562 4.126,-2.726 3.86,-5.039 -0.156,-1.383 -0.049,-2.209 0.543,-2.277 0.494,-0.056 0.803,0.299 0.877,0.941 0.041,0.353 0.082,0.707 0.124,1.06 0.738,-0.086 1.477,-0.173 2.215,-0.262 l -0.214,-1.767 c -0.325,-2.668 -1.767,-4.991 -5.381,-4.586 -4.267,0.47 -6.109,2.878 -5.746,6.649 0.287,2.927 -0.009,3.679 -2.976,3.952 -0.151,-1.665 -0.302,-3.329 -0.453,-4.994 0.67,-0.061 1.341,-0.123 2.011,-0.187 -0.135,-1.417 -0.27,-2.834 -0.404,-4.251 -3.519,0.335 -7.04,0.63 -10.564,0.888 0.103,1.419 0.207,2.839 0.311,4.258 0.616,-0.044 1.232,-0.091 1.848,-0.138 0.36,4.687 0.72,9.375 1.08,14.063 -0.634,0.048 -1.268,0.096 -1.902,0.142 0.103,1.409 0.206,2.818 0.309,4.226 3.711,-0.27 7.42,-0.582 11.126,-0.935"
             style="fill:#ffffff;fill-opacity:1;fill-rule:nonzero;stroke:none"
             id="path3730"
             inkscape:connector-curvature="0" /></g><g
           id="g3732"
           transform="translate(324.9971,446.9121)"><path
             d="M 0,0 C -0.379,2.414 -0.77,4.828 -1.17,7.241 -2.241,5.045 -3.301,2.846 -4.352,0.643 -2.9,0.436 -1.45,0.221 0,0 m -2.758,-10.02 c 0.21,1.397 0.419,2.794 0.628,4.191 1.039,-0.155 2.077,-0.315 3.115,-0.477 -0.116,0.761 -0.233,1.521 -0.352,2.281 -2.25,0.349 -4.502,0.682 -6.756,0.999 -0.333,-0.694 -0.665,-1.388 -0.996,-2.082 0.854,-0.119 1.707,-0.24 2.561,-0.363 -0.203,-1.398 -0.405,-2.797 -0.607,-4.195 -3.449,0.499 -6.902,0.961 -10.358,1.385 0.172,1.403 0.344,2.804 0.516,4.207 0.746,-0.092 1.491,-0.185 2.236,-0.28 2.078,4.507 4.198,9.002 6.361,13.484 -0.462,0.063 -0.924,0.125 -1.386,0.187 0.184,1.379 0.369,2.758 0.553,4.137 C -2.878,12.87 1.479,12.228 5.831,11.529 6.866,5.16 7.827,-1.209 8.714,-7.579 9.477,-7.71 10.24,-7.844 11.002,-7.98 c -0.247,-1.391 -0.494,-2.781 -0.741,-4.172 -4.332,0.77 -8.672,1.481 -13.019,2.132"
             style="fill:#ffffff;fill-opacity:1;fill-rule:nonzero;stroke:none"
             id="path3734"
             inkscape:connector-curvature="0" /></g><g
           id="g3736"
           transform="translate(350.9658,439.1035)"><path
             d="m 0,0 c 0.25,0.873 1.033,2.329 2.028,3.772 1.488,2.088 2.989,4.17 4.504,6.246 -0.591,0.128 -1.182,0.256 -1.773,0.382 0.293,1.371 0.587,2.742 0.881,4.113 3.194,-0.684 6.384,-1.4 9.568,-2.146 -0.32,-1.365 -0.64,-2.73 -0.959,-4.095 C 13.704,8.4 13.159,8.527 12.613,8.653 8.563,3.291 4.606,-2.115 0.745,-7.563 c -1.978,0.422 -3.958,0.833 -5.939,1.23 -1.647,6.588 -3.406,13.172 -5.278,19.749 -0.616,0.112 -1.232,0.223 -1.849,0.333 0.246,1.38 0.492,2.76 0.738,4.141 4.161,-0.742 8.314,-1.536 12.46,-2.382 l -0.84,-4.12 C -0.567,11.511 -1.17,11.633 -1.774,11.754 -1.298,9.195 -0.836,6.637 -0.389,4.078 -0.181,2.417 -0.045,0.935 -0.164,0.034 -0.109,0.022 -0.055,0.011 0,0"
             style="fill:#ffffff;fill-opacity:1;fill-rule:nonzero;stroke:none"
             id="path3738"
             inkscape:connector-curvature="0" /></g><g
           id="g3740"
           transform="translate(386.877,446.1543)"><path
             d="m 0,0 c -0.642,-2.295 -1.283,-4.59 -1.924,-6.885 -1.896,0.53 -3.796,1.048 -5.697,1.555 0.247,0.928 0.495,1.855 0.742,2.782 -1.769,0.472 -3.539,0.934 -5.312,1.386 -0.368,-1.442 -0.736,-2.884 -1.103,-4.326 2.086,-0.533 4.169,-1.078 6.25,-1.637 -0.373,-1.385 -0.745,-2.771 -1.117,-4.155 -2.063,0.554 -4.128,1.095 -6.196,1.623 -0.435,-1.703 -0.869,-3.406 -1.303,-5.11 1.722,-0.439 3.444,-0.888 5.163,-1.346 0.259,0.968 0.517,1.937 0.775,2.906 1.871,-0.499 3.739,-1.008 5.605,-1.53 -0.656,-2.347 -1.312,-4.694 -1.967,-7.041 -6.407,1.79 -12.842,3.445 -19.3,4.966 l 0.986,4.188 c 0.681,-0.16 1.361,-0.322 2.042,-0.485 1.092,4.55 2.184,9.101 3.276,13.652 -0.7,0.168 -1.399,0.334 -2.1,0.499 0.326,1.386 0.653,2.771 0.979,4.156 C -13.441,3.606 -6.707,1.874 0,0"
             style="fill:#ffffff;fill-opacity:1;fill-rule:nonzero;stroke:none"
             id="path3742"
             inkscape:connector-curvature="0" /></g><g
           id="g3744"
           transform="translate(399.0518,442.5884)"><path
             d="m 0,0 -1.251,-4.083 c -0.582,0.178 -1.163,0.355 -1.745,0.532 -1.355,-4.48 -2.71,-8.959 -4.066,-13.438 1.377,-0.417 2.752,-0.84 4.125,-1.268 0.408,1.307 0.816,2.614 1.225,3.922 1.804,-0.564 3.605,-1.138 5.404,-1.722 -0.866,-2.667 -1.733,-5.333 -2.599,-7.999 -5.894,1.915 -11.816,3.714 -17.761,5.397 l 1.171,4.139 c 0.589,-0.166 1.178,-0.334 1.767,-0.503 1.292,4.498 2.583,8.996 3.875,13.494 -0.606,0.174 -1.212,0.347 -1.818,0.518 l 1.163,4.109 C -6.999,2.104 -3.495,1.071 0,0"
             style="fill:#ffffff;fill-opacity:1;fill-rule:nonzero;stroke:none"
             id="path3746"
             inkscape:connector-curvature="0" /></g><g
           id="g3748"
           transform="translate(404.4395,174.0508)"><path
             d="m 0,0 c -0.8,-10.376 -3.594,-20.941 -8.826,-30.67 -2.007,-3.762 -4.382,-7.382 -7.075,-10.834 13.211,43.732 1.108,98.627 -7.043,126.84 0.978,-1.834 1.957,-3.703 2.934,-5.63 3.544,-6.994 7.012,-14.627 10.158,-22.894 3.11,-8.275 5.92,-17.196 7.813,-26.734 C -0.163,20.554 0.822,10.393 0,0 m -123.729,178.896 c -30.62,0.819 -64.026,-11.306 -93.66,-27.374 5.351,4.525 10.81,8.654 16.363,12.319 8.833,5.853 17.902,10.419 27.023,13.659 9.122,3.222 18.219,5.021 26.907,5.649 4.346,0.193 8.596,0.29 12.693,-0.093 2.057,-0.091 4.057,-0.429 6.042,-0.643 0.986,-0.146 1.957,-0.333 2.925,-0.496 0.969,-0.164 1.93,-0.324 2.869,-0.554 4.508,-0.965 8.761,-2.221 12.744,-3.676 -4.407,0.658 -9.033,1.079 -13.906,1.209 M -228.436,-22.111 c -14.013,5.37 -27.695,11.111 -40.643,17.564 -6.462,3.233 -12.751,6.647 -18.591,10.394 -2.913,1.872 -5.718,3.833 -8.252,5.907 -2.516,2.056 -4.833,4.297 -6.269,6.402 -0.729,1.036 -1.126,2.009 -1.233,2.56 -0.006,0.063 -0.03,0.132 -0.038,0.19 0.004,0.049 0,0.099 -0.012,0.148 l 0.063,0.764 c -0.018,0.467 0.167,1.254 0.282,1.94 0.089,0.676 0.323,1.465 0.509,2.219 l 0.288,1.139 0.359,1.168 0.732,2.34 0.838,2.356 c 2.276,6.289 5.065,12.506 8.013,18.554 0.263,0.537 0.535,1.068 0.801,1.603 17.047,-23.274 49.698,-54.734 85.033,-83.178 -7.289,2.517 -14.587,5.154 -21.88,7.93 M 4.186,31.445 c -2.38,9.894 -5.672,18.969 -9.231,27.309 -3.595,8.331 -7.48,15.934 -11.409,22.855 -3.649,6.424 -7.293,12.274 -10.823,17.598 -0.051,0.151 -0.103,0.303 -0.152,0.447 -0.847,2.483 -1.648,4.963 -2.437,7.454 -3.773,11.909 -20.263,54.338 -66.834,67.739 -1.323,0.775 -2.688,1.539 -4.105,2.285 -6.055,3.232 -13.021,6.094 -20.83,8.155 -0.969,0.286 -1.964,0.502 -2.967,0.721 -1.004,0.217 -2.013,0.46 -3.039,0.66 -2.064,0.324 -4.151,0.77 -6.306,0.968 -4.291,0.595 -8.765,0.701 -13.367,0.695 -9.197,-0.257 -18.916,-1.761 -28.68,-4.774 -4.857,-1.541 -9.794,-3.366 -14.646,-5.618 -2.418,-1.143 -4.893,-2.251 -7.259,-3.606 -1.2,-0.651 -2.405,-1.306 -3.617,-1.963 -1.208,-0.666 -2.362,-1.425 -3.556,-2.139 -9.501,-5.788 -18.72,-12.797 -27.606,-20.73 -6.821,-6.076 -13.428,-12.72 -19.832,-19.829 -27.687,-19.508 -47.504,-39.183 -50.797,-47.181 -1.709,-4.149 0.052,-10.491 4.503,-18.359 -1.337,-2.45 -2.657,-4.923 -3.942,-7.436 -3.189,-6.267 -6.218,-12.705 -8.83,-19.585 l -0.966,-2.598 -0.886,-2.691 -0.434,-1.356 -0.387,-1.424 c -0.251,-0.959 -0.53,-1.868 -0.714,-2.945 -0.193,-1.06 -0.436,-2.003 -0.508,-3.319 -0.045,-0.635 -0.109,-1.195 -0.117,-1.892 0.013,-0.395 0.033,-0.79 0.061,-1.184 0.038,-0.386 0.101,-0.754 0.16,-1.13 0.546,-2.956 1.759,-5.26 3.022,-7.179 2.584,-3.831 5.552,-6.576 8.563,-9.132 3.026,-2.527 6.153,-4.749 9.337,-6.839 6.372,-4.17 12.968,-7.805 19.696,-11.228 13.462,-6.812 27.448,-12.726 41.761,-18.214 18.722,-7.122 37.422,-13.275 55.963,-18.597 42.701,-30.904 84.15,-53.138 102.458,-47.73 22.507,6.652 37.734,19.074 47.717,34.635 0.328,0.222 0.655,0.446 0.974,0.7 l 0.591,0.459 0.463,0.4 c 10.001,8.318 18.282,18.401 23.743,29.493 5.51,11.072 8.172,22.927 8.628,34.195 0.48,11.301 -1.004,22.03 -3.363,31.91"
             style="fill:#368fd8;fill-opacity:1;fill-rule:nonzero;stroke:none"
             id="path3750"
             inkscape:connector-curvature="0" /></g><g
           id="g3752"
           transform="translate(179.6636,340.8662)"><path
             d="m 0,0 c -1.138,-0.699 -2.275,-0.915 -2.541,-0.482 -0.266,0.432 0.442,1.348 1.58,2.047 1.137,0.7 2.274,0.915 2.54,0.483 C 1.845,1.616 1.138,0.699 0,0"
             style="fill:#404851;fill-opacity:1;fill-rule:nonzero;stroke:none"
             id="path3754"
             inkscape:connector-curvature="0" /></g><g
           id="g3756"
           transform="translate(176.5298,354.6221)"><path
             d="M 0,0 C -1.139,-0.699 -2.276,-0.915 -2.542,-0.482 -2.807,-0.05 -2.1,0.867 -0.962,1.566 0.176,2.265 1.313,2.481 1.579,2.048 1.844,1.616 1.138,0.699 0,0"
             style="fill:#404851;fill-opacity:1;fill-rule:nonzero;stroke:none"
             id="path3758"
             inkscape:connector-curvature="0" /></g><g
           id="g3760"
           transform="translate(142.5771,401.2441)"><path
             d="m 0,0 c -1.138,-0.699 -1.844,-1.616 -1.579,-2.049 0.266,-0.432 1.403,-0.216 2.54,0.483 C 2.1,-0.867 2.807,0.05 2.541,0.482 2.276,0.914 1.138,0.699 0,0"
             style="fill:#404851;fill-opacity:1;fill-rule:nonzero;stroke:none"
             id="path3762"
             inkscape:connector-curvature="0" /></g><g
           id="g3764"
           transform="translate(153.3882,392.2979)"><path
             d="m 0,0 c -1.138,-0.699 -1.845,-1.617 -1.58,-2.048 0.267,-0.433 1.404,-0.217 2.541,0.482 C 2.1,-0.867 2.807,0.05 2.541,0.481 2.275,0.915 1.138,0.698 0,0"
             style="fill:#404851;fill-opacity:1;fill-rule:nonzero;stroke:none"
             id="path3766"
             inkscape:connector-curvature="0" /></g><g
           id="g3768"
           transform="translate(177.8599,326.7432)"><path
             d="m 0,0 -5.234,-3.215 -10.912,19.515 -0.449,0.805 -6.174,11.043 -2.022,3.616 c -10.522,-5.61 -20.936,-10.667 -28.041,-13.41 l 0.02,-12.44 -5.759,-3.538 -3.223,14.25 -11.26,9.314 5.762,3.539 11.086,-5.639 c 5.657,5.1 14.875,12.101 24.637,18.96 l -13.91,20.674 -0.855,1.273 -1.549,2.299 -0.734,1.092 -5.321,7.909 5.231,3.219 6.416,-5.117 1.845,-1.473 3.234,1.987 c 0.956,0.587 2.212,0.287 2.798,-0.669 0.59,-0.959 0.288,-2.212 -0.669,-2.799 l -1.975,-1.218 2.391,-1.904 5.296,-4.224 3.006,1.846 c 0.959,0.589 2.215,0.288 2.802,-0.667 0.589,-0.959 0.289,-2.215 -0.67,-2.804 l -1.753,-1.078 9.904,-7.898 c 2.314,1.494 4.569,2.916 6.712,4.231 21.724,13.354 26.265,7.499 26.265,7.499 0,0 3.171,-6.692 -18.557,-20.047 -2.143,-1.316 -4.429,-2.68 -6.808,-4.068 l 0.879,-4.232 0.075,-0.367 1.62,-7.812 1.752,1.081 c 0.959,0.589 2.212,0.287 2.804,-0.67 0.587,-0.956 0.287,-2.212 -0.672,-2.801 l -3.007,-1.847 0.559,-2.69 1.438,-6.939 1.978,1.216 c 0.956,0.587 2.21,0.29 2.799,-0.669 0.589,-0.96 0.29,-2.21 -0.669,-2.798 l -3.229,-1.988 z"
             style="fill:#fff8e1;fill-opacity:1;fill-rule:nonzero;stroke:none"
             id="path3770"
             inkscape:connector-curvature="0" /></g><g
           id="g3772"
           transform="translate(185.1562,389.4033)"><path
             d="m 0,0 c -0.816,0.109 -1.676,-0.035 -2.437,-0.697 0,0 1.201,-0.227 2.506,-1.279 0.713,-0.575 1.21,-1.384 1.4,-2.279 0.349,-1.64 0.009,-2.815 0.009,-2.815 0.934,0.38 1.451,1.082 1.724,1.86 C 4.013,-2.888 2.439,-0.326 0,0"
             style="fill:#282f39;fill-opacity:1;fill-rule:nonzero;stroke:none"
             id="path3774"
             inkscape:connector-curvature="0" /></g><g
           id="g3776"
           transform="translate(123.6782,347.0801)"><path
             d="m 0,0 c -3.231,-1.985 -6.045,-3.278 -6.285,-2.888 -0.24,0.39 2.185,2.316 5.416,4.301 C 2.363,3.397 5.177,4.69 5.417,4.3 5.656,3.91 3.231,1.984 0,0"
             style="fill:#c5ced7;fill-opacity:1;fill-rule:nonzero;stroke:none"
             id="path3778"
             inkscape:connector-curvature="0" /></g><g
           id="g3780"
           transform="translate(180.3667,350.0845)"><path
             d="M 0,0 -7.111,11.578 -7.647,11.249 -0.536,-0.329 Z"
             style="fill:#c5ced7;fill-opacity:1;fill-rule:nonzero;stroke:none"
             id="path3782"
             inkscape:connector-curvature="0" /></g><g
           id="g3784"
           transform="translate(183.4878,336.2256)"><path
             d="M 0,0 -7.111,11.578 -7.647,11.249 -0.536,-0.329 Z"
             style="fill:#c5ced7;fill-opacity:1;fill-rule:nonzero;stroke:none"
             id="path3786"
             inkscape:connector-curvature="0" /></g><g
           id="g3788"
           transform="translate(151.1182,397.7031)"><path
             d="M 0,0 7.111,-11.578 6.575,-11.907 -0.536,-0.329 Z"
             style="fill:#c5ced7;fill-opacity:1;fill-rule:nonzero;stroke:none"
             id="path3790"
             inkscape:connector-curvature="0" /></g><g
           id="g3792"
           transform="translate(140.1685,406.7529)"><path
             d="m 0,0 7.111,-11.577 -0.536,-0.33 -7.111,11.578 z"
             style="fill:#c5ced7;fill-opacity:1;fill-rule:nonzero;stroke:none"
             id="path3794"
             inkscape:connector-curvature="0" /></g><g
           id="g3796"
           transform="translate(170.2686,363.3745)"><path
             d="m 0,0 -15.178,-8.483 -2.022,3.616 c 3.125,1.646 16.322,9.098 16.322,9.098 z"
             style="fill:#c5ced7;fill-opacity:1;fill-rule:nonzero;stroke:none"
             id="path3798"
             inkscape:connector-curvature="0" /></g><g
           id="g3800"
           transform="translate(143.1929,394.8159)"><path
             d="m 0,0 -10.813,-4.599 -0.854,1.273 9.276,5.23 z"
             style="fill:#c5ced7;fill-opacity:1;fill-rule:nonzero;stroke:none"
             id="path3802"
             inkscape:connector-curvature="0" /></g><g
           id="g3804"
           transform="translate(173.3999,348.2686)"><path
             d="m 0,0 -11.686,-5.225 -0.449,0.805 11.576,7.11 z"
             style="fill:#c5ced7;fill-opacity:1;fill-rule:nonzero;stroke:none"
             id="path3806"
             inkscape:connector-curvature="0" /></g><g
           id="g3808"
           transform="translate(168.8145,382.7935)"><path
             d="M 0,0 C -0.162,0.264 -0.088,0.612 0.173,0.786 1.601,1.74 2.443,2.298 2.443,2.298 2.711,2.475 3.071,2.403 3.248,2.136 3.42,1.875 3.352,1.509 3.085,1.332 c 0,0 -0.842,-0.56 -2.268,-1.512 C 0.55,-0.358 0.19,-0.286 0.012,-0.019 0.008,-0.013 0.004,-0.007 0,0 m -4.511,-3.022 c -0.162,0.264 -0.088,0.611 0.171,0.786 l 2.255,1.512 c 0.266,0.178 0.626,0.106 0.805,-0.159 0.18,-0.281 0.107,-0.627 -0.159,-0.805 l -2.254,-1.513 c -0.266,-0.178 -0.626,-0.108 -0.805,0.159 -0.004,0.006 -0.009,0.013 -0.013,0.02 m -4.5,-3.036 c -0.161,0.263 -0.089,0.609 0.17,0.783 0.772,0.523 1.523,1.031 2.249,1.521 0.266,0.179 0.626,0.109 0.806,-0.157 0.184,-0.268 0.108,-0.626 -0.156,-0.806 -0.726,-0.489 -1.477,-0.996 -2.249,-1.519 -0.265,-0.179 -0.626,-0.11 -0.806,0.155 -0.004,0.008 -0.009,0.015 -0.014,0.023 m -4.489,-3.05 c -0.161,0.262 -0.089,0.607 0.167,0.782 0.756,0.515 1.505,1.026 2.244,1.528 0.265,0.18 0.627,0.111 0.807,-0.154 0.178,-0.263 0.111,-0.625 -0.155,-0.805 -0.737,-0.502 -1.487,-1.013 -2.241,-1.528 -0.265,-0.18 -0.626,-0.112 -0.806,0.153 -0.006,0.008 -0.012,0.015 -0.016,0.024 m -4.475,-3.071 c -0.16,0.262 -0.09,0.607 0.165,0.782 0.744,0.513 1.492,1.026 2.239,1.54 0.264,0.182 0.626,0.114 0.807,-0.15 0.18,-0.264 0.114,-0.626 -0.15,-0.807 -0.747,-0.513 -1.494,-1.026 -2.236,-1.539 -0.265,-0.181 -0.626,-0.115 -0.808,0.149 -0.005,0.009 -0.011,0.017 -0.017,0.025 m -4.457,-3.095 c -0.159,0.259 -0.091,0.601 0.162,0.778 0.728,0.51 1.473,1.029 2.227,1.554 0.264,0.183 0.626,0.118 0.808,-0.145 0.189,-0.275 0.117,-0.625 -0.145,-0.808 -0.754,-0.523 -1.497,-1.042 -2.224,-1.551 -0.263,-0.184 -0.625,-0.12 -0.809,0.142 -0.006,0.01 -0.012,0.019 -0.019,0.03 m -4.429,-3.139 c -0.157,0.257 -0.092,0.595 0.156,0.774 0.705,0.508 1.446,1.035 2.213,1.579 0.262,0.185 0.624,0.123 0.809,-0.138 0.189,-0.265 0.123,-0.624 -0.138,-0.809 -0.765,-0.542 -1.503,-1.068 -2.206,-1.575 -0.26,-0.186 -0.622,-0.127 -0.809,0.133 -0.009,0.012 -0.017,0.024 -0.025,0.036 m -4.364,-3.229 c -0.153,0.25 -0.096,0.58 0.141,0.764 0.627,0.483 1.361,1.034 2.18,1.638 0.258,0.19 0.621,0.136 0.811,-0.123 0.19,-0.252 0.135,-0.621 -0.123,-0.812 -0.812,-0.598 -1.539,-1.144 -2.16,-1.622 -0.253,-0.196 -0.617,-0.15 -0.813,0.104 -0.013,0.018 -0.025,0.034 -0.036,0.051"
             style="fill:#c5ced7;fill-opacity:1;fill-rule:nonzero;stroke:none"
             id="path3810"
             inkscape:connector-curvature="0" /></g><g
           id="g3812"
           transform="translate(175.1162,372.5342)"><path
             d="M 0,0 C -0.157,0.279 -0.058,0.633 0.221,0.791 1.715,1.632 2.594,2.13 2.594,2.13 2.874,2.289 3.23,2.184 3.385,1.913 3.543,1.632 3.445,1.279 3.167,1.121 c 0,0 -0.88,-0.498 -2.375,-1.342 C 0.518,-0.374 0.174,-0.284 0.012,-0.019 0.007,-0.013 0.004,-0.006 0,0 m -4.735,-2.656 c -0.157,0.28 -0.057,0.634 0.222,0.79 l 2.367,1.326 c 0.28,0.157 0.624,0.065 0.791,-0.222 0.157,-0.279 0.057,-0.633 -0.222,-0.79 l -2.368,-1.327 c -0.273,-0.152 -0.617,-0.062 -0.778,0.202 -0.005,0.007 -0.008,0.014 -0.012,0.021 m -4.744,-2.639 c -0.156,0.28 -0.055,0.633 0.226,0.789 0.814,0.452 1.607,0.893 2.371,1.318 0.28,0.156 0.633,0.062 0.789,-0.225 0.156,-0.279 0.055,-0.633 -0.224,-0.789 -0.766,-0.426 -1.558,-0.866 -2.374,-1.318 -0.272,-0.152 -0.613,-0.061 -0.775,0.203 -0.005,0.007 -0.009,0.014 -0.013,0.022 m -4.751,-2.623 c -0.155,0.281 -0.052,0.634 0.229,0.788 0.8,0.44 1.594,0.878 2.375,1.309 0.28,0.155 0.634,0.052 0.788,-0.227 0.155,-0.281 0.053,-0.633 -0.227,-0.788 -0.782,-0.432 -1.577,-0.87 -2.377,-1.311 -0.272,-0.15 -0.613,-0.058 -0.774,0.204 -0.005,0.008 -0.01,0.016 -0.014,0.025 m -4.763,-2.602 c -0.153,0.283 -0.049,0.635 0.233,0.788 0.792,0.431 1.589,0.864 2.383,1.299 0.281,0.155 0.633,0.049 0.787,-0.231 0.155,-0.28 0.051,-0.633 -0.23,-0.787 -0.796,-0.435 -1.593,-0.87 -2.386,-1.301 -0.272,-0.148 -0.611,-0.055 -0.771,0.206 -0.006,0.009 -0.011,0.018 -0.016,0.026 m -4.779,-2.571 c -0.151,0.283 -0.044,0.634 0.239,0.785 0.783,0.418 1.581,0.847 2.389,1.283 0.282,0.151 0.627,0.057 0.786,-0.236 0.152,-0.282 0.046,-0.634 -0.235,-0.786 -0.81,-0.436 -1.61,-0.865 -2.394,-1.285 -0.273,-0.145 -0.608,-0.051 -0.767,0.209 -0.006,0.009 -0.013,0.019 -0.018,0.03 m -4.805,-2.524 c -0.148,0.285 -0.036,0.635 0.248,0.782 0.769,0.398 1.572,0.818 2.401,1.256 0.283,0.149 0.633,0.045 0.784,-0.243 0.149,-0.283 0.041,-0.634 -0.242,-0.784 -0.832,-0.438 -1.638,-0.86 -2.409,-1.259 -0.272,-0.141 -0.603,-0.047 -0.761,0.21 -0.007,0.013 -0.015,0.026 -0.021,0.038 m -4.862,-2.416 c -0.138,0.289 -0.015,0.635 0.275,0.773 0.707,0.338 1.522,0.738 2.424,1.193 0.286,0.144 0.64,0.026 0.779,-0.257 0.144,-0.287 0.029,-0.636 -0.257,-0.78 -0.909,-0.458 -1.732,-0.862 -2.448,-1.203 -0.27,-0.129 -0.59,-0.03 -0.743,0.219 -0.01,0.018 -0.021,0.036 -0.03,0.055"
             style="fill:#c5ced7;fill-opacity:1;fill-rule:nonzero;stroke:none"
             id="path3814"
             inkscape:connector-curvature="0" /></g><g
           id="g3816"
           transform="translate(104.8188,334.687)"><path
             d="M 0,0 C -0.305,0.016 -0.599,0.167 -0.788,0.436 -1.117,0.901 -1.005,1.545 -0.54,1.873 1.146,3.062 2.885,4.235 4.631,5.36 5.111,5.668 5.749,5.53 6.058,5.051 6.366,4.572 6.228,3.934 5.75,3.625 4.027,2.516 2.311,1.358 0.649,0.187 0.452,0.048 0.224,-0.012 0,0 m -9.799,-7.562 c -0.274,0.014 -0.542,0.137 -0.733,0.363 -0.367,0.435 -0.314,1.086 0.122,1.454 1.566,1.324 3.198,2.642 4.85,3.917 0.452,0.348 1.1,0.264 1.448,-0.187 0.348,-0.451 0.264,-1.099 -0.187,-1.447 -1.629,-1.256 -3.236,-2.555 -4.779,-3.859 -0.209,-0.176 -0.467,-0.255 -0.721,-0.241 m -9.044,-8.456 c -0.239,0.013 -0.474,0.108 -0.659,0.288 -0.412,0.394 -0.424,1.048 -0.029,1.459 1.416,1.47 2.915,2.944 4.455,4.381 0.416,0.389 1.069,0.367 1.457,-0.049 0.389,-0.417 0.367,-1.07 -0.05,-1.458 -1.512,-1.413 -2.984,-2.861 -4.375,-4.305 -0.217,-0.225 -0.51,-0.331 -0.799,-0.316 m -8.02,-9.435 c -0.195,0.01 -0.389,0.077 -0.558,0.201 -0.458,0.339 -0.554,0.986 -0.216,1.443 1.213,1.637 2.526,3.286 3.903,4.903 0.368,0.433 1.019,0.486 1.454,0.116 0.434,-0.37 0.486,-1.021 0.116,-1.455 -1.346,-1.581 -2.629,-3.193 -3.813,-4.792 -0.215,-0.289 -0.551,-0.434 -0.886,-0.416 m -6.535,-10.5 c -0.14,0.007 -0.278,0.043 -0.41,0.11 -0.509,0.258 -0.713,0.878 -0.455,1.386 0.919,1.818 1.959,3.658 3.091,5.469 0.303,0.483 0.94,0.63 1.422,0.327 0.484,-0.301 0.63,-0.938 0.329,-1.421 -1.1,-1.758 -2.11,-3.543 -3.001,-5.306 -0.19,-0.377 -0.58,-0.586 -0.976,-0.565 m -4.367,-11.559 c -0.065,0.004 -0.131,0.014 -0.197,0.03 -0.552,0.138 -0.889,0.698 -0.75,1.251 0.499,1.996 1.136,4.02 1.897,6.016 0.202,0.532 0.801,0.799 1.331,0.597 0.532,-0.202 0.8,-0.799 0.597,-1.331 -0.731,-1.92 -1.344,-3.866 -1.823,-5.782 -0.123,-0.488 -0.572,-0.807 -1.055,-0.781 m -1.376,-12.259 c -0.531,0.029 -0.96,0.461 -0.975,1.002 -0.033,1.199 -0.017,2.414 0.047,3.615 0.048,0.901 0.124,1.813 0.227,2.71 0.064,0.566 0.563,0.981 1.142,0.908 0.566,-0.065 0.972,-0.576 0.908,-1.142 -0.098,-0.856 -0.17,-1.726 -0.216,-2.587 -0.062,-1.145 -0.077,-2.304 -0.046,-3.447 0.016,-0.57 -0.433,-1.044 -1.003,-1.06 -0.028,0 -0.056,0 -0.084,10e-4 m 1.588,-12.261 c -0.452,0.025 -0.85,0.345 -0.952,0.807 -0.454,2.046 -0.82,4.127 -1.089,6.185 -0.073,0.565 0.325,1.083 0.89,1.157 0.564,0.076 1.082,-0.325 1.157,-0.89 0.26,-1.998 0.616,-4.018 1.056,-6.004 0.124,-0.557 -0.228,-1.108 -0.783,-1.231 -0.094,-0.021 -0.188,-0.029 -0.279,-0.024 m 3.678,-11.804 c -0.388,0.02 -0.748,0.259 -0.902,0.645 -0.785,1.944 -1.495,3.931 -2.112,5.903 -0.17,0.545 0.134,1.123 0.678,1.293 0.544,0.17 1.122,-0.133 1.292,-0.677 0.6,-1.92 1.291,-3.853 2.056,-5.747 0.213,-0.528 -0.042,-1.129 -0.571,-1.343 -0.145,-0.058 -0.295,-0.082 -0.441,-0.074 m 5.483,-11.084 c -0.333,0.017 -0.652,0.197 -0.834,0.504 -1.064,1.803 -2.067,3.655 -2.985,5.508 -0.253,0.51 -0.044,1.129 0.467,1.382 0.511,0.254 1.13,0.044 1.382,-0.466 0.896,-1.808 1.875,-3.615 2.913,-5.374 0.289,-0.491 0.126,-1.124 -0.365,-1.413 -0.181,-0.108 -0.382,-0.152 -0.578,-0.141 m 6.994,-10.203 c -0.287,0.015 -0.565,0.15 -0.756,0.392 -1.298,1.647 -2.546,3.343 -3.709,5.037 -0.323,0.47 -0.203,1.113 0.267,1.435 0.468,0.322 1.112,0.203 1.434,-0.267 1.139,-1.657 2.359,-3.315 3.629,-4.928 0.352,-0.448 0.275,-1.096 -0.173,-1.449 -0.205,-0.161 -0.451,-0.233 -0.692,-0.22 m 8.25,-9.222 c -0.243,0.012 -0.483,0.111 -0.67,0.297 -1.485,1.465 -2.936,2.99 -4.312,4.527 -0.38,0.425 -0.345,1.077 0.081,1.457 0.423,0.382 1.076,0.347 1.456,-0.081 1.349,-1.506 2.77,-2.999 4.225,-4.436 0.406,-0.4 0.41,-1.053 0.009,-1.46 -0.216,-0.217 -0.506,-0.32 -0.789,-0.304 m 9.303,-8.161 c -0.202,0.01 -0.405,0.081 -0.576,0.215 -1.643,1.278 -3.265,2.618 -4.82,3.982 -0.429,0.376 -0.472,1.028 -0.095,1.457 0.376,0.429 1.028,0.468 1.455,0.096 1.526,-1.339 3.116,-2.653 4.726,-3.905 0.45,-0.35 0.53,-0.999 0.181,-1.449 -0.216,-0.277 -0.545,-0.414 -0.871,-0.396 m 10.191,-7.027 c -0.166,0.01 -0.332,0.059 -0.483,0.151 -1.098,0.672 -2.187,1.362 -3.266,2.069 -0.662,0.435 -1.321,0.877 -1.975,1.328 -0.47,0.323 -0.588,0.965 -0.265,1.435 0.323,0.467 0.966,0.585 1.435,0.263 0.641,-0.442 1.286,-0.876 1.936,-1.3 1.062,-0.698 2.133,-1.373 3.213,-2.035 0.485,-0.297 0.639,-0.934 0.341,-1.419 -0.205,-0.334 -0.57,-0.511 -0.936,-0.492 m 10.86,-5.935 c -0.134,0.007 -0.269,0.039 -0.396,0.103 -1.879,0.914 -3.743,1.876 -5.544,2.86 -0.499,0.274 -0.683,0.9 -0.41,1.399 0.273,0.502 0.899,0.683 1.4,0.412 1.772,-0.969 3.608,-1.916 5.457,-2.816 0.513,-0.25 0.726,-0.868 0.475,-1.38 -0.186,-0.384 -0.581,-0.6 -0.982,-0.578 m 11.347,-4.944 c -0.106,0.006 -0.214,0.028 -0.319,0.069 -1.955,0.759 -3.894,1.555 -5.763,2.368 -0.522,0.227 -0.762,0.836 -0.534,1.358 0.227,0.523 0.834,0.761 1.358,0.534 1.842,-0.801 3.755,-1.587 5.686,-2.336 0.531,-0.206 0.794,-0.803 0.588,-1.336 -0.165,-0.425 -0.583,-0.68 -1.016,-0.657 m 11.697,-4.048 c -0.083,0.004 -0.167,0.018 -0.25,0.043 -1.991,0.614 -3.982,1.262 -5.918,1.931 -0.538,0.187 -0.824,0.776 -0.638,1.312 0.186,0.54 0.773,0.823 1.313,0.638 1.913,-0.661 3.882,-1.303 5.85,-1.909 0.545,-0.168 0.85,-0.744 0.683,-1.289 -0.143,-0.463 -0.579,-0.751 -1.04,-0.726 m 11.938,-3.277 c -0.063,0.004 -0.127,0.012 -0.191,0.029 -2.035,0.495 -4.06,1.017 -6.021,1.554 -0.55,0.151 -0.873,0.719 -0.723,1.269 0.151,0.549 0.722,0.874 1.268,0.722 1.941,-0.531 3.948,-1.05 5.965,-1.542 0.553,-0.133 0.893,-0.692 0.758,-1.246 -0.119,-0.489 -0.571,-0.811 -1.056,-0.786 m 12.099,-2.627 c -0.046,0.002 -0.094,0.008 -0.141,0.017 -2.044,0.393 -4.093,0.812 -6.089,1.244 -0.557,0.121 -0.911,0.671 -0.79,1.228 0.12,0.556 0.673,0.915 1.226,0.79 1.981,-0.43 4.014,-0.844 6.043,-1.236 0.56,-0.107 0.925,-0.647 0.818,-1.208 -0.099,-0.512 -0.561,-0.862 -1.067,-0.835 m 12.203,-2.1 c -0.033,0.002 -0.067,0.006 -0.101,0.01 -2.044,0.314 -4.088,0.644 -6.131,0.995 -0.561,0.095 -0.939,0.628 -0.842,1.19 0.096,0.563 0.636,0.943 1.19,0.843 2.031,-0.348 4.062,-0.677 6.095,-0.988 0.564,-0.086 0.949,-0.612 0.863,-1.175 -0.08,-0.53 -0.549,-0.904 -1.074,-0.875"
             style="fill:#ffffff;fill-opacity:1;fill-rule:nonzero;stroke:none"
             id="path3818"
             inkscape:connector-curvature="0" /></g><g
           id="g3820"
           transform="translate(412.9248,67.666)"><path
             d="M 0,0 C 0,0 -72.736,-16.792 -162.46,-16.792 -252.184,-16.792 -324.919,0 -324.919,0 c 0,0 72.735,16.791 162.459,16.791 C -72.736,16.791 0,0 0,0"
             style="fill:#368fd8;fill-opacity:1;fill-rule:nonzero;stroke:none"
             id="path3822"
             inkscape:connector-curvature="0" /></g><g
           id="g3824"
           transform="translate(383.582,70.5254)"><path
             d="m 0,0 h -113.401 c -7.532,0 -13.638,6.105 -13.638,13.637 v 161.781 c 0,7.531 6.106,13.636 13.638,13.636 H 0 c 7.532,0 13.637,-6.105 13.637,-13.636 V 13.637 C 13.637,6.105 7.532,0 0,0"
             style="fill:#d8761d;fill-opacity:1;fill-rule:nonzero;stroke:none"
             id="path3826"
             inkscape:connector-curvature="0" /></g><g
           id="g3828"
           transform="translate(284.9404,192.6953)"><path
             d="m 0,0 c 32.018,24.83 72.935,36.554 112.278,32.376 v 20.872 c 0,7.531 -6.105,13.636 -13.636,13.636 H -14.76 c -7.531,0 -13.637,-6.105 -13.637,-13.636 V -37.38 C -22.885,-22.324 -12.747,-9.729 0,0"
             style="fill:#e88636;fill-opacity:1;fill-rule:nonzero;stroke:none"
             id="path3830"
             inkscape:connector-curvature="0" /></g><path
           d="m 292.408,65.893 h -21.016 v 4.633 h 21.016 z"
           style="fill:#282f39;fill-opacity:1;fill-rule:nonzero;stroke:none"
           id="path3832"
           inkscape:connector-curvature="0" /><path
           d="m 382.37,65.893 h -21.015 v 4.633 h 21.015 z"
           style="fill:#282f39;fill-opacity:1;fill-rule:nonzero;stroke:none"
           id="path3834"
           inkscape:connector-curvature="0" /><g
           id="g3836"
           transform="translate(382.3701,70.5254)"><path
             d="m 0,0 h -110.978 v 104.49 c 0,6.566 5.322,11.886 11.885,11.886 h 87.208 C -5.321,116.376 0,111.056 0,104.49 Z"
             style="fill:#8e3d00;fill-opacity:1;fill-rule:nonzero;stroke:none"
             id="path3838"
             inkscape:connector-curvature="0" /></g><g
           id="g3840"
           transform="translate(380.1812,70.5254)"><path
             d="m 0,0 h -106.6 v 103.186 c 0,6.066 4.918,10.985 10.984,10.985 h 84.632 C -4.917,114.171 0,109.252 0,103.186 Z"
             style="fill:#af550b;fill-opacity:1;fill-rule:nonzero;stroke:none"
             id="path3842"
             inkscape:connector-curvature="0" /></g><g
           id="g3844"
           transform="translate(368.9199,166.5801)"><path
             d="m 0,0 h -84.078 c -0.472,0 -0.855,0.383 -0.855,0.855 0,0.473 0.383,0.857 0.855,0.857 H 0 C 0.472,1.712 0.856,1.328 0.856,0.855 0.856,0.383 0.472,0 0,0"
             style="fill:#d3d3d3;fill-opacity:1;fill-rule:nonzero;stroke:none"
             id="path3846"
             inkscape:connector-curvature="0" /></g><path
           d="m 287.729,165.669 h -1.368 v 1.26 h 1.368 z m 0.288,1.767 h -1.943 l -0.309,-3.525 c -0.066,-0.751 0.526,-1.398 1.28,-1.398 0.755,0 1.347,0.647 1.281,1.398 z"
           style="fill:#e5e5e5;fill-opacity:1;fill-rule:nonzero;stroke:none"
           id="path3848"
           inkscape:connector-curvature="0" /><g
           id="g3850"
           transform="translate(287.0454,166.1738)"><path
             d="m 0,0 v 0 c -0.164,0 -0.297,0.133 -0.297,0.297 v 1.159 c 0,0.165 0.133,0.298 0.297,0.298 0.164,0 0.297,-0.133 0.297,-0.298 V 0.297 C 0.297,0.133 0.164,0 0,0"
             style="fill:#bcb7b3;fill-opacity:1;fill-rule:nonzero;stroke:none"
             id="path3852"
             inkscape:connector-curvature="0" /></g><g
           id="g3854"
           transform="translate(377.0347,212.3066)"><path
             d="m 0,0 h -100.307 c -2.946,0 -5.336,2.39 -5.336,5.336 v 17.525 c 0,2.948 2.39,5.337 5.336,5.337 L 0,28.198 c 2.947,0 5.335,-2.389 5.335,-5.337 V 5.336 C 5.335,2.39 2.947,0 0,0"
             style="fill:#8e3d00;fill-opacity:1;fill-rule:nonzero;stroke:none"
             id="path3856"
             inkscape:connector-curvature="0" /></g><g
           id="g3858"
           transform="translate(376.8506,214.417)"><path
             d="m 0,0 h -99.939 c -1.839,0 -3.331,1.491 -3.331,3.329 v 17.318 c 0,1.84 1.492,3.332 3.331,3.332 H 0 c 1.839,0 3.331,-1.492 3.331,-3.332 V 3.329 C 3.331,1.491 1.839,0 0,0"
             style="fill:#af550b;fill-opacity:1;fill-rule:nonzero;stroke:none"
             id="path3860"
             inkscape:connector-curvature="0" /></g><g
           id="g3862"
           transform="translate(368.9199,227.584)"><path
             d="m 0,0 h -84.078 c -0.472,0 -0.855,0.383 -0.855,0.855 0,0.473 0.383,0.856 0.855,0.856 L 0,1.711 C 0.472,1.711 0.856,1.328 0.856,0.855 0.856,0.383 0.472,0 0,0"
             style="fill:#d3d3d3;fill-opacity:1;fill-rule:nonzero;stroke:none"
             id="path3864"
             inkscape:connector-curvature="0" /></g><path
           d="m 287.729,226.674 h -1.368 v 1.259 h 1.368 z m 0.288,1.765 h -1.943 l -0.309,-3.524 c -0.066,-0.752 0.526,-1.398 1.28,-1.398 0.755,0 1.347,0.646 1.281,1.398 z"
           style="fill:#e5e5e5;fill-opacity:1;fill-rule:nonzero;stroke:none"
           id="path3866"
           inkscape:connector-curvature="0" /><g
           id="g3868"
           transform="translate(287.0454,227.1768)"><path
             d="m 0,0 v 0 c -0.164,0 -0.297,0.133 -0.297,0.298 v 1.159 c 0,0.164 0.133,0.297 0.297,0.297 0.164,0 0.297,-0.133 0.297,-0.297 V 0.298 C 0.297,0.133 0.164,0 0,0"
             style="fill:#bcb7b3;fill-opacity:1;fill-rule:nonzero;stroke:none"
             id="path3870"
             inkscape:connector-curvature="0" /></g><path
           d="m 256.543,96.926 h -4.854 v 9.928 h 4.854 z"
           style="fill:#282f39;fill-opacity:1;fill-rule:nonzero;stroke:none"
           id="path3872"
           inkscape:connector-curvature="0" /><path
           d="m 256.543,223.251 h -4.854 v 9.928 h 4.854 z"
           style="fill:#282f39;fill-opacity:1;fill-rule:nonzero;stroke:none"
           id="path3874"
           inkscape:connector-curvature="0" /><g
           id="g3876"
           transform="translate(397.2187,181.4385)"><path
             d="m 0,0 v -5.869 c 1.279,0 2.316,-2.184 2.316,-4.877 v -11.28 c 0,-2.694 -1.037,-4.877 -2.316,-4.877 v -5.869 c 2.819,0 5.104,4.811 5.104,10.746 v 11.28 C 5.104,-4.812 2.819,0 0,0"
             style="fill:#282f39;fill-opacity:1;fill-rule:nonzero;stroke:none"
             id="path3878"
             inkscape:connector-curvature="0" /></g><g
           id="g3880"
           transform="translate(365.7271,326.2754)"><path
             d="M 0,0 C 0,9.798 -7.943,17.741 -17.741,17.741 H -59.599 C -69.397,17.741 -77.34,9.798 -77.34,0 v -8.784 h 10.349 v 5.793 c 0,5.624 4.56,10.184 10.184,10.184 h 36.274 c 5.624,0 10.184,-4.56 10.184,-10.184 V -8.784 H 0 Z"
             style="fill:#282f39;fill-opacity:1;fill-rule:nonzero;stroke:none"
             id="path3882"
             inkscape:connector-curvature="0" /></g><path
           d="m 357.277,259.579 h 6.348 v 57.912 h -6.348 z"
           style="fill:#d3d3d3;fill-opacity:1;fill-rule:nonzero;stroke:none"
           id="path3884"
           inkscape:connector-curvature="0" /><path
           d="m 290.489,259.579 h 6.347 v 57.912 h -6.347 z"
           style="fill:#d3d3d3;fill-opacity:1;fill-rule:nonzero;stroke:none"
           id="path3886"
           inkscape:connector-curvature="0" /><path
           d="m 363.625,317.491 h -6.348 v -7.485 h 6.348 z"
           style="fill:#bcb7b3;fill-opacity:1;fill-rule:nonzero;stroke:none"
           id="path3888"
           inkscape:connector-curvature="0" /><path
           d="m 296.836,317.491 h -6.347 v -7.485 h 6.347 z"
           style="fill:#bcb7b3;fill-opacity:1;fill-rule:nonzero;stroke:none"
           id="path3890"
           inkscape:connector-curvature="0" /><g
           id="g3892"
           transform="translate(174.0293,270.7822)"><path
             d="m 0,0 -20.252,-17.88 -26.624,2.062 -20.253,-17.88 24.162,-75.532 21.254,14.749 25.623,1.069 21.253,14.75 25.629,1.071 -24.161,75.532 z"
             style="fill:#d82c28;fill-opacity:1;fill-rule:nonzero;stroke:none"
             id="path3894"
             inkscape:connector-curvature="0" /></g><g
           id="g3896"
           transform="translate(126.8203,251.3145)"><path
             d="M 0,0 22.994,-71.884 5.417,-84.079 -16.749,-14.784 Z"
             style="fill:#ffffff;fill-opacity:1;fill-rule:nonzero;stroke:none"
             id="path3898"
             inkscape:connector-curvature="0" /></g><g
           id="g3900"
           transform="translate(154.9824,249.1343)"><path
             d="M 0,0 21.935,-68.571 -5.168,-69.704 -28.162,2.18 Z"
             style="fill:#c0c9c8;fill-opacity:1;fill-rule:nonzero;stroke:none"
             id="path3902"
             inkscape:connector-curvature="0" /></g><g
           id="g3904"
           transform="translate(176.4043,268.0469)"><path
             d="m 0,0 22.995,-71.883 -22.482,-15.6 -21.935,68.57 z"
             style="fill:#ffffff;fill-opacity:1;fill-rule:nonzero;stroke:none"
             id="path3906"
             inkscape:connector-curvature="0" /></g><g
           id="g3908"
           transform="translate(198.4272,266.3462)"><path
             d="M 0,0 22.166,-69.294 0.972,-70.182 -22.023,1.701 Z"
             style="fill:#c0c9c8;fill-opacity:1;fill-rule:nonzero;stroke:none"
             id="path3910"
             inkscape:connector-curvature="0" /></g><g
           id="g3912"
           transform="translate(117.4629,223.5703)"><path
             d="m 0,0 4.857,8.624 7.77,-0.871 4.285,2.609 -0.814,2.544 -3.28,2.448 1.691,4.861 15.275,2.213 3.663,-4.034 -1.421,-2.195 -5.005,1.988 -4.957,-3.635 -1.955,-2.865 0.981,-1.506 5.029,-2.839 0.755,4.667 4.826,0.525 1.13,-1.579 -0.623,-3.519 3.68,-0.964 2.655,-4.007 -2.667,-2.983 -3.783,-0.664 -3.061,-8.385 -5.55,-2.365 -0.051,-3.937 3.251,-1.968 1.807,2.939 13.404,-0.134 3.939,-5.289 -4.594,-6.329 2.224,-7.339 3.351,-2.668 -1.527,-1.864 -10.927,2.93 -3.191,9.586 -5.257,0.433 -1.38,4.313 -4.635,3.951 -1.659,7.529 -6.57,2.194 L 10.49,1.944 7.352,3.95 2.636,-0.827 Z"
             style="fill:#59a6ec;fill-opacity:1;fill-rule:nonzero;stroke:none"
             id="path3914"
             inkscape:connector-curvature="0" /></g><g
           id="g3916"
           transform="translate(161.9834,220.2266)"><path
             d="m 0,0 -2.733,-4.337 3.739,-8.175 5.273,-1.652 7.613,3.916 5.876,-9.781 5.185,-4.502 2.817,0.952 -1.135,16.039 -5.999,7.044 1.813,3.309 -3.94,2.558 4.278,8.095 6.915,-1.71 3.006,-1.594 1.335,-4.172 4.273,-1.255 0.117,2.369 -3.342,1.078 0.158,8.877 -6.407,5.191 4.291,6.104 -4.207,4.954 1.164,4.56 -3.331,3.778 L 13.126,39.374 7.119,31.219 -2.943,25.985 -5.502,16.421 -0.443,11.142 4.1,8.263 7.777,11.587 8.945,7.937 8.339,2.814 3.767,4.229 Z"
             style="fill:#59a6ec;fill-opacity:1;fill-rule:nonzero;stroke:none"
             id="path3918"
             inkscape:connector-curvature="0" /></g><g
           id="g3920"
           transform="translate(197.9746,213.8828)"><path
             d="m 0,0 -4.421,-2.963 -1.059,-4.891 3.246,-2.336 3.337,2.841 3.2,-0.635 1.864,1.976 2.978,-2.671 1.484,1.603 -4.261,3.955 c 0,0 2.673,3.353 2.454,3.646 C 8.603,0.82 5.034,3.782 5.034,3.782 L 1.877,2.718 2.193,-0.607 Z"
             style="fill:#59a6ec;fill-opacity:1;fill-rule:nonzero;stroke:none"
             id="path3922"
             inkscape:connector-curvature="0" /></g><g
           id="g3924"><g
             id="g3926" /><g
             id="g3946"><g
               clip-path="url(#clipPath3930)"
               id="g3944"
               style="opacity:0.5"><g
                 transform="translate(140.9438,211.6416)"
                 id="g3934"><path
                   d="m 0,0 -0.052,-3.937 3.252,-1.968 1.801,2.939 13.41,-0.138 3.939,-5.289 -4.598,-6.33 2.228,-7.338 3.347,-2.664 -1.523,-1.867 -10.931,2.929 -3.187,9.587 -4.747,0.391 -11.182,34.956 1.674,1.02 -0.816,2.55 -2.624,1.952 -0.397,1.24 1.434,4.111 15.273,2.211 3.663,-4.028 -1.423,-2.201 -5.004,1.989 -4.959,-3.631 -1.953,-2.864 0.983,-1.508 5.029,-2.839 0.755,4.667 4.822,0.524 1.135,-1.58 L 8.722,19.363 12.401,18.399 15.06,14.398 12.39,11.409 8.607,10.75 5.544,2.364 Z"
                   style="fill:#59a6ec;fill-opacity:1;fill-rule:nonzero;stroke:none"
                   id="path3932"
                   inkscape:connector-curvature="0" /></g><g
                 transform="translate(195.124,248.5557)"
                 id="g3938"><path
                   d="m 0,0 -4.287,-6.107 6.404,-5.194 -0.158,-8.877 3.342,-1.078 -0.12,-2.364 -4.266,1.252 -1.335,4.175 -3.013,1.593 -4.069,1.01 -8.712,27.237 9.842,1.645 3.33,-3.781 -1.163,-4.561 z"
                   style="fill:#59a6ec;fill-opacity:1;fill-rule:nonzero;stroke:none"
                   id="path3936"
                   inkscape:connector-curvature="0" /></g><g
                 transform="translate(204.3535,210.7344)"
                 id="g3942"><path
                   d="m 0,0 4.261,-3.951 -1.488,-1.605 -2.975,2.672 -1.867,-1.982 -3.202,0.639 -2.354,-2.007 -2.244,7.015 3.498,2.342 2.196,-0.611 -0.315,3.328 3.151,1.062 c 0,0 3.57,-2.964 3.791,-3.257 C 2.674,3.352 0,0 0,0"
                   style="fill:#59a6ec;fill-opacity:1;fill-rule:nonzero;stroke:none"
                   id="path3940"
                   inkscape:connector-curvature="0" /></g></g></g></g><g
           id="g3948"
           transform="translate(128.564,230.2129)"><path
             d="M 0,0 C -1.112,-0.542 -2.433,-0.099 -2.951,0.988 -3.467,2.075 -2.985,3.396 -1.873,3.938 -0.76,4.479 0.562,4.037 1.078,2.949 1.596,1.861 1.113,0.541 0,0 M -2.226,4.682 C -3.729,3.949 -4.382,2.164 -3.683,0.693 -2.984,-0.775 1.66,-3.491 1.66,-3.491 c 0,0 0.802,5.366 0.103,6.837 -0.699,1.468 -2.485,2.067 -3.989,1.336"
             style="fill:#d82c28;fill-opacity:1;fill-rule:nonzero;stroke:none"
             id="path3950"
             inkscape:connector-curvature="0" /></g><g
           id="g3952"
           transform="translate(176.1646,235.584)"><path
             d="M 0,0 C -1.113,-0.543 -2.434,-0.1 -2.951,0.988 -3.468,2.074 -2.986,3.396 -1.873,3.938 -0.76,4.479 0.561,4.037 1.078,2.95 1.596,1.861 1.113,0.541 0,0 M -2.227,4.681 C -3.73,3.949 -4.382,2.163 -3.684,0.693 -2.985,-0.776 1.66,-3.491 1.66,-3.491 c 0,0 0.801,5.366 0.102,6.836 -0.699,1.469 -2.484,2.067 -3.989,1.336"
             style="fill:#d82c28;fill-opacity:1;fill-rule:nonzero;stroke:none"
             id="path3954"
             inkscape:connector-curvature="0" /></g><g
           id="g3956"
           transform="translate(152.4761,201.3281)"><path
             d="M 0,0 C -1.113,-0.541 -2.434,-0.098 -2.951,0.989 -3.468,2.076 -2.985,3.397 -1.873,3.939 -0.761,4.48 0.561,4.038 1.078,2.951 1.595,1.862 1.112,0.542 0,0 M -2.226,4.682 C -3.73,3.95 -4.382,2.165 -3.684,0.694 -2.984,-0.775 1.66,-3.49 1.66,-3.49 c 0,0 0.801,5.365 0.102,6.836 -0.699,1.469 -2.484,2.068 -3.988,1.336"
             style="fill:#d82c28;fill-opacity:1;fill-rule:nonzero;stroke:none"
             id="path3958"
             inkscape:connector-curvature="0" /></g><g
           id="g3960"
           transform="translate(209.6836,215.7422)"><path
             d="m 0,0 -8.175,-22.786 52.074,-18.684 8.176,22.786 z"
             style="fill:#fff8e1;fill-opacity:1;fill-rule:nonzero;stroke:none"
             id="path3962"
             inkscape:connector-curvature="0" /></g><g
           id="g3964"
           transform="translate(251.2251,178.7832)"><path
             d="m 0,0 -32.266,11.578 0.381,1.061 L 0.381,1.062 Z"
             style="fill:#c5ced7;fill-opacity:1;fill-rule:nonzero;stroke:none"
             id="path3966"
             inkscape:connector-curvature="0" /></g><g
           id="g3968"
           transform="translate(252.1211,181.2822)"><path
             d="m 0,0 -32.266,11.576 0.381,1.062 L 0.381,1.061 Z"
             style="fill:#c5ced7;fill-opacity:1;fill-rule:nonzero;stroke:none"
             id="path3970"
             inkscape:connector-curvature="0" /></g><g
           id="g3972"
           transform="translate(253.0176,183.7793)"><path
             d="m 0,0 -32.266,11.577 0.381,1.062 L 0.381,1.062 Z"
             style="fill:#c5ced7;fill-opacity:1;fill-rule:nonzero;stroke:none"
             id="path3974"
             inkscape:connector-curvature="0" /></g><g
           id="g3976"
           transform="translate(209.6836,215.7422)"><path
             d="m 0,0 -8.175,-22.786 14.274,-5.121 8.175,22.786 z"
             style="fill:#689f38;fill-opacity:1;fill-rule:nonzero;stroke:none"
             id="path3978"
             inkscape:connector-curvature="0" /></g></g></g><text
       transform="matrix(0.94124307,-0.3377299,-0.3377299,-0.94124307,204.8251,194.3508)"
       style="font-variant:normal;font-weight:bold;font-stretch:normal;font-size:2.12240601px;font-family:Montserrat;-inkscape-font-specification:Montserrat-Bold;writing-mode:lr-tb;fill:#fff8e1;fill-opacity:1;fill-rule:nonzero;stroke:none"
       id="text3982"><tspan
         x="0 1.4092777 2.1924455 3.7672708 5.4630733 7.0018177 8.4110956"
         y="0"
         sodipodi:role="line"
         id="tspan3980">TICKETS</tspan></text>
<text
       transform="matrix(0.94124728,-0.33771815,-0.33771815,-0.94124728,205.5388,196.3399)"
       style="font-variant:normal;font-weight:bold;font-stretch:normal;font-size:1.75086832px;font-family:Montserrat;-inkscape-font-specification:Montserrat-Bold;writing-mode:lr-tb;fill:#fff8e1;fill-opacity:1;fill-rule:nonzero;stroke:none"
       id="text3986"><tspan
         x="0 1.4409646 2.0870349 3.4422071 4.7203407 5.7985253 7.23949 8.7032156"
         y="0"
         sodipodi:role="line"
         id="tspan3984">AIRPLANE</tspan></text>
<g
       id="g3988"><g
         id="g3990"
         clip-path="url(#clipPath3994)"><g
           id="g3996"
           transform="translate(216.8135,200.6504)"><path
             d="M 0,0 0.623,0.645 0.12,1.669 0.405,1.965 C 0.49,2.053 0.487,2.191 0.4,2.276 0.312,2.36 0.173,2.359 0.088,2.271 l -0.174,-0.18 -0.468,0.956 0.265,0.273 c 0.085,0.088 0.083,0.227 -0.004,0.312 -0.088,0.085 -0.228,0.083 -0.312,-0.005 L -0.76,3.466 -1.363,4.697 c 0.212,0.21 0.415,0.415 0.604,0.611 1.918,1.982 1.406,2.597 1.406,2.597 0,0 -0.632,0.493 -2.551,-1.49 C -2.093,6.22 -2.291,6.01 -2.493,5.791 l -1.25,0.562 0.155,0.161 C -3.504,6.601 -3.506,6.739 -3.593,6.825 -3.681,6.91 -3.82,6.906 -3.905,6.82 L -4.17,6.544 -5.141,6.98 -4.966,7.161 c 0.085,0.088 0.082,0.227 -0.006,0.312 -0.087,0.085 -0.226,0.083 -0.311,-0.005 L -5.568,7.172 -6.611,7.642 -7.232,6.998 -3.835,4.28 C -4.674,3.299 -5.452,2.317 -5.907,1.631 l -1.314,0.294 -0.508,-0.527 1.43,-0.672 0.72,-1.408 0.509,0.526 -0.337,1.304 c 0.672,0.477 1.626,1.288 2.579,2.159 z"
             style="fill:#f5c242;fill-opacity:1;fill-rule:nonzero;stroke:none"
             id="path3998"
             inkscape:connector-curvature="0" /></g><g
           id="g4000"
           transform="translate(230.8501,194.6553)"><path
             d="M 0,0 -9.169,3.29 -5.88,12.46 3.291,9.171 Z"
             style="fill:#c5ced7;fill-opacity:1;fill-rule:nonzero;stroke:none"
             id="path4002"
             inkscape:connector-curvature="0" /></g><g
           id="g4004"
           transform="translate(247.5688,199.0068)"><path
             d="M 0,0 -0.198,-0.552 9.47,-4.021 9.667,-3.469 Z"
             style="fill:#404851;fill-opacity:1;fill-rule:nonzero;stroke:none"
             id="path4006"
             inkscape:connector-curvature="0" /></g><g
           id="g4008"
           transform="translate(247.1724,197.9023)"><path
             d="M 0,0 -0.198,-0.552 9.47,-4.02 9.668,-3.468 Z"
             style="fill:#404851;fill-opacity:1;fill-rule:nonzero;stroke:none"
             id="path4010"
             inkscape:connector-curvature="0" /></g><g
           id="g4012"
           transform="translate(246.7769,196.7979)"><path
             d="M 0,0 -0.198,-0.551 9.47,-4.02 9.668,-3.468 Z"
             style="fill:#404851;fill-opacity:1;fill-rule:nonzero;stroke:none"
             id="path4014"
             inkscape:connector-curvature="0" /></g><g
           id="g4016"
           transform="translate(246.3809,195.6953)"><path
             d="M 0,0 -0.198,-0.553 9.469,-4.021 9.667,-3.47 Z"
             style="fill:#404851;fill-opacity:1;fill-rule:nonzero;stroke:none"
             id="path4018"
             inkscape:connector-curvature="0" /></g><g
           id="g4020"
           transform="translate(245.9844,194.5908)"><path
             d="M 0,0 -0.198,-0.553 9.47,-4.021 9.668,-3.47 Z"
             style="fill:#404851;fill-opacity:1;fill-rule:nonzero;stroke:none"
             id="path4022"
             inkscape:connector-curvature="0" /></g><g
           id="g4024"
           transform="translate(268.1602,189.4336)"><path
             d="m 0,0 -27.274,-2.853 -4.454,42.607 27.274,2.852 c 1.424,0.149 2.699,-0.884 2.848,-2.308 L 2.309,2.847 C 2.458,1.423 1.424,0.148 0,0"
             style="fill:#083060;fill-opacity:1;fill-rule:nonzero;stroke:none"
             id="path4026"
             inkscape:connector-curvature="0" /></g><g
           id="g4028"
           transform="translate(267.3457,189.3477)"><path
             d="m 0,0 -27.274,-2.851 -4.454,42.607 27.274,2.85 c 1.424,0.15 2.699,-0.884 2.848,-2.308 L 2.309,2.849 C 2.458,1.424 1.424,0.148 0,0"
             style="fill:#003c94;fill-opacity:1;fill-rule:nonzero;stroke:none"
             id="path4030"
             inkscape:connector-curvature="0" /></g><g
           id="g4032"
           transform="translate(238.5186,227.5615)"><path
             d="m 0,0 24.068,2.516 c 0.871,0.09 1.652,-0.541 1.743,-1.413 l 3.75,-35.874 z"
             style="fill:#054da3;fill-opacity:1;fill-rule:nonzero;stroke:none"
             id="path4034"
             inkscape:connector-curvature="0" /></g><g
           id="g4036"
           transform="translate(258.8701,208.6924)"><path
             d="m 0,0 c -0.64,0.382 -1.343,0.694 -2.09,0.92 0.254,1.304 0.33,2.795 0.19,4.388 L 1.795,5.693 C 1.927,3.569 1.237,1.564 0,0 m -3.555,-2.628 c 0.564,0.699 1.006,1.668 1.302,2.819 0.623,-0.193 1.215,-0.45 1.758,-0.764 -0.843,-0.894 -1.882,-1.603 -3.06,-2.055 m -7.771,0.923 c 0.466,0.42 0.989,0.792 1.559,1.107 0.527,-1.066 1.164,-1.917 1.856,-2.485 -1.242,0.199 -2.404,0.678 -3.415,1.378 m -3.536,5.658 3.692,0.386 c 0.191,-1.587 0.579,-3.03 1.092,-4.255 -0.684,-0.377 -1.303,-0.825 -1.85,-1.331 -1.538,1.273 -2.624,3.094 -2.934,5.2 m 1.717,6.438 c 0.64,-0.382 1.339,-0.692 2.086,-0.92 -0.25,-1.304 -0.33,-2.796 -0.189,-4.389 V 5.081 L -14.94,4.694 v 0.001 c -0.132,2.122 0.554,4.131 1.795,5.696 m 3.548,2.624 c -0.561,-0.701 -1.003,-1.664 -1.299,-2.812 -0.623,0.189 -1.211,0.446 -1.754,0.757 0.84,0.894 1.879,1.602 3.053,2.055 m 7.778,-0.922 c -0.466,-0.417 -0.993,-0.791 -1.563,-1.108 -0.527,1.066 -1.16,1.92 -1.856,2.489 1.246,-0.2 2.409,-0.682 3.419,-1.381 m -4.423,-6.49 -0.369,3.538 h 10e-4 c 1.019,0.14 1.979,0.424 2.855,0.823 0.484,-1.155 0.852,-2.523 1.04,-3.991 V 5.972 Z m 0.449,-4.276 h -0.002 l -0.37,3.535 3.527,0.368 C -2.518,3.756 -2.591,2.343 -2.826,1.113 -3.766,1.322 -4.767,1.4 -5.793,1.327 m 0.459,-4.392 h -0.001 l -0.382,3.652 h 10e-4 c 0.945,0.064 1.863,-0.009 2.726,-0.199 -0.463,-1.81 -1.297,-3.116 -2.344,-3.453 m -1.124,3.573 0.381,-3.65 c -1.094,0.115 -2.183,1.214 -3.013,2.888 0.808,0.366 1.691,0.63 2.632,0.762 m -0.448,4.277 0.37,-3.536 c -1.019,-0.14 -1.982,-0.424 -2.861,-0.826 -0.484,1.155 -0.848,2.521 -1.036,3.993 z m -0.906,8.67 0.382,-3.649 c -0.948,-0.066 -1.867,0.01 -2.733,0.199 0.47,1.809 1.304,3.111 2.351,3.45 m 0.741,0.078 h 10e-4 c 1.095,-0.114 2.181,-1.216 3.008,-2.892 C -4.866,10.274 -5.75,10.014 -6.688,9.883 L -6.689,9.882 Z M -10.323,9.277 C -9.38,9.068 -8.379,8.989 -7.354,9.063 l 0.371,-3.538 -3.528,-0.368 v 0.002 c -0.12,1.475 -0.047,2.887 0.188,4.118 m 12.04,-2.84 c 0,0 0,-0.001 10e-4,-0.001 L -1.978,6.05 c -0.192,1.588 -0.576,3.031 -1.093,4.255 0.684,0.376 1.307,0.826 1.854,1.333 C 0.317,10.363 1.407,8.54 1.717,6.437 m -2.405,5.736 c -0.193,0.16 -0.389,0.31 -0.591,0.456 -1.713,1.222 -3.852,1.86 -6.095,1.659 -0.047,-10e-4 -0.099,-0.007 -0.148,-0.012 -0.048,-0.004 -0.101,-0.01 -0.147,-0.018 -2.236,-0.268 -4.2,-1.335 -5.623,-2.885 -0.168,-0.183 -0.329,-0.372 -0.48,-0.567 -1.401,-1.8 -2.137,-4.121 -1.882,-6.56 0.255,-2.439 1.455,-4.558 3.197,-6.028 0.189,-0.16 0.385,-0.313 0.587,-0.455 1.713,-1.224 3.856,-1.861 6.099,-1.66 0.047,10e-4 0.1,0.006 0.148,0.011 0.048,0.006 0.1,0.011 0.147,0.02 2.236,0.266 4.197,1.334 5.62,2.884 0.168,0.182 0.328,0.371 0.484,0.568 1.4,1.799 2.136,4.12 1.881,6.559 -0.256,2.439 -1.455,4.558 -3.197,6.028"
             style="fill:#f5c242;fill-opacity:1;fill-rule:nonzero;stroke:none"
             id="path4038"
             inkscape:connector-curvature="0" /></g></g></g><text
       transform="matrix(0.99457965,0.10397749,0.10397749,-0.99457965,242.7403,195.9911)"
       style="font-variant:normal;font-weight:bold;font-stretch:normal;font-size:3.8566041px;font-family:Montserrat;-inkscape-font-specification:Montserrat-Bold;writing-mode:lr-tb;fill:#f5c242;fill-opacity:1;fill-rule:nonzero;stroke:none"
       id="text4042"><tspan
         x="0 2.6109209 5.7733364 8.4575329 11.141729 13.95705 17.250589 20.235601"
         y="0"
         sodipodi:role="line"
         id="tspan4040">PASSPORT</tspan></text>
<g
       id="g4044"><g
         id="g4046"
         clip-path="url(#clipPath4050)"><g
           id="g4052"
           transform="translate(210.4961,190.2783)"><path
             d="m 0,0 0.093,-1.646 h -44.22 l -0.097,3.453 z"
             style="fill:#12171e;fill-opacity:1;fill-rule:nonzero;stroke:none"
             id="path4054"
             inkscape:connector-curvature="0" /></g><g
           id="g4056"
           transform="translate(107.6758,183.3506)"><path
             d="m 0,0 v -108.853 c 0,-2.917 2.364,-5.281 5.282,-5.281 h 150.534 c 2.917,0 5.282,2.364 5.282,5.281 V 0 c 0,2.917 -2.365,5.281 -5.282,5.281 H 5.282 C 2.364,5.281 0,2.917 0,0"
             style="fill:#f5c242;fill-opacity:1;fill-rule:nonzero;stroke:none"
             id="path4058"
             inkscape:connector-curvature="0" /></g><g
           id="g4060"><g
             id="g4062" /><g
             id="g4074"><g
               clip-path="url(#clipPath4066)"
               id="g4072"
               style="opacity:0.5"><g
                 transform="translate(257.0952,142.6025)"
                 id="g4070"><path
                   d="m 0,0 c -14.682,-15.546 -31.523,-28.5 -52.682,-33.682 -3.455,-0.863 -6.909,-1.726 -10.796,-1.726 -20.295,0 -41.454,-0.433 -60.022,6.908 -9.398,3.639 -19.428,10.471 -25.919,19.745 v -59.349 c 0,-2.917 2.364,-5.282 5.281,-5.282 H 6.396 c 2.918,0 5.283,2.365 5.283,5.282 V 13.199 C 8.074,8.506 3.766,4.162 0,0"
                   style="fill:#f5c242;fill-opacity:1;fill-rule:nonzero;stroke:none"
                   id="path4068"
                   inkscape:connector-curvature="0" /></g></g></g></g><g
           id="g4076"
           transform="translate(251.0835,188.6318)"><path
             d="M 0,0 C 0,-9.773 7.917,-17.69 17.69,-17.69 V -5.281 C 17.69,-2.364 15.325,0 12.408,0 Z"
             style="fill:#915620;fill-opacity:1;fill-rule:nonzero;stroke:none"
             id="path4078"
             inkscape:connector-curvature="0" /></g><g
           id="g4080"
           transform="translate(107.6758,183.3506)"><path
             d="m 0,0 v -12.409 c 9.76,0 17.691,7.917 17.691,17.69 H 5.282 C 2.364,5.281 0,2.917 0,0"
             style="fill:#915620;fill-opacity:1;fill-rule:nonzero;stroke:none"
             id="path4082"
             inkscape:connector-curvature="0" /></g><g
           id="g4084"
           transform="translate(251.0835,69.2168)"><path
             d="m 0,0 h 12.408 c 2.917,0 5.282,2.364 5.282,5.281 V 17.69 C 7.917,17.69 0,9.759 0,0"
             style="fill:#915620;fill-opacity:1;fill-rule:nonzero;stroke:none"
             id="path4086"
             inkscape:connector-curvature="0" /></g><g
           id="g4088"
           transform="translate(107.6758,86.9072)"><path
             d="m 0,0 v -12.409 c 0,-2.917 2.364,-5.281 5.282,-5.281 H 17.691 C 17.691,-7.932 9.76,0 0,0"
             style="fill:#915620;fill-opacity:1;fill-rule:nonzero;stroke:none"
             id="path4090"
             inkscape:connector-curvature="0" /></g><g
           id="g4092"><g
             id="g4094" /><g
             id="g4106"><g
               clip-path="url(#clipPath4098)"
               id="g4104"
               style="opacity:0.5"><g
                 transform="translate(111.9082,181.9561)"
                 id="g4102"><path
                   d="m 0,0 c 0,-1.198 0.971,-2.17 2.169,-2.17 1.199,0 2.17,0.972 2.17,2.17 0,1.198 -0.971,2.17 -2.17,2.17 C 0.971,2.17 0,1.198 0,0"
                   style="fill:#683a15;fill-opacity:1;fill-rule:nonzero;stroke:none"
                   id="path4100"
                   inkscape:connector-curvature="0" /></g></g></g></g><g
           id="g4108"><g
             id="g4110" /><g
             id="g4122"><g
               clip-path="url(#clipPath4114)"
               id="g4120"
               style="opacity:0.5"><g
                 transform="translate(111.9082,75.8926)"
                 id="g4118"><path
                   d="m 0,0 c 0,-1.199 0.971,-2.17 2.169,-2.17 1.199,0 2.17,0.971 2.17,2.17 0,1.198 -0.971,2.17 -2.17,2.17 C 0.971,2.17 0,1.198 0,0"
                   style="fill:#683a15;fill-opacity:1;fill-rule:nonzero;stroke:none"
                   id="path4116"
                   inkscape:connector-curvature="0" /></g></g></g></g><g
           id="g4124"><g
             id="g4126" /><g
             id="g4142"><g
               clip-path="url(#clipPath4130)"
               id="g4140"
               style="opacity:0.5"><g
                 transform="translate(260.2017,181.9561)"
                 id="g4134"><path
                   d="m 0,0 c 0,-1.198 0.972,-2.17 2.17,-2.17 1.198,0 2.169,0.972 2.169,2.17 0,1.198 -0.971,2.17 -2.169,2.17 C 0.972,2.17 0,1.198 0,0"
                   style="fill:#683a15;fill-opacity:1;fill-rule:nonzero;stroke:none"
                   id="path4132"
                   inkscape:connector-curvature="0" /></g><g
                 transform="translate(260.2017,75.8926)"
                 id="g4138"><path
                   d="m 0,0 c 0,-1.199 0.972,-2.17 2.17,-2.17 1.198,0 2.169,0.971 2.169,2.17 0,1.198 -0.971,2.17 -2.169,2.17 C 0.972,2.17 0,1.198 0,0"
                   style="fill:#683a15;fill-opacity:1;fill-rule:nonzero;stroke:none"
                   id="path4136"
                   inkscape:connector-curvature="0" /></g></g></g></g><g
           id="g4144"
           transform="translate(165.8613,188.6318)"><path
             d="m 0,0 h 8.011 c 0,3.676 2.979,6.655 6.655,6.655 h 15.395 c 3.675,0 6.655,-2.979 6.655,-6.655 h 8.012 c 0,8.1 -6.568,14.666 -14.667,14.666 H 14.666 C 6.566,14.666 0,8.1 0,0"
             style="fill:#683a15;fill-opacity:1;fill-rule:nonzero;stroke:none"
             id="path4146"
             inkscape:connector-curvature="0" /></g><path
           d="m 140.593,65.893 h -15.226 v 3.324 h 15.226 z"
           style="fill:#282f39;fill-opacity:1;fill-rule:nonzero;stroke:none"
           id="path4148"
           inkscape:connector-curvature="0" /><path
           d="m 251.083,65.893 h -15.228 v 3.324 h 15.228 z"
           style="fill:#282f39;fill-opacity:1;fill-rule:nonzero;stroke:none"
           id="path4150"
           inkscape:connector-curvature="0" /><g
           id="g4152"
           transform="translate(162.1372,88.5371)"><path
             d="m 0,0 10.379,-2.23 c 0.617,-0.132 1.223,0.259 1.355,0.875 l 2.231,10.379 c 0.132,0.617 -0.259,1.223 -0.876,1.355 L 2.71,12.61 C 2.094,12.742 1.487,12.351 1.354,11.734 L -0.876,1.355 C -1.008,0.739 -0.616,0.132 0,0"
             style="fill:#d82c28;fill-opacity:1;fill-rule:nonzero;stroke:none"
             id="path4154"
             inkscape:connector-curvature="0" /></g><g
           id="g4156"
           transform="translate(164.9458,95.8594)"><path
             d="M 0,0 2.738,-0.589 3.327,2.15 5.869,1.604 5.28,-1.135 8.019,-1.723 7.473,-4.265 4.734,-3.677 4.145,-6.416 l -2.542,0.548 0.589,2.737 -2.739,0.589 z"
             style="fill:#fff8e1;fill-opacity:1;fill-rule:nonzero;stroke:none"
             id="path4158"
             inkscape:connector-curvature="0" /></g><g
           id="g4160"
           transform="translate(198.5947,102.959)"><path
             d="m 0,0 c -2.038,-7.484 2.377,-15.203 9.862,-17.241 7.485,-2.039 15.204,2.377 17.242,9.861 C 29.142,0.104 24.726,7.824 17.242,9.861 9.758,11.899 2.039,7.484 0,0"
             style="fill:#fff8e1;fill-opacity:1;fill-rule:nonzero;stroke:none"
             id="path4162"
             inkscape:connector-curvature="0" /></g><g
           id="g4164"
           transform="translate(202.0024,102.3535)"><path
             d="m 0,0 1.409,0.132 0.174,4.07 2.73,-1.602 1.2,1.612 2.103,-3.893 0.774,6.604 1.633,-1.632 3.318,3.255 1.188,-4.493 2.239,0.568 -2.711,-6.072 3.796,2.27 0.208,-1.998 3.167,-0.018 -1.933,-3.587 1.143,-0.836 -6.343,-3.084 0.012,-2.038 -4.661,1.875 -0.674,0.184 -1.187,-6.205 -1.275,0.352 2.03,5.972 -0.552,0.153 -4.964,0.77 1.052,1.746 z"
             style="fill:#d82c28;fill-opacity:1;fill-rule:nonzero;stroke:none"
             id="path4166"
             inkscape:connector-curvature="0" /></g><g
           id="g4168"
           transform="translate(244.5068,114.8232)"><path
             d="M 0,0 C 4.493,3.62 4.55,7.587 4.55,7.587 L 5.238,7.696 5.926,1.104 C 6.426,-6.38 2.964,-9.38 1.614,-10.259 Z"
             style="fill:#282f39;fill-opacity:1;fill-rule:nonzero;stroke:none"
             id="path4170"
             inkscape:connector-curvature="0" /></g><g
           id="g4172"
           transform="translate(253.9692,97.877)"><path
             d="m 0,0 -6.488,-1.02 -1.185,7.534 c 1.444,0.94 4.904,4.002 4.397,11.593 l -0.677,6.496 1.629,0.056 0.11,0.005 0.647,0.024 0.018,-10e-4 4.119,0.145 c 0,0 0.893,0.84 1.557,0.757 0,0 0.376,-0.023 0.419,-0.295 l 1.091,0.172 c 0,0 0.409,0.063 0.054,-0.342 -0.357,-0.404 -1.178,-0.953 -3.183,-1.302 0,0 -0.281,-0.668 -0.921,-1.468 C 1.584,22.353 1.584,22.353 1.582,22.349 1.527,22.279 1.466,22.205 1.404,22.134 1.396,22.121 1.383,22.107 1.371,22.094 0.49,21.085 -0.951,19.955 -3.097,19.69 Z"
             style="fill:#282f39;fill-opacity:1;fill-rule:nonzero;stroke:none"
             id="path4174"
             inkscape:connector-curvature="0" /></g><g
           id="g4176"
           transform="translate(234.353,119.0205)"><path
             d="m 0,0 c 0.457,-0.274 1.392,-0.542 3.368,-0.27 0.02,0.001 0.041,0.005 0.063,0.009 0,0 2.566,-2.988 6.6,-2.213 l 0.197,-1.255 c 0.474,0.402 0.897,0.807 1.269,1.208 2.707,2.909 2.905,5.675 2.916,5.934 L 14.163,3.406 13.742,6.081 13.688,6.388 C 13.58,7.072 13.073,7.598 12.442,7.769 12.22,7.829 11.982,7.844 11.74,7.806 10.81,7.659 10.176,6.785 10.322,5.858 L 10.365,5.55 10.786,2.873 3.062,0.681 c 0,0 -1.108,0.524 -1.714,0.242 0,0 -0.354,-0.137 -0.311,-0.41 L -0.054,0.342 C -0.054,0.342 -0.463,0.277 0,0"
             style="fill:#282f39;fill-opacity:1;fill-rule:nonzero;stroke:none"
             id="path4178"
             inkscape:connector-curvature="0" /></g><g
           id="g4180"
           transform="translate(149.457,164.999)"><path
             d="m 0,0 c -1.237,-4.542 1.443,-9.227 5.985,-10.464 4.542,-1.235 9.226,1.443 10.464,5.985 C 17.686,0.063 15.005,4.748 10.463,5.985 5.922,7.223 1.237,4.543 0,0"
             style="fill:#fff8e1;fill-opacity:1;fill-rule:nonzero;stroke:none"
             id="path4182"
             inkscape:connector-curvature="0" /></g><g
           id="g4184"
           transform="translate(153.6533,163.8564)"><path
             d="M 0,0 C -0.605,-2.225 0.707,-4.519 2.932,-5.124 5.155,-5.729 7.45,-4.418 8.056,-2.193 8.661,0.032 7.349,2.324 5.124,2.931 2.9,3.537 0.605,2.224 0,0"
             style="fill:#d82c28;fill-opacity:1;fill-rule:nonzero;stroke:none"
             id="path4186"
             inkscape:connector-curvature="0" /></g><g
           id="g4188"
           transform="translate(247.082,152.4092)"><path
             d="M 0,0 -13.963,6.738 -7.225,20.701 6.738,13.963 Z"
             style="fill:#fff8e1;fill-opacity:1;fill-rule:nonzero;stroke:none"
             id="path4190"
             inkscape:connector-curvature="0" /></g><g
           id="g4192"
           transform="translate(237.8618,156.8594)"><path
             d="M 0,0 -4.743,2.288 1.996,16.251 6.739,13.963 Z"
             style="fill:#d82c28;fill-opacity:1;fill-rule:nonzero;stroke:none"
             id="path4194"
             inkscape:connector-curvature="0" /></g><g
           id="g4196"
           transform="translate(247.0732,152.3916)"><path
             d="M 0,0 -4.693,2.265 2.046,16.228 6.739,13.962 Z"
             style="fill:#689f38;fill-opacity:1;fill-rule:nonzero;stroke:none"
             id="path4198"
             inkscape:connector-curvature="0" /></g><g
           id="g4200"
           transform="translate(134.8384,109.0146)"><path
             d="M 0,0 C 1.234,-0.909 2.294,-1.744 3.077,-2.426 L 4.891,-1.53 7.296,-3.049 4.647,-5.187 3.858,-8.499 1.453,-6.981 1.479,-4.959 c -0.952,0.414 -2.163,1.01 -3.515,1.733 l -3.126,-6.174 -2.509,1.583 0.387,1.759 -0.035,0.022 c -0.1,0.063 -0.191,0.141 -0.269,0.231 -0.351,0.406 -0.395,0.985 -0.108,1.44 0.172,0.272 0.441,0.463 0.756,0.533 0.05,0.012 0.1,0.02 0.15,0.025 l 0.023,0.109 c -0.099,0.063 -0.188,0.14 -0.265,0.229 -0.352,0.406 -0.396,0.984 -0.108,1.439 0.172,0.273 0.441,0.464 0.756,0.534 0.035,0.008 0.071,0.016 0.106,0.02 l 0.131,0.599 c -0.219,0.134 -0.432,0.266 -0.637,0.396 -1.209,0.762 -2.122,1.495 -2.712,2.176 -1.124,1.297 -0.841,2.157 -0.728,2.389 l 0.041,0.085 0.058,0.073 c 0.382,0.48 1.691,1.329 5.603,-1.138 0.205,-0.129 0.416,-0.265 0.632,-0.406 l 0.482,0.376 c -0.108,0.333 -0.067,0.705 0.13,1.018 0.173,0.274 0.442,0.464 0.757,0.535 0.314,0.071 0.637,0.018 0.91,-0.154 l 0.087,0.068 c -0.126,0.344 -0.091,0.733 0.114,1.06 0.173,0.272 0.442,0.462 0.757,0.534 0.316,0.071 0.64,0.015 0.913,-0.156 L 0.295,5.957 1.717,7.063 4.227,5.48 Z"
             style="fill:#fff8e1;fill-opacity:1;fill-rule:nonzero;stroke:none"
             id="path4202"
             inkscape:connector-curvature="0" /></g><g
           id="g4204"
           transform="translate(137.8013,114.2715)"><path
             d="m 0,0 -1.193,0.753 -1.423,-1.107 -0.547,0.345 C -3.325,0.094 -3.54,0.044 -3.642,-0.118 -3.744,-0.28 -3.696,-0.494 -3.534,-0.597 l 0.335,-0.212 -1.323,-1.029 -0.51,0.321 c -0.162,0.102 -0.376,0.053 -0.478,-0.108 -0.103,-0.163 -0.054,-0.376 0.108,-0.479 l 0.297,-0.187 -1.706,-1.329 c -0.391,0.261 -0.772,0.508 -1.135,0.736 -3.679,2.322 -4.465,1.332 -4.465,1.332 0,0 -0.554,-1.136 3.125,-3.456 0.362,-0.229 0.749,-0.467 1.153,-0.709 l -0.464,-2.11 -0.297,0.187 c -0.162,0.102 -0.377,0.053 -0.479,-0.108 -0.103,-0.163 -0.054,-0.378 0.108,-0.479 l 0.51,-0.322 -0.36,-1.638 -0.335,0.211 c -0.162,0.102 -0.377,0.054 -0.479,-0.108 -0.103,-0.163 -0.054,-0.377 0.108,-0.479 l 0.547,-0.345 -0.387,-1.76 1.194,-0.753 3.099,6.12 c 1.784,-0.977 3.55,-1.861 4.756,-2.344 l -0.028,-2.121 0.974,-0.616 0.578,2.425 1.94,1.565 -0.975,0.617 -1.903,-0.941 c -0.954,0.882 -2.513,2.095 -4.163,3.283 z"
             style="fill:#054da1;fill-opacity:1;fill-rule:nonzero;stroke:none"
             id="path4206"
             inkscape:connector-curvature="0" /></g><path
           d="m 140.593,188.632 h 12.786 V 69.217 h -12.786 z"
           style="fill:#683a15;fill-opacity:1;fill-rule:nonzero;stroke:none"
           id="path4208"
           inkscape:connector-curvature="0" /><g
           id="g4210"
           transform="translate(155.6938,188.6318)"><path
             d="m 0,0 h -17.417 v -6.532 c 0,-4.809 3.899,-8.708 8.709,-8.708 4.81,0 8.708,3.899 8.708,8.708 z"
             style="fill:#915620;fill-opacity:1;fill-rule:nonzero;stroke:none"
             id="path4212"
             inkscape:connector-curvature="0" /></g><g
           id="g4214"
           transform="translate(144.8164,181.0107)"><path
             d="m 0,0 c 0,-1.197 0.972,-2.168 2.169,-2.168 1.198,0 2.17,0.971 2.17,2.168 0,1.199 -0.972,2.17 -2.17,2.17 C 0.972,2.17 0,1.199 0,0"
             style="fill:#d3d3d3;fill-opacity:1;fill-rule:nonzero;stroke:none"
             id="path4216"
             inkscape:connector-curvature="0" /></g><g
           id="g4218"
           transform="translate(138.2773,69.2168)"><path
             d="m 0,0 h 17.417 v 6.531 c 0,4.81 -3.898,8.709 -8.709,8.709 C 3.899,15.24 0,11.341 0,6.531 Z"
             style="fill:#915620;fill-opacity:1;fill-rule:nonzero;stroke:none"
             id="path4220"
             inkscape:connector-curvature="0" /></g><g
           id="g4222"
           transform="translate(149.1553,76.8369)"><path
             d="m 0,0 c 0,1.198 -0.971,2.169 -2.17,2.169 -1.197,0 -2.169,-0.971 -2.169,-2.169 0,-1.198 0.972,-2.17 2.169,-2.17 C -0.971,-2.17 0,-1.198 0,0"
             style="fill:#d3d3d3;fill-opacity:1;fill-rule:nonzero;stroke:none"
             id="path4224"
             inkscape:connector-curvature="0" /></g><g
           id="g4226"
           transform="translate(149.1553,103.7451)"><path
             d="m 0,0 c 0,1.199 -0.971,2.17 -2.17,2.17 -1.197,0 -2.169,-0.971 -2.169,-2.17 0,-1.197 0.972,-2.169 2.169,-2.169 C -0.971,-2.169 0,-1.197 0,0"
             style="fill:#d3d3d3;fill-opacity:1;fill-rule:nonzero;stroke:none"
             id="path4228"
             inkscape:connector-curvature="0" /></g><g
           id="g4230"
           transform="translate(149.1553,128.9238)"><path
             d="m 0,0 c 0,1.198 -0.971,2.17 -2.17,2.17 -1.197,0 -2.169,-0.972 -2.169,-2.17 0,-1.197 0.972,-2.169 2.169,-2.169 C -0.971,-2.169 0,-1.197 0,0"
             style="fill:#d3d3d3;fill-opacity:1;fill-rule:nonzero;stroke:none"
             id="path4232"
             inkscape:connector-curvature="0" /></g><g
           id="g4234"
           transform="translate(149.1553,154.1016)"><path
             d="M 0,0 C 0,1.2 -0.971,2.171 -2.17,2.171 -3.367,2.171 -4.339,1.2 -4.339,0 c 0,-1.197 0.972,-2.169 2.169,-2.169 C -0.971,-2.169 0,-1.197 0,0"
             style="fill:#d3d3d3;fill-opacity:1;fill-rule:nonzero;stroke:none"
             id="path4236"
             inkscape:connector-curvature="0" /></g><path
           d="m 223.071,188.632 h 12.785 V 69.217 h -12.785 z"
           style="fill:#683a15;fill-opacity:1;fill-rule:nonzero;stroke:none"
           id="path4238"
           inkscape:connector-curvature="0" /><g
           id="g4240"
           transform="translate(238.1719,188.6318)"><path
             d="m 0,0 h -17.417 v -6.532 c 0,-4.809 3.899,-8.708 8.709,-8.708 4.81,0 8.708,3.899 8.708,8.708 z"
             style="fill:#915620;fill-opacity:1;fill-rule:nonzero;stroke:none"
             id="path4242"
             inkscape:connector-curvature="0" /></g><g
           id="g4244"
           transform="translate(227.2939,181.0107)"><path
             d="m 0,0 c 0,-1.197 0.972,-2.168 2.17,-2.168 1.198,0 2.169,0.971 2.169,2.168 0,1.199 -0.971,2.17 -2.169,2.17 C 0.972,2.17 0,1.199 0,0"
             style="fill:#d3d3d3;fill-opacity:1;fill-rule:nonzero;stroke:none"
             id="path4246"
             inkscape:connector-curvature="0" /></g><g
           id="g4248"
           transform="translate(220.7554,69.2168)"><path
             d="m 0,0 h 17.417 v 6.531 c 0,4.81 -3.899,8.709 -8.709,8.709 C 3.899,15.24 0,11.341 0,6.531 Z"
             style="fill:#915620;fill-opacity:1;fill-rule:nonzero;stroke:none"
             id="path4250"
             inkscape:connector-curvature="0" /></g><g
           id="g4252"
           transform="translate(231.6333,76.8369)"><path
             d="m 0,0 c 0,1.198 -0.971,2.169 -2.169,2.169 -1.199,0 -2.17,-0.971 -2.17,-2.169 0,-1.198 0.971,-2.17 2.17,-2.17 C -0.971,-2.17 0,-1.198 0,0"
             style="fill:#d3d3d3;fill-opacity:1;fill-rule:nonzero;stroke:none"
             id="path4254"
             inkscape:connector-curvature="0" /></g><g
           id="g4256"
           transform="translate(231.6333,103.7451)"><path
             d="m 0,0 c 0,1.199 -0.971,2.17 -2.169,2.17 -1.199,0 -2.17,-0.971 -2.17,-2.17 0,-1.197 0.971,-2.169 2.17,-2.169 C -0.971,-2.169 0,-1.197 0,0"
             style="fill:#d3d3d3;fill-opacity:1;fill-rule:nonzero;stroke:none"
             id="path4258"
             inkscape:connector-curvature="0" /></g><g
           id="g4260"
           transform="translate(231.6333,128.9238)"><path
             d="m 0,0 c 0,1.198 -0.971,2.17 -2.169,2.17 -1.199,0 -2.17,-0.972 -2.17,-2.17 0,-1.197 0.971,-2.169 2.17,-2.169 C -0.971,-2.169 0,-1.197 0,0"
             style="fill:#d3d3d3;fill-opacity:1;fill-rule:nonzero;stroke:none"
             id="path4262"
             inkscape:connector-curvature="0" /></g><g
           id="g4264"
           transform="translate(231.6333,154.1016)"><path
             d="m 0,0 c 0,1.2 -0.971,2.171 -2.169,2.171 -1.199,0 -2.17,-0.971 -2.17,-2.171 0,-1.197 0.971,-2.169 2.17,-2.169 C -0.971,-2.169 0,-1.197 0,0"
             style="fill:#d3d3d3;fill-opacity:1;fill-rule:nonzero;stroke:none"
             id="path4266"
             inkscape:connector-curvature="0" /></g><g
           id="g4268"
           transform="translate(124.2583,157.4375)"><path
             d="m 0,0 2.795,-3.259 4.269,0.456 -2.235,-3.665 1.752,-3.919 -4.176,0.993 -3.185,-2.877 -0.346,4.278 -3.722,2.141 3.963,1.651 z"
             style="fill:#282f39;fill-opacity:1;fill-rule:nonzero;stroke:none"
             id="path4270"
             inkscape:connector-curvature="0" /></g><g
           id="g4272"
           transform="translate(210.4346,141.4014)"><path
             d="M 0,0 -3.5,-0.379 -4.583,4.217 0.075,4.721 Z"
             style="fill:#283039;fill-opacity:1;fill-rule:nonzero;stroke:none"
             id="path4274"
             inkscape:connector-curvature="0" /></g><g
           id="g4276"
           transform="translate(211.5024,145.4434)"><path
             d="M 0,0 -6.476,-0.702 C -7.016,-0.76 -7.5,-0.37 -7.559,0.17 l -0.7,6.476 c -0.058,0.539 0.332,1.023 0.871,1.082 l 6.476,0.701 C -0.373,8.487 0.112,8.098 0.17,7.557 L 0.871,1.082 C 0.93,0.543 0.54,0.058 0,0"
             style="fill:#d5dce0;fill-opacity:1;fill-rule:nonzero;stroke:none"
             id="path4278"
             inkscape:connector-curvature="0" /></g><g
           id="g4280"
           transform="translate(211.2568,146.5322)"><path
             d="M 0,0 -6.224,-0.674 -6.896,5.55 -0.674,6.223 Z"
             style="fill:#c3ccd5;fill-opacity:1;fill-rule:nonzero;stroke:none"
             id="path4282"
             inkscape:connector-curvature="0" /></g><g
           id="g4284"
           transform="translate(210.8154,146.8877)"><path
             d="m 0,0 -5.427,-0.588 -0.587,5.427 5.427,0.587 z"
             style="fill:#283039;fill-opacity:1;fill-rule:nonzero;stroke:none"
             id="path4286"
             inkscape:connector-curvature="0" /></g><g
           id="g4288"
           transform="translate(209.8945,147.6279)"><path
             d="m 0,0 -3.765,-0.408 -0.408,3.765 3.766,0.409 z"
             style="fill:#12171e;fill-opacity:1;fill-rule:nonzero;stroke:none"
             id="path4290"
             inkscape:connector-curvature="0" /></g><g
           id="g4292"><g
             id="g4294" /><g
             id="g4306"><g
               clip-path="url(#clipPath4298)"
               id="g4304"
               style="opacity:0.19999701"><g
                 transform="translate(208.6401,151.3018)"
                 id="g4302"><path
                   d="m 0,0 -2.918,-0.316 0.407,-3.766 0.556,0.061 C -1.609,-2.564 -0.942,-1.157 0,0"
                   style="fill:#2d3842;fill-opacity:1;fill-rule:nonzero;stroke:none"
                   id="path4300"
                   inkscape:connector-curvature="0" /></g></g></g></g><g
           id="g4308"
           transform="translate(180.8286,138.9023)"><path
             d="m 0,0 c -0.798,-0.087 -1.33,-0.737 -1.451,-1.544 -0.008,-0.058 0.003,-0.115 0.01,-0.174 l 1.895,-17.511 c 0.099,-0.917 0.924,-1.583 1.843,-1.483 l 33.14,3.586 c 0.919,0.1 1.584,0.926 1.484,1.845 L 35.042,2.087 C 34.941,3.018 34.104,3.691 33.174,3.59 Z"
             style="fill:#054da3;fill-opacity:1;fill-rule:nonzero;stroke:none"
             id="path4310"
             inkscape:connector-curvature="0" /></g><g
           id="g4312"
           transform="translate(180.4062,127.7617)"><path
             d="M 0,0 0.876,-8.088 C 0.975,-9.006 1.801,-9.671 2.72,-9.571 l 33.139,3.586 c 0.919,0.099 1.584,0.925 1.485,1.844 l -1.4,12.926 C 34.884,7.854 33.745,7.027 32.506,6.34 23.097,1.123 10.64,-4.188 0,0"
             style="fill:#003c94;fill-opacity:1;fill-rule:nonzero;stroke:none"
             id="path4314"
             inkscape:connector-curvature="0" /></g><g
           id="g4316"
           transform="translate(186.7275,139.54)"><path
             d="M 0,0 -5.065,-0.548 -5.242,1.08 -0.177,1.629 Z"
             style="fill:#12171e;fill-opacity:1;fill-rule:nonzero;stroke:none"
             id="path4318"
             inkscape:connector-curvature="0" /></g><g
           id="g4320"
           transform="translate(191.8286,140.0928)"><path
             d="m 0,0 -4.088,-0.443 -0.177,1.629 4.088,0.442 z"
             style="fill:#12171e;fill-opacity:1;fill-rule:nonzero;stroke:none"
             id="path4322"
             inkscape:connector-curvature="0" /></g><g
           id="g4324"
           transform="translate(179.3955,137.1084)"><path
             d="M 0,0 0.156,-1.443 36.624,2.503 36.468,3.947 C 36.371,4.842 35.567,5.488 34.674,5.391 L 1.444,1.795 C 0.549,1.698 -0.097,0.896 0,0"
             style="fill:#c3ccd5;fill-opacity:1;fill-rule:nonzero;stroke:none"
             id="path4326"
             inkscape:connector-curvature="0" /></g><g
           id="g4328"
           transform="translate(214.0693,142.499)"><path
             d="m 0,0 -33.23,-3.596 c -0.708,-0.077 -1.257,-0.595 -1.41,-1.25 L 1.644,-0.919 C 1.355,-0.312 0.707,0.077 0,0"
             style="fill:#d5dce0;fill-opacity:1;fill-rule:nonzero;stroke:none"
             id="path4330"
             inkscape:connector-curvature="0" /></g><g
           id="g4332"
           transform="translate(181.1387,121.001)"><path
             d="M 0,0 0.144,-1.327 C 0.243,-2.245 1.068,-2.91 1.987,-2.811 l 33.14,3.586 c 0.919,0.1 1.583,0.926 1.484,1.845 l -0.143,1.326 z"
             style="fill:#c3ccd5;fill-opacity:1;fill-rule:nonzero;stroke:none"
             id="path4334"
             inkscape:connector-curvature="0" /></g><g
           id="g4336"
           transform="translate(181.8037,118.6318)"><path
             d="m 0,0 c 0.343,-0.32 0.818,-0.497 1.322,-0.441 l 33.14,3.586 c 0.504,0.054 0.931,0.328 1.197,0.715 z"
             style="fill:#d5dce0;fill-opacity:1;fill-rule:nonzero;stroke:none"
             id="path4338"
             inkscape:connector-curvature="0" /></g><g
           id="g4340"
           transform="translate(211.915,133.1299)"><path
             d="m 0,0 c 0.667,-6.16 -3.787,-11.695 -9.948,-12.363 -6.16,-0.665 -11.695,3.789 -12.362,9.948 -0.666,6.161 3.788,11.696 9.948,12.362 C -6.201,10.613 -0.667,6.16 0,0"
             style="fill:#d5dce0;fill-opacity:1;fill-rule:nonzero;stroke:none"
             id="path4342"
             inkscape:connector-curvature="0" /></g><g
           id="g4344"
           transform="translate(210.895,133.0195)"><path
             d="m 0,0 c 0.606,-5.597 -3.441,-10.626 -9.038,-11.231 -5.597,-0.606 -10.626,3.441 -11.232,9.038 -0.605,5.597 3.441,10.626 9.038,11.231 C -5.635,9.644 -0.606,5.597 0,0"
             style="fill:#404751;fill-opacity:1;fill-rule:nonzero;stroke:none"
             id="path4346"
             inkscape:connector-curvature="0" /></g><g
           id="g4348"
           transform="translate(209.5,132.8691)"><path
             d="m 0,0 c 0.522,-4.828 -2.967,-9.164 -7.794,-9.687 -4.827,-0.521 -9.163,2.968 -9.685,7.794 -0.523,4.828 2.967,9.164 7.793,9.686 C -4.858,8.315 -0.522,4.826 0,0"
             style="fill:#283039;fill-opacity:1;fill-rule:nonzero;stroke:none"
             id="path4350"
             inkscape:connector-curvature="0" /></g><g
           id="g4352"
           transform="translate(208.8154,132.7939)"><path
             d="m 0,0 c 0.481,-4.448 -2.735,-8.446 -7.184,-8.927 -4.448,-0.481 -8.445,2.736 -8.927,7.185 -0.481,4.448 2.736,8.445 7.184,8.927 C -4.478,7.665 -0.481,4.449 0,0"
             style="fill:#12171e;fill-opacity:1;fill-rule:nonzero;stroke:none"
             id="path4354"
             inkscape:connector-curvature="0" /></g><g
           id="g4356"
           transform="translate(204.5508,132.332)"><path
             d="m 0,0 c 0.227,-2.094 -1.287,-3.973 -3.38,-4.2 -2.094,-0.226 -3.974,1.286 -4.201,3.381 -0.226,2.093 1.287,3.973 3.38,4.201 C -2.107,3.607 -0.227,2.095 0,0"
             style="fill:#31476c;fill-opacity:1;fill-rule:nonzero;stroke:none"
             id="path4358"
             inkscape:connector-curvature="0" /></g><g
           id="g4360"><g
             id="g4362" /><g
             id="g4374"><g
               clip-path="url(#clipPath4366)"
               id="g4372"
               style="opacity:0.19999701"><g
                 transform="translate(207.7598,136.0029)"
                 id="g4370"><path
                   d="m 0,0 c -1.562,2.676 -4.593,4.331 -7.872,3.976 -4.448,-0.482 -7.664,-4.479 -7.183,-8.927 0.112,-1.031 0.414,-1.994 0.864,-2.861 C -8.658,-7.44 -3.455,-4.41 0,0"
                   style="fill:#2d3842;fill-opacity:1;fill-rule:nonzero;stroke:none"
                   id="path4368"
                   inkscape:connector-curvature="0" /></g></g></g></g><g
           id="g4376"
           transform="translate(202.5933,134.2578)"><path
             d="M 0,0 C -0.71,0.572 -0.823,1.611 -0.251,2.321 0.32,3.032 1.359,3.144 2.069,2.573 2.779,2 2.892,0.962 2.32,0.251 1.749,-0.458 0.71,-0.57 0,0"
             style="fill:#d5dce0;fill-opacity:1;fill-rule:nonzero;stroke:none"
             id="path4378"
             inkscape:connector-curvature="0" /></g><g
           id="g4380"
           transform="translate(201.8418,131.3223)"><path
             d="m 0,0 c -0.634,-0.094 -1.224,0.346 -1.317,0.979 -0.094,0.634 0.345,1.224 0.98,1.318 C 0.297,2.39 0.886,1.952 0.98,1.316 1.073,0.684 0.635,0.093 0,0"
             style="fill:#d5dce0;fill-opacity:1;fill-rule:nonzero;stroke:none"
             id="path4382"
             inkscape:connector-curvature="0" /></g><g
           id="g4384"
           transform="translate(179.4297,137.6533)"><path
             d="m 0,0 -16.515,50.979 3.358,3.453 0.096,-3.453 L 0.187,0.465 Z"
             style="fill:#12171e;fill-opacity:1;fill-rule:nonzero;stroke:none"
             id="path4386"
             inkscape:connector-curvature="0" /></g><g
           id="g4388"
           transform="translate(214.833,142.3975)"><path
             d="m 0,0 -4.244,46.234 -0.093,1.647 2.474,-1.647 2.29,-46.513 z"
             style="fill:#12171e;fill-opacity:1;fill-rule:nonzero;stroke:none"
             id="path4390"
             inkscape:connector-curvature="0" /></g><g
           id="g4392"
           transform="translate(305.0815,370.561)"><path
             d="m 0,0 c -2.043,-2.854 -0.681,-7.842 3.329,-14.061 6.862,-10.627 21.479,-24.856 40.106,-38.187 29.521,-21.127 57.934,-31.987 63.467,-24.256 2.69,3.758 -0.522,11.215 -7.917,20.31 -7.826,9.62 -20.338,21.08 -35.515,31.942 C 33.949,-3.125 5.533,7.73 0,0"
             style="fill:#b21b1b;fill-opacity:1;fill-rule:nonzero;stroke:none"
             id="path4394"
             inkscape:connector-curvature="0" /></g><g
           id="g4396"
           transform="translate(305.0815,370.561)"><path
             d="m 0,0 c -2.043,-2.854 -0.681,-7.842 3.329,-14.061 7.827,-9.62 20.338,-21.08 35.516,-31.942 29.521,-21.126 57.937,-31.982 63.469,-24.251 2.04,2.849 0.681,7.841 -3.329,14.06 -7.826,9.62 -20.338,21.08 -35.515,31.942 C 33.949,-3.125 5.533,7.73 0,0"
             style="fill:#d82c28;fill-opacity:1;fill-rule:nonzero;stroke:none"
             id="path4398"
             inkscape:connector-curvature="0" /></g><g
           id="g4400"
           transform="translate(335.7949,354.1367)"><path
             d="m 0,0 c 4.75,-10.385 11.756,-18.883 20.414,-25.078 8.653,-6.194 18.959,-10.087 30.324,-11.228 1.645,2.355 3.048,4.795 4.207,7.276 0.95,2.025 1.739,4.08 2.367,6.137 1.82,5.939 2.312,11.929 1.499,17.432 -0.716,4.849 -2.436,9.319 -5.15,13.063 -0.131,0.181 -0.263,0.361 -0.402,0.543 h -0.004 c -0.188,0.248 -0.378,0.488 -0.576,0.729 -0.373,0.456 -0.765,0.893 -1.171,1.323 -0.05,0.05 -0.101,0.104 -0.147,0.153 -0.159,0.166 -0.322,0.329 -0.487,0.486 -0.051,0.055 -0.104,0.108 -0.159,0.163 -0.195,0.188 -0.4,0.376 -0.608,0.562 -0.192,0.179 -0.395,0.351 -0.592,0.517 -0.11,0.1 -0.221,0.191 -0.336,0.283 -0.103,0.086 -0.203,0.162 -0.311,0.245 -0.123,0.101 -0.246,0.198 -0.374,0.295 -0.196,0.145 -0.392,0.294 -0.588,0.435 C 37.647,20.674 23.334,19.331 11.444,11.166 9.389,9.754 7.408,8.138 5.532,6.331 3.558,4.436 1.702,2.318 0,0"
             style="fill:#d82c28;fill-opacity:1;fill-rule:nonzero;stroke:none"
             id="path4402"
             inkscape:connector-curvature="0" /></g><g
           id="g4404"
           transform="translate(335.7949,354.1367)"><path
             d="m 0,0 c 4.75,-10.385 11.756,-18.883 20.414,-25.078 8.653,-6.194 18.959,-10.087 30.324,-11.228 1.645,2.355 3.048,4.795 4.207,7.276 0.95,2.025 1.739,4.08 2.367,6.137 1.82,5.939 2.312,11.929 1.499,17.432 -3.469,-4.603 -8.947,-7.874 -14.726,-8.555 -9.693,-1.136 -19.426,4.011 -25.511,11.64 -3.208,4.023 -5.516,8.645 -7.13,13.542 C 9.389,9.754 7.408,8.138 5.532,6.331 3.558,4.436 1.702,2.318 0,0"
             style="fill:#b21b1b;fill-opacity:1;fill-rule:nonzero;stroke:none"
             id="path4406"
             inkscape:connector-curvature="0" /></g><g
           id="g4408"
           transform="translate(335.7949,354.1367)"><path
             d="m 0,0 c 4.75,-10.385 11.756,-18.883 20.414,-25.078 8.653,-6.194 18.959,-10.087 30.324,-11.228 1.645,2.355 3.048,4.795 4.207,7.276 0.95,2.025 1.739,4.08 2.367,6.137 C 45.435,-25.969 33.969,-23.928 25.548,-17.9 18.636,-12.953 12.778,-6.538 8.28,1.136 7.293,2.808 6.379,4.541 5.532,6.331 3.558,4.436 1.702,2.318 0,0"
             style="fill:#ffffff;fill-opacity:1;fill-rule:nonzero;stroke:none"
             id="path4410"
             inkscape:connector-curvature="0" /></g><g
           id="g4412"
           transform="translate(384.105,324.3408)"><path
             d="m 0,0 c 1.146,-6.071 -0.693,-12.314 -3.179,-17.969 -2.486,-5.655 -5.648,-11.048 -7.377,-16.978 -1.73,-5.93 -1.844,-12.717 1.529,-17.891 0.099,2.982 1.084,5.931 2.798,8.374 2.105,-4.337 5.917,-7.816 10.428,-9.517 -3.713,8.142 -1.897,17.619 0.076,26.349 1.972,8.729 3.99,18.11 0.613,26.399 C 3.544,-0.746 1.344,-0.488 0,0"
             style="fill:#ddd7d7;fill-opacity:1;fill-rule:nonzero;stroke:none"
             id="path4414"
             inkscape:connector-curvature="0" /></g><g
           id="g4416"
           transform="translate(382.2124,323.6206)"><path
             d="m 0,0 c 3.64,-6.091 4.129,-13.551 3.689,-20.633 -0.44,-7.082 -1.714,-14.15 -1.23,-21.228 0.484,-7.079 3.049,-14.442 8.736,-18.686 -1.075,3.255 -1.181,6.824 -0.3,10.138 3.987,-3.843 9.476,-6.085 15.013,-6.132 -7.228,7.309 -9.023,18.247 -10.354,28.44 C 14.222,-17.908 12.683,-6.993 5.759,0.606 4.116,0.6 1.643,0.007 0,0"
             style="fill:#ffffff;fill-opacity:1;fill-rule:nonzero;stroke:none"
             id="path4418"
             inkscape:connector-curvature="0" /></g><g
           id="g4420"
           transform="translate(212.8535,284.6367)"><path
             d="M 0,0 0.749,-2.812 1.499,0 C 2.463,3.62 4.467,6.647 7.111,8.48 4.467,10.314 2.463,13.341 1.499,16.961 L 0.749,19.773 0,16.961 C -0.965,13.341 -2.968,10.314 -5.613,8.48 -2.968,6.647 -0.965,3.62 0,0"
             style="fill:#fafafa;fill-opacity:1;fill-rule:nonzero;stroke:none"
             id="path4422"
             inkscape:connector-curvature="0" /></g><g
           id="g4424"
           transform="translate(229.4277,265.9917)"><path
             d="M 0,0 1.031,-3.871 2.063,0 C 3.391,4.984 6.15,9.152 9.791,11.677 6.15,14.201 3.391,18.369 2.063,23.353 L 1.031,27.224 0,23.353 C -1.328,18.369 -4.087,14.201 -7.729,11.677 -4.087,9.152 -1.328,4.984 0,0"
             style="fill:#fafafa;fill-opacity:1;fill-rule:nonzero;stroke:none"
             id="path4426"
             inkscape:connector-curvature="0" /></g><g
           id="g4428"
           transform="translate(416.3667,140.1826)"><path
             d="M 0,0 0.459,1.724 0.919,0 C 1.51,-2.221 2.739,-4.077 4.361,-5.2 2.739,-6.325 1.51,-8.182 0.919,-10.401 L 0.459,-12.126 0,-10.401 C -0.591,-8.182 -1.82,-6.325 -3.442,-5.2 -1.82,-4.077 -0.591,-2.221 0,0"
             style="fill:#fafafa;fill-opacity:1;fill-rule:nonzero;stroke:none"
             id="path4430"
             inkscape:connector-curvature="0" /></g><g
           id="g4432"
           transform="translate(426.5308,151.6162)"><path
             d="M 0,0 0.632,2.373 1.265,0 C 2.08,-3.058 3.771,-5.613 6.004,-7.161 3.771,-8.71 2.08,-11.265 1.265,-14.322 L 0.632,-16.695 0,-14.322 c -0.815,3.057 -2.507,5.612 -4.74,7.161 C -2.507,-5.613 -0.815,-3.058 0,0"
             style="fill:#fafafa;fill-opacity:1;fill-rule:nonzero;stroke:none"
             id="path4434"
             inkscape:connector-curvature="0" /></g><g
           id="g4436"
           transform="translate(277.8608,361.0703)"><path
             d="M 0,0 0.57,2.14 1.141,0 C 1.875,-2.755 3.4,-5.06 5.414,-6.456 3.4,-7.852 1.875,-10.156 1.141,-12.911 L 0.57,-15.052 0,-12.911 c -0.735,2.755 -2.259,5.059 -4.273,6.455 C -2.259,-5.06 -0.735,-2.755 0,0"
             style="fill:#fafafa;fill-opacity:1;fill-rule:nonzero;stroke:none"
             id="path4438"
             inkscape:connector-curvature="0" /></g><g
           id="g4440"
           transform="translate(290.4775,375.2637)"><path
             d="M 0,0 0.786,2.947 1.57,0 C 2.582,-3.794 4.682,-6.967 7.454,-8.889 4.682,-10.811 2.582,-13.983 1.57,-17.777 L 0.786,-20.724 0,-17.777 c -1.011,3.794 -3.111,6.966 -5.883,8.888 C -3.111,-6.967 -1.011,-3.794 0,0"
             style="fill:#fafafa;fill-opacity:1;fill-rule:nonzero;stroke:none"
             id="path4442"
             inkscape:connector-curvature="0" /></g><g
           id="g4444"
           transform="translate(75.2832,212.2988)"><path
             d="M 0,0 -0.459,1.724 -0.919,0 c -0.591,-2.22 -1.82,-4.076 -3.442,-5.2 1.622,-1.125 2.851,-2.982 3.442,-5.201 l 0.46,-1.724 L 0,-10.401 C 0.592,-8.182 1.821,-6.325 3.443,-5.2 1.821,-4.076 0.592,-2.22 0,0"
             style="fill:#fafafa;fill-opacity:1;fill-rule:nonzero;stroke:none"
             id="path4446"
             inkscape:connector-curvature="0" /></g><g
           id="g4448"
           transform="translate(65.1196,223.7314)"><path
             d="M 0,0 -0.632,2.374 -1.265,0 c -0.815,-3.056 -2.506,-5.612 -4.739,-7.159 2.233,-1.548 3.924,-4.105 4.739,-7.16 l 0.633,-2.374 0.632,2.374 c 0.815,3.055 2.506,5.612 4.739,7.16 C 2.506,-5.612 0.815,-3.056 0,0"
             style="fill:#fafafa;fill-opacity:1;fill-rule:nonzero;stroke:none"
             id="path4450"
             inkscape:connector-curvature="0" /></g></g></g></g></svg>